<?xml version="1.0" encoding="utf-8" standalone="no"?>
<!DOCTYPE svg PUBLIC "-//W3C//DTD SVG 1.1//EN"
  "http://www.w3.org/Graphics/SVG/1.1/DTD/svg11.dtd">
<svg xmlns:xlink="http://www.w3.org/1999/xlink" width="864pt" height="432pt" viewBox="0 0 864 432" xmlns="http://www.w3.org/2000/svg" version="1.1">
 <metadata>
  <rdf:RDF xmlns:dc="http://purl.org/dc/elements/1.1/" xmlns:cc="http://creativecommons.org/ns#" xmlns:rdf="http://www.w3.org/1999/02/22-rdf-syntax-ns#">
   <cc:Work>
    <dc:type rdf:resource="http://purl.org/dc/dcmitype/StillImage"/>
    <dc:date>2025-04-29T20:26:09.698129</dc:date>
    <dc:format>image/svg+xml</dc:format>
    <dc:creator>
     <cc:Agent>
      <dc:title>Matplotlib v3.10.0, https://matplotlib.org/</dc:title>
     </cc:Agent>
    </dc:creator>
   </cc:Work>
  </rdf:RDF>
 </metadata>
 <defs>
  <style type="text/css">*{stroke-linejoin: round; stroke-linecap: butt}</style>
 </defs>
 <g id="figure_1">
  <g id="patch_1">
   <path d="M 0 432 
L 864 432 
L 864 0 
L 0 0 
z
" style="fill: #ffffff"/>
  </g>
  <g id="axes_1">
   <g id="patch_2">
    <path d="M 55.772054 390.04 
L 853.2 390.04 
L 853.2 28.32 
L 55.772054 28.32 
z
" style="fill: #ffffff"/>
   </g>
   <g id="matplotlib.axis_1">
    <g id="xtick_1">
     <g id="line2d_1">
      <defs>
       <path id="m7231343dfc" d="M 0 0 
L 0 3.5 
" style="stroke: #000000; stroke-width: 0.8"/>
      </defs>
      <g>
       <use xlink:href="#m7231343dfc" x="84.696208" y="390.04" style="stroke: #000000; stroke-width: 0.8"/>
      </g>
     </g>
     <g id="text_1">
      <!-- 0 -->
      <g transform="translate(81.514958 404.638438) scale(0.1 -0.1)">
       <defs>
        <path id="DejaVuSans-30" d="M 2034 4250 
Q 1547 4250 1301 3770 
Q 1056 3291 1056 2328 
Q 1056 1369 1301 889 
Q 1547 409 2034 409 
Q 2525 409 2770 889 
Q 3016 1369 3016 2328 
Q 3016 3291 2770 3770 
Q 2525 4250 2034 4250 
z
M 2034 4750 
Q 2819 4750 3233 4129 
Q 3647 3509 3647 2328 
Q 3647 1150 3233 529 
Q 2819 -91 2034 -91 
Q 1250 -91 836 529 
Q 422 1150 422 2328 
Q 422 3509 836 4129 
Q 1250 4750 2034 4750 
z
" transform="scale(0.015625)"/>
       </defs>
       <use xlink:href="#DejaVuSans-30"/>
      </g>
     </g>
    </g>
    <g id="xtick_2">
     <g id="line2d_2">
      <g>
       <use xlink:href="#m7231343dfc" x="231.147621" y="390.04" style="stroke: #000000; stroke-width: 0.8"/>
      </g>
     </g>
     <g id="text_2">
      <!-- 20 -->
      <g transform="translate(224.785121 404.638438) scale(0.1 -0.1)">
       <defs>
        <path id="DejaVuSans-32" d="M 1228 531 
L 3431 531 
L 3431 0 
L 469 0 
L 469 531 
Q 828 903 1448 1529 
Q 2069 2156 2228 2338 
Q 2531 2678 2651 2914 
Q 2772 3150 2772 3378 
Q 2772 3750 2511 3984 
Q 2250 4219 1831 4219 
Q 1534 4219 1204 4116 
Q 875 4013 500 3803 
L 500 4441 
Q 881 4594 1212 4672 
Q 1544 4750 1819 4750 
Q 2544 4750 2975 4387 
Q 3406 4025 3406 3419 
Q 3406 3131 3298 2873 
Q 3191 2616 2906 2266 
Q 2828 2175 2409 1742 
Q 1991 1309 1228 531 
z
" transform="scale(0.015625)"/>
       </defs>
       <use xlink:href="#DejaVuSans-32"/>
       <use xlink:href="#DejaVuSans-30" transform="translate(63.623047 0)"/>
      </g>
     </g>
    </g>
    <g id="xtick_3">
     <g id="line2d_3">
      <g>
       <use xlink:href="#m7231343dfc" x="377.599035" y="390.04" style="stroke: #000000; stroke-width: 0.8"/>
      </g>
     </g>
     <g id="text_3">
      <!-- 40 -->
      <g transform="translate(371.236535 404.638438) scale(0.1 -0.1)">
       <defs>
        <path id="DejaVuSans-34" d="M 2419 4116 
L 825 1625 
L 2419 1625 
L 2419 4116 
z
M 2253 4666 
L 3047 4666 
L 3047 1625 
L 3713 1625 
L 3713 1100 
L 3047 1100 
L 3047 0 
L 2419 0 
L 2419 1100 
L 313 1100 
L 313 1709 
L 2253 4666 
z
" transform="scale(0.015625)"/>
       </defs>
       <use xlink:href="#DejaVuSans-34"/>
       <use xlink:href="#DejaVuSans-30" transform="translate(63.623047 0)"/>
      </g>
     </g>
    </g>
    <g id="xtick_4">
     <g id="line2d_4">
      <g>
       <use xlink:href="#m7231343dfc" x="524.050448" y="390.04" style="stroke: #000000; stroke-width: 0.8"/>
      </g>
     </g>
     <g id="text_4">
      <!-- 60 -->
      <g transform="translate(517.687948 404.638438) scale(0.1 -0.1)">
       <defs>
        <path id="DejaVuSans-36" d="M 2113 2584 
Q 1688 2584 1439 2293 
Q 1191 2003 1191 1497 
Q 1191 994 1439 701 
Q 1688 409 2113 409 
Q 2538 409 2786 701 
Q 3034 994 3034 1497 
Q 3034 2003 2786 2293 
Q 2538 2584 2113 2584 
z
M 3366 4563 
L 3366 3988 
Q 3128 4100 2886 4159 
Q 2644 4219 2406 4219 
Q 1781 4219 1451 3797 
Q 1122 3375 1075 2522 
Q 1259 2794 1537 2939 
Q 1816 3084 2150 3084 
Q 2853 3084 3261 2657 
Q 3669 2231 3669 1497 
Q 3669 778 3244 343 
Q 2819 -91 2113 -91 
Q 1303 -91 875 529 
Q 447 1150 447 2328 
Q 447 3434 972 4092 
Q 1497 4750 2381 4750 
Q 2619 4750 2861 4703 
Q 3103 4656 3366 4563 
z
" transform="scale(0.015625)"/>
       </defs>
       <use xlink:href="#DejaVuSans-36"/>
       <use xlink:href="#DejaVuSans-30" transform="translate(63.623047 0)"/>
      </g>
     </g>
    </g>
    <g id="xtick_5">
     <g id="line2d_5">
      <g>
       <use xlink:href="#m7231343dfc" x="670.501862" y="390.04" style="stroke: #000000; stroke-width: 0.8"/>
      </g>
     </g>
     <g id="text_5">
      <!-- 80 -->
      <g transform="translate(664.139362 404.638438) scale(0.1 -0.1)">
       <defs>
        <path id="DejaVuSans-38" d="M 2034 2216 
Q 1584 2216 1326 1975 
Q 1069 1734 1069 1313 
Q 1069 891 1326 650 
Q 1584 409 2034 409 
Q 2484 409 2743 651 
Q 3003 894 3003 1313 
Q 3003 1734 2745 1975 
Q 2488 2216 2034 2216 
z
M 1403 2484 
Q 997 2584 770 2862 
Q 544 3141 544 3541 
Q 544 4100 942 4425 
Q 1341 4750 2034 4750 
Q 2731 4750 3128 4425 
Q 3525 4100 3525 3541 
Q 3525 3141 3298 2862 
Q 3072 2584 2669 2484 
Q 3125 2378 3379 2068 
Q 3634 1759 3634 1313 
Q 3634 634 3220 271 
Q 2806 -91 2034 -91 
Q 1263 -91 848 271 
Q 434 634 434 1313 
Q 434 1759 690 2068 
Q 947 2378 1403 2484 
z
M 1172 3481 
Q 1172 3119 1398 2916 
Q 1625 2713 2034 2713 
Q 2441 2713 2670 2916 
Q 2900 3119 2900 3481 
Q 2900 3844 2670 4047 
Q 2441 4250 2034 4250 
Q 1625 4250 1398 4047 
Q 1172 3844 1172 3481 
z
" transform="scale(0.015625)"/>
       </defs>
       <use xlink:href="#DejaVuSans-38"/>
       <use xlink:href="#DejaVuSans-30" transform="translate(63.623047 0)"/>
      </g>
     </g>
    </g>
    <g id="xtick_6">
     <g id="line2d_6">
      <g>
       <use xlink:href="#m7231343dfc" x="816.953275" y="390.04" style="stroke: #000000; stroke-width: 0.8"/>
      </g>
     </g>
     <g id="text_6">
      <!-- 100 -->
      <g transform="translate(807.409525 404.638438) scale(0.1 -0.1)">
       <defs>
        <path id="DejaVuSans-31" d="M 794 531 
L 1825 531 
L 1825 4091 
L 703 3866 
L 703 4441 
L 1819 4666 
L 2450 4666 
L 2450 531 
L 3481 531 
L 3481 0 
L 794 0 
L 794 531 
z
" transform="scale(0.015625)"/>
       </defs>
       <use xlink:href="#DejaVuSans-31"/>
       <use xlink:href="#DejaVuSans-30" transform="translate(63.623047 0)"/>
       <use xlink:href="#DejaVuSans-30" transform="translate(127.246094 0)"/>
      </g>
     </g>
    </g>
    <g id="text_7">
     <!-- No. Iterations -->
     <g transform="translate(420.782121 418.316562) scale(0.1 -0.1)">
      <defs>
       <path id="DejaVuSans-4e" d="M 628 4666 
L 1478 4666 
L 3547 763 
L 3547 4666 
L 4159 4666 
L 4159 0 
L 3309 0 
L 1241 3903 
L 1241 0 
L 628 0 
L 628 4666 
z
" transform="scale(0.015625)"/>
       <path id="DejaVuSans-6f" d="M 1959 3097 
Q 1497 3097 1228 2736 
Q 959 2375 959 1747 
Q 959 1119 1226 758 
Q 1494 397 1959 397 
Q 2419 397 2687 759 
Q 2956 1122 2956 1747 
Q 2956 2369 2687 2733 
Q 2419 3097 1959 3097 
z
M 1959 3584 
Q 2709 3584 3137 3096 
Q 3566 2609 3566 1747 
Q 3566 888 3137 398 
Q 2709 -91 1959 -91 
Q 1206 -91 779 398 
Q 353 888 353 1747 
Q 353 2609 779 3096 
Q 1206 3584 1959 3584 
z
" transform="scale(0.015625)"/>
       <path id="DejaVuSans-2e" d="M 684 794 
L 1344 794 
L 1344 0 
L 684 0 
L 684 794 
z
" transform="scale(0.015625)"/>
       <path id="DejaVuSans-20" transform="scale(0.015625)"/>
       <path id="DejaVuSans-49" d="M 628 4666 
L 1259 4666 
L 1259 0 
L 628 0 
L 628 4666 
z
" transform="scale(0.015625)"/>
       <path id="DejaVuSans-74" d="M 1172 4494 
L 1172 3500 
L 2356 3500 
L 2356 3053 
L 1172 3053 
L 1172 1153 
Q 1172 725 1289 603 
Q 1406 481 1766 481 
L 2356 481 
L 2356 0 
L 1766 0 
Q 1100 0 847 248 
Q 594 497 594 1153 
L 594 3053 
L 172 3053 
L 172 3500 
L 594 3500 
L 594 4494 
L 1172 4494 
z
" transform="scale(0.015625)"/>
       <path id="DejaVuSans-65" d="M 3597 1894 
L 3597 1613 
L 953 1613 
Q 991 1019 1311 708 
Q 1631 397 2203 397 
Q 2534 397 2845 478 
Q 3156 559 3463 722 
L 3463 178 
Q 3153 47 2828 -22 
Q 2503 -91 2169 -91 
Q 1331 -91 842 396 
Q 353 884 353 1716 
Q 353 2575 817 3079 
Q 1281 3584 2069 3584 
Q 2775 3584 3186 3129 
Q 3597 2675 3597 1894 
z
M 3022 2063 
Q 3016 2534 2758 2815 
Q 2500 3097 2075 3097 
Q 1594 3097 1305 2825 
Q 1016 2553 972 2059 
L 3022 2063 
z
" transform="scale(0.015625)"/>
       <path id="DejaVuSans-72" d="M 2631 2963 
Q 2534 3019 2420 3045 
Q 2306 3072 2169 3072 
Q 1681 3072 1420 2755 
Q 1159 2438 1159 1844 
L 1159 0 
L 581 0 
L 581 3500 
L 1159 3500 
L 1159 2956 
Q 1341 3275 1631 3429 
Q 1922 3584 2338 3584 
Q 2397 3584 2469 3576 
Q 2541 3569 2628 3553 
L 2631 2963 
z
" transform="scale(0.015625)"/>
       <path id="DejaVuSans-61" d="M 2194 1759 
Q 1497 1759 1228 1600 
Q 959 1441 959 1056 
Q 959 750 1161 570 
Q 1363 391 1709 391 
Q 2188 391 2477 730 
Q 2766 1069 2766 1631 
L 2766 1759 
L 2194 1759 
z
M 3341 1997 
L 3341 0 
L 2766 0 
L 2766 531 
Q 2569 213 2275 61 
Q 1981 -91 1556 -91 
Q 1019 -91 701 211 
Q 384 513 384 1019 
Q 384 1609 779 1909 
Q 1175 2209 1959 2209 
L 2766 2209 
L 2766 2266 
Q 2766 2663 2505 2880 
Q 2244 3097 1772 3097 
Q 1472 3097 1187 3025 
Q 903 2953 641 2809 
L 641 3341 
Q 956 3463 1253 3523 
Q 1550 3584 1831 3584 
Q 2591 3584 2966 3190 
Q 3341 2797 3341 1997 
z
" transform="scale(0.015625)"/>
       <path id="DejaVuSans-69" d="M 603 3500 
L 1178 3500 
L 1178 0 
L 603 0 
L 603 3500 
z
M 603 4863 
L 1178 4863 
L 1178 4134 
L 603 4134 
L 603 4863 
z
" transform="scale(0.015625)"/>
       <path id="DejaVuSans-6e" d="M 3513 2113 
L 3513 0 
L 2938 0 
L 2938 2094 
Q 2938 2591 2744 2837 
Q 2550 3084 2163 3084 
Q 1697 3084 1428 2787 
Q 1159 2491 1159 1978 
L 1159 0 
L 581 0 
L 581 3500 
L 1159 3500 
L 1159 2956 
Q 1366 3272 1645 3428 
Q 1925 3584 2291 3584 
Q 2894 3584 3203 3211 
Q 3513 2838 3513 2113 
z
" transform="scale(0.015625)"/>
       <path id="DejaVuSans-73" d="M 2834 3397 
L 2834 2853 
Q 2591 2978 2328 3040 
Q 2066 3103 1784 3103 
Q 1356 3103 1142 2972 
Q 928 2841 928 2578 
Q 928 2378 1081 2264 
Q 1234 2150 1697 2047 
L 1894 2003 
Q 2506 1872 2764 1633 
Q 3022 1394 3022 966 
Q 3022 478 2636 193 
Q 2250 -91 1575 -91 
Q 1294 -91 989 -36 
Q 684 19 347 128 
L 347 722 
Q 666 556 975 473 
Q 1284 391 1588 391 
Q 1994 391 2212 530 
Q 2431 669 2431 922 
Q 2431 1156 2273 1281 
Q 2116 1406 1581 1522 
L 1381 1569 
Q 847 1681 609 1914 
Q 372 2147 372 2553 
Q 372 3047 722 3315 
Q 1072 3584 1716 3584 
Q 2034 3584 2315 3537 
Q 2597 3491 2834 3397 
z
" transform="scale(0.015625)"/>
      </defs>
      <use xlink:href="#DejaVuSans-4e"/>
      <use xlink:href="#DejaVuSans-6f" transform="translate(74.804688 0)"/>
      <use xlink:href="#DejaVuSans-2e" transform="translate(134.236328 0)"/>
      <use xlink:href="#DejaVuSans-20" transform="translate(166.023438 0)"/>
      <use xlink:href="#DejaVuSans-49" transform="translate(197.810547 0)"/>
      <use xlink:href="#DejaVuSans-74" transform="translate(227.302734 0)"/>
      <use xlink:href="#DejaVuSans-65" transform="translate(266.511719 0)"/>
      <use xlink:href="#DejaVuSans-72" transform="translate(328.035156 0)"/>
      <use xlink:href="#DejaVuSans-61" transform="translate(369.148438 0)"/>
      <use xlink:href="#DejaVuSans-74" transform="translate(430.427734 0)"/>
      <use xlink:href="#DejaVuSans-69" transform="translate(469.636719 0)"/>
      <use xlink:href="#DejaVuSans-6f" transform="translate(497.419922 0)"/>
      <use xlink:href="#DejaVuSans-6e" transform="translate(558.601562 0)"/>
      <use xlink:href="#DejaVuSans-73" transform="translate(621.980469 0)"/>
     </g>
    </g>
   </g>
   <g id="matplotlib.axis_2">
    <g id="ytick_1">
     <g id="line2d_7">
      <defs>
       <path id="me1f27b31f0" d="M 0 0 
L -3.5 0 
" style="stroke: #000000; stroke-width: 0.8"/>
      </defs>
      <g>
       <use xlink:href="#me1f27b31f0" x="55.772054" y="379.690249" style="stroke: #000000; stroke-width: 0.8"/>
      </g>
     </g>
     <g id="text_8">
      <!-- $\mathdefault{10^{-1}}$ -->
      <g transform="translate(25.272054 383.489467) scale(0.1 -0.1)">
       <defs>
        <path id="DejaVuSans-2212" d="M 678 2272 
L 4684 2272 
L 4684 1741 
L 678 1741 
L 678 2272 
z
" transform="scale(0.015625)"/>
       </defs>
       <use xlink:href="#DejaVuSans-31" transform="translate(0 0.684375)"/>
       <use xlink:href="#DejaVuSans-30" transform="translate(63.623047 0.684375)"/>
       <use xlink:href="#DejaVuSans-2212" transform="translate(128.203125 38.965625) scale(0.7)"/>
       <use xlink:href="#DejaVuSans-31" transform="translate(186.855469 38.965625) scale(0.7)"/>
      </g>
     </g>
    </g>
    <g id="ytick_2">
     <g id="line2d_8">
      <g>
       <use xlink:href="#me1f27b31f0" x="55.772054" y="275.57502" style="stroke: #000000; stroke-width: 0.8"/>
      </g>
     </g>
     <g id="text_9">
      <!-- $\mathdefault{10^{0}}$ -->
      <g transform="translate(31.172054 279.374239) scale(0.1 -0.1)">
       <use xlink:href="#DejaVuSans-31" transform="translate(0 0.765625)"/>
       <use xlink:href="#DejaVuSans-30" transform="translate(63.623047 0.765625)"/>
       <use xlink:href="#DejaVuSans-30" transform="translate(128.203125 39.046875) scale(0.7)"/>
      </g>
     </g>
    </g>
    <g id="ytick_3">
     <g id="line2d_9">
      <g>
       <use xlink:href="#me1f27b31f0" x="55.772054" y="171.459791" style="stroke: #000000; stroke-width: 0.8"/>
      </g>
     </g>
     <g id="text_10">
      <!-- $\mathdefault{10^{1}}$ -->
      <g transform="translate(31.172054 175.25901) scale(0.1 -0.1)">
       <use xlink:href="#DejaVuSans-31" transform="translate(0 0.684375)"/>
       <use xlink:href="#DejaVuSans-30" transform="translate(63.623047 0.684375)"/>
       <use xlink:href="#DejaVuSans-31" transform="translate(128.203125 38.965625) scale(0.7)"/>
      </g>
     </g>
    </g>
    <g id="ytick_4">
     <g id="line2d_10">
      <g>
       <use xlink:href="#me1f27b31f0" x="55.772054" y="67.344563" style="stroke: #000000; stroke-width: 0.8"/>
      </g>
     </g>
     <g id="text_11">
      <!-- $\mathdefault{10^{2}}$ -->
      <g transform="translate(31.172054 71.143781) scale(0.1 -0.1)">
       <use xlink:href="#DejaVuSans-31" transform="translate(0 0.765625)"/>
       <use xlink:href="#DejaVuSans-30" transform="translate(63.623047 0.765625)"/>
       <use xlink:href="#DejaVuSans-32" transform="translate(128.203125 39.046875) scale(0.7)"/>
      </g>
     </g>
    </g>
    <g id="ytick_5">
     <g id="line2d_11">
      <defs>
       <path id="m04f3e7937b" d="M 0 0 
L -2 0 
" style="stroke: #000000; stroke-width: 0.6"/>
      </defs>
      <g>
       <use xlink:href="#m04f3e7937b" x="55.772054" y="389.780057" style="stroke: #000000; stroke-width: 0.6"/>
      </g>
     </g>
    </g>
    <g id="ytick_6">
     <g id="line2d_12">
      <g>
       <use xlink:href="#m04f3e7937b" x="55.772054" y="384.4543" style="stroke: #000000; stroke-width: 0.6"/>
      </g>
     </g>
    </g>
    <g id="ytick_7">
     <g id="line2d_13">
      <g>
       <use xlink:href="#m04f3e7937b" x="55.772054" y="348.348442" style="stroke: #000000; stroke-width: 0.6"/>
      </g>
     </g>
    </g>
    <g id="ytick_8">
     <g id="line2d_14">
      <g>
       <use xlink:href="#m04f3e7937b" x="55.772054" y="330.01466" style="stroke: #000000; stroke-width: 0.6"/>
      </g>
     </g>
    </g>
    <g id="ytick_9">
     <g id="line2d_15">
      <g>
       <use xlink:href="#m04f3e7937b" x="55.772054" y="317.006635" style="stroke: #000000; stroke-width: 0.6"/>
      </g>
     </g>
    </g>
    <g id="ytick_10">
     <g id="line2d_16">
      <g>
       <use xlink:href="#m04f3e7937b" x="55.772054" y="306.916827" style="stroke: #000000; stroke-width: 0.6"/>
      </g>
     </g>
    </g>
    <g id="ytick_11">
     <g id="line2d_17">
      <g>
       <use xlink:href="#m04f3e7937b" x="55.772054" y="298.672853" style="stroke: #000000; stroke-width: 0.6"/>
      </g>
     </g>
    </g>
    <g id="ytick_12">
     <g id="line2d_18">
      <g>
       <use xlink:href="#m04f3e7937b" x="55.772054" y="291.702673" style="stroke: #000000; stroke-width: 0.6"/>
      </g>
     </g>
    </g>
    <g id="ytick_13">
     <g id="line2d_19">
      <g>
       <use xlink:href="#m04f3e7937b" x="55.772054" y="285.664828" style="stroke: #000000; stroke-width: 0.6"/>
      </g>
     </g>
    </g>
    <g id="ytick_14">
     <g id="line2d_20">
      <g>
       <use xlink:href="#m04f3e7937b" x="55.772054" y="280.339071" style="stroke: #000000; stroke-width: 0.6"/>
      </g>
     </g>
    </g>
    <g id="ytick_15">
     <g id="line2d_21">
      <g>
       <use xlink:href="#m04f3e7937b" x="55.772054" y="244.233213" style="stroke: #000000; stroke-width: 0.6"/>
      </g>
     </g>
    </g>
    <g id="ytick_16">
     <g id="line2d_22">
      <g>
       <use xlink:href="#m04f3e7937b" x="55.772054" y="225.899431" style="stroke: #000000; stroke-width: 0.6"/>
      </g>
     </g>
    </g>
    <g id="ytick_17">
     <g id="line2d_23">
      <g>
       <use xlink:href="#m04f3e7937b" x="55.772054" y="212.891406" style="stroke: #000000; stroke-width: 0.6"/>
      </g>
     </g>
    </g>
    <g id="ytick_18">
     <g id="line2d_24">
      <g>
       <use xlink:href="#m04f3e7937b" x="55.772054" y="202.801598" style="stroke: #000000; stroke-width: 0.6"/>
      </g>
     </g>
    </g>
    <g id="ytick_19">
     <g id="line2d_25">
      <g>
       <use xlink:href="#m04f3e7937b" x="55.772054" y="194.557625" style="stroke: #000000; stroke-width: 0.6"/>
      </g>
     </g>
    </g>
    <g id="ytick_20">
     <g id="line2d_26">
      <g>
       <use xlink:href="#m04f3e7937b" x="55.772054" y="187.587444" style="stroke: #000000; stroke-width: 0.6"/>
      </g>
     </g>
    </g>
    <g id="ytick_21">
     <g id="line2d_27">
      <g>
       <use xlink:href="#m04f3e7937b" x="55.772054" y="181.549599" style="stroke: #000000; stroke-width: 0.6"/>
      </g>
     </g>
    </g>
    <g id="ytick_22">
     <g id="line2d_28">
      <g>
       <use xlink:href="#m04f3e7937b" x="55.772054" y="176.223843" style="stroke: #000000; stroke-width: 0.6"/>
      </g>
     </g>
    </g>
    <g id="ytick_23">
     <g id="line2d_29">
      <g>
       <use xlink:href="#m04f3e7937b" x="55.772054" y="140.117984" style="stroke: #000000; stroke-width: 0.6"/>
      </g>
     </g>
    </g>
    <g id="ytick_24">
     <g id="line2d_30">
      <g>
       <use xlink:href="#m04f3e7937b" x="55.772054" y="121.784203" style="stroke: #000000; stroke-width: 0.6"/>
      </g>
     </g>
    </g>
    <g id="ytick_25">
     <g id="line2d_31">
      <g>
       <use xlink:href="#m04f3e7937b" x="55.772054" y="108.776178" style="stroke: #000000; stroke-width: 0.6"/>
      </g>
     </g>
    </g>
    <g id="ytick_26">
     <g id="line2d_32">
      <g>
       <use xlink:href="#m04f3e7937b" x="55.772054" y="98.686369" style="stroke: #000000; stroke-width: 0.6"/>
      </g>
     </g>
    </g>
    <g id="ytick_27">
     <g id="line2d_33">
      <g>
       <use xlink:href="#m04f3e7937b" x="55.772054" y="90.442396" style="stroke: #000000; stroke-width: 0.6"/>
      </g>
     </g>
    </g>
    <g id="ytick_28">
     <g id="line2d_34">
      <g>
       <use xlink:href="#m04f3e7937b" x="55.772054" y="83.472216" style="stroke: #000000; stroke-width: 0.6"/>
      </g>
     </g>
    </g>
    <g id="ytick_29">
     <g id="line2d_35">
      <g>
       <use xlink:href="#m04f3e7937b" x="55.772054" y="77.434371" style="stroke: #000000; stroke-width: 0.6"/>
      </g>
     </g>
    </g>
    <g id="ytick_30">
     <g id="line2d_36">
      <g>
       <use xlink:href="#m04f3e7937b" x="55.772054" y="72.108614" style="stroke: #000000; stroke-width: 0.6"/>
      </g>
     </g>
    </g>
    <g id="ytick_31">
     <g id="line2d_37">
      <g>
       <use xlink:href="#m04f3e7937b" x="55.772054" y="36.002756" style="stroke: #000000; stroke-width: 0.6"/>
      </g>
     </g>
    </g>
    <g id="text_12">
     <!-- Function Value -->
     <g transform="translate(19.192366 245.765156) rotate(-90) scale(0.1 -0.1)">
      <defs>
       <path id="DejaVuSans-46" d="M 628 4666 
L 3309 4666 
L 3309 4134 
L 1259 4134 
L 1259 2759 
L 3109 2759 
L 3109 2228 
L 1259 2228 
L 1259 0 
L 628 0 
L 628 4666 
z
" transform="scale(0.015625)"/>
       <path id="DejaVuSans-75" d="M 544 1381 
L 544 3500 
L 1119 3500 
L 1119 1403 
Q 1119 906 1312 657 
Q 1506 409 1894 409 
Q 2359 409 2629 706 
Q 2900 1003 2900 1516 
L 2900 3500 
L 3475 3500 
L 3475 0 
L 2900 0 
L 2900 538 
Q 2691 219 2414 64 
Q 2138 -91 1772 -91 
Q 1169 -91 856 284 
Q 544 659 544 1381 
z
M 1991 3584 
L 1991 3584 
z
" transform="scale(0.015625)"/>
       <path id="DejaVuSans-63" d="M 3122 3366 
L 3122 2828 
Q 2878 2963 2633 3030 
Q 2388 3097 2138 3097 
Q 1578 3097 1268 2742 
Q 959 2388 959 1747 
Q 959 1106 1268 751 
Q 1578 397 2138 397 
Q 2388 397 2633 464 
Q 2878 531 3122 666 
L 3122 134 
Q 2881 22 2623 -34 
Q 2366 -91 2075 -91 
Q 1284 -91 818 406 
Q 353 903 353 1747 
Q 353 2603 823 3093 
Q 1294 3584 2113 3584 
Q 2378 3584 2631 3529 
Q 2884 3475 3122 3366 
z
" transform="scale(0.015625)"/>
       <path id="DejaVuSans-56" d="M 1831 0 
L 50 4666 
L 709 4666 
L 2188 738 
L 3669 4666 
L 4325 4666 
L 2547 0 
L 1831 0 
z
" transform="scale(0.015625)"/>
       <path id="DejaVuSans-6c" d="M 603 4863 
L 1178 4863 
L 1178 0 
L 603 0 
L 603 4863 
z
" transform="scale(0.015625)"/>
      </defs>
      <use xlink:href="#DejaVuSans-46"/>
      <use xlink:href="#DejaVuSans-75" transform="translate(52.019531 0)"/>
      <use xlink:href="#DejaVuSans-6e" transform="translate(115.398438 0)"/>
      <use xlink:href="#DejaVuSans-63" transform="translate(178.777344 0)"/>
      <use xlink:href="#DejaVuSans-74" transform="translate(233.757812 0)"/>
      <use xlink:href="#DejaVuSans-69" transform="translate(272.966797 0)"/>
      <use xlink:href="#DejaVuSans-6f" transform="translate(300.75 0)"/>
      <use xlink:href="#DejaVuSans-6e" transform="translate(361.931641 0)"/>
      <use xlink:href="#DejaVuSans-20" transform="translate(425.310547 0)"/>
      <use xlink:href="#DejaVuSans-56" transform="translate(457.097656 0)"/>
      <use xlink:href="#DejaVuSans-61" transform="translate(517.755859 0)"/>
      <use xlink:href="#DejaVuSans-6c" transform="translate(579.035156 0)"/>
      <use xlink:href="#DejaVuSans-75" transform="translate(606.818359 0)"/>
      <use xlink:href="#DejaVuSans-65" transform="translate(670.197266 0)"/>
     </g>
    </g>
   </g>
   <g id="LineCollection_1">
    <path d="M 92.018779 45.415562 
L 92.018779 44.797903 
" clip-path="url(#p0190eb939a)" style="fill: none; stroke: #1f77b4; stroke-width: 1.5"/>
    <path d="M 99.341349 45.68051 
L 99.341349 45.196056 
" clip-path="url(#p0190eb939a)" style="fill: none; stroke: #1f77b4; stroke-width: 1.5"/>
    <path d="M 106.66392 45.839814 
L 106.66392 45.408642 
" clip-path="url(#p0190eb939a)" style="fill: none; stroke: #1f77b4; stroke-width: 1.5"/>
    <path d="M 113.986491 46.364367 
L 113.986491 45.901834 
" clip-path="url(#p0190eb939a)" style="fill: none; stroke: #1f77b4; stroke-width: 1.5"/>
    <path d="M 121.309061 46.786365 
L 121.309061 46.209129 
" clip-path="url(#p0190eb939a)" style="fill: none; stroke: #1f77b4; stroke-width: 1.5"/>
    <path d="M 128.631632 47.234065 
L 128.631632 46.470811 
" clip-path="url(#p0190eb939a)" style="fill: none; stroke: #1f77b4; stroke-width: 1.5"/>
    <path d="M 135.954203 47.558317 
L 135.954203 46.991924 
" clip-path="url(#p0190eb939a)" style="fill: none; stroke: #1f77b4; stroke-width: 1.5"/>
    <path d="M 143.276773 47.97286 
L 143.276773 47.201867 
" clip-path="url(#p0190eb939a)" style="fill: none; stroke: #1f77b4; stroke-width: 1.5"/>
    <path d="M 150.599344 48.454756 
L 150.599344 47.743094 
" clip-path="url(#p0190eb939a)" style="fill: none; stroke: #1f77b4; stroke-width: 1.5"/>
    <path d="M 157.921915 48.989059 
L 157.921915 48.124651 
" clip-path="url(#p0190eb939a)" style="fill: none; stroke: #1f77b4; stroke-width: 1.5"/>
    <path d="M 165.244485 50.526696 
L 165.244485 49.142868 
" clip-path="url(#p0190eb939a)" style="fill: none; stroke: #1f77b4; stroke-width: 1.5"/>
    <path d="M 172.567056 51.03101 
L 172.567056 49.871392 
" clip-path="url(#p0190eb939a)" style="fill: none; stroke: #1f77b4; stroke-width: 1.5"/>
    <path d="M 179.889627 54.348556 
L 179.889627 52.317391 
" clip-path="url(#p0190eb939a)" style="fill: none; stroke: #1f77b4; stroke-width: 1.5"/>
    <path d="M 187.212197 59.165831 
L 187.212197 54.850286 
" clip-path="url(#p0190eb939a)" style="fill: none; stroke: #1f77b4; stroke-width: 1.5"/>
    <path d="M 194.534768 66.908638 
L 194.534768 60.403121 
" clip-path="url(#p0190eb939a)" style="fill: none; stroke: #1f77b4; stroke-width: 1.5"/>
    <path d="M 201.857339 79.798981 
L 201.857339 71.340507 
" clip-path="url(#p0190eb939a)" style="fill: none; stroke: #1f77b4; stroke-width: 1.5"/>
    <path d="M 209.179909 92.30388 
L 209.179909 82.430311 
" clip-path="url(#p0190eb939a)" style="fill: none; stroke: #1f77b4; stroke-width: 1.5"/>
    <path d="M 216.50248 103.351932 
L 216.50248 93.682821 
" clip-path="url(#p0190eb939a)" style="fill: none; stroke: #1f77b4; stroke-width: 1.5"/>
    <path d="M 223.825051 116.889691 
L 223.825051 107.178728 
" clip-path="url(#p0190eb939a)" style="fill: none; stroke: #1f77b4; stroke-width: 1.5"/>
    <path d="M 231.147621 133.67802 
L 231.147621 117.983781 
" clip-path="url(#p0190eb939a)" style="fill: none; stroke: #1f77b4; stroke-width: 1.5"/>
    <path d="M 238.470192 145.03104 
L 238.470192 133.194682 
" clip-path="url(#p0190eb939a)" style="fill: none; stroke: #1f77b4; stroke-width: 1.5"/>
    <path d="M 245.792763 152.058139 
L 245.792763 138.239369 
" clip-path="url(#p0190eb939a)" style="fill: none; stroke: #1f77b4; stroke-width: 1.5"/>
    <path d="M 253.115333 157.081731 
L 253.115333 146.238093 
" clip-path="url(#p0190eb939a)" style="fill: none; stroke: #1f77b4; stroke-width: 1.5"/>
    <path d="M 260.437904 171.943834 
L 260.437904 156.695632 
" clip-path="url(#p0190eb939a)" style="fill: none; stroke: #1f77b4; stroke-width: 1.5"/>
    <path d="M 267.760475 179.988447 
L 267.760475 167.761377 
" clip-path="url(#p0190eb939a)" style="fill: none; stroke: #1f77b4; stroke-width: 1.5"/>
    <path d="M 275.083046 192.88696 
L 275.083046 174.940291 
" clip-path="url(#p0190eb939a)" style="fill: none; stroke: #1f77b4; stroke-width: 1.5"/>
    <path d="M 282.405616 189.251471 
L 282.405616 180.874652 
" clip-path="url(#p0190eb939a)" style="fill: none; stroke: #1f77b4; stroke-width: 1.5"/>
    <path d="M 289.728187 204.277077 
L 289.728187 187.117442 
" clip-path="url(#p0190eb939a)" style="fill: none; stroke: #1f77b4; stroke-width: 1.5"/>
    <path d="M 297.050758 205.237594 
L 297.050758 187.494895 
" clip-path="url(#p0190eb939a)" style="fill: none; stroke: #1f77b4; stroke-width: 1.5"/>
    <path d="M 304.373328 211.468975 
L 304.373328 192.356757 
" clip-path="url(#p0190eb939a)" style="fill: none; stroke: #1f77b4; stroke-width: 1.5"/>
    <path d="M 311.695899 226.713376 
L 311.695899 207.055352 
" clip-path="url(#p0190eb939a)" style="fill: none; stroke: #1f77b4; stroke-width: 1.5"/>
    <path d="M 319.01847 209.28152 
L 319.01847 199.433394 
" clip-path="url(#p0190eb939a)" style="fill: none; stroke: #1f77b4; stroke-width: 1.5"/>
    <path d="M 326.34104 215.651022 
L 326.34104 206.568296 
" clip-path="url(#p0190eb939a)" style="fill: none; stroke: #1f77b4; stroke-width: 1.5"/>
    <path d="M 333.663611 222.128573 
L 333.663611 199.228038 
" clip-path="url(#p0190eb939a)" style="fill: none; stroke: #1f77b4; stroke-width: 1.5"/>
    <path d="M 340.986182 224.483658 
L 340.986182 204.393326 
" clip-path="url(#p0190eb939a)" style="fill: none; stroke: #1f77b4; stroke-width: 1.5"/>
    <path d="M 348.308752 225.985427 
L 348.308752 206.114498 
" clip-path="url(#p0190eb939a)" style="fill: none; stroke: #1f77b4; stroke-width: 1.5"/>
    <path d="M 355.631323 217.860024 
L 355.631323 202.189692 
" clip-path="url(#p0190eb939a)" style="fill: none; stroke: #1f77b4; stroke-width: 1.5"/>
    <path d="M 362.953894 226.922021 
L 362.953894 211.205802 
" clip-path="url(#p0190eb939a)" style="fill: none; stroke: #1f77b4; stroke-width: 1.5"/>
    <path d="M 370.276464 225.982465 
L 370.276464 206.98409 
" clip-path="url(#p0190eb939a)" style="fill: none; stroke: #1f77b4; stroke-width: 1.5"/>
    <path d="M 377.599035 224.134604 
L 377.599035 212.280367 
" clip-path="url(#p0190eb939a)" style="fill: none; stroke: #1f77b4; stroke-width: 1.5"/>
    <path d="M 384.921606 231.513475 
L 384.921606 211.795907 
" clip-path="url(#p0190eb939a)" style="fill: none; stroke: #1f77b4; stroke-width: 1.5"/>
    <path d="M 392.244176 226.864975 
L 392.244176 211.819749 
" clip-path="url(#p0190eb939a)" style="fill: none; stroke: #1f77b4; stroke-width: 1.5"/>
    <path d="M 399.566747 220.170453 
L 399.566747 208.652533 
" clip-path="url(#p0190eb939a)" style="fill: none; stroke: #1f77b4; stroke-width: 1.5"/>
    <path d="M 406.889318 221.263324 
L 406.889318 203.474044 
" clip-path="url(#p0190eb939a)" style="fill: none; stroke: #1f77b4; stroke-width: 1.5"/>
    <path d="M 414.211888 233.895209 
L 414.211888 212.478715 
" clip-path="url(#p0190eb939a)" style="fill: none; stroke: #1f77b4; stroke-width: 1.5"/>
    <path d="M 421.534459 222.773006 
L 421.534459 210.585287 
" clip-path="url(#p0190eb939a)" style="fill: none; stroke: #1f77b4; stroke-width: 1.5"/>
    <path d="M 428.85703 220.795456 
L 428.85703 202.704188 
" clip-path="url(#p0190eb939a)" style="fill: none; stroke: #1f77b4; stroke-width: 1.5"/>
    <path d="M 436.1796 228.214285 
L 436.1796 208.510163 
" clip-path="url(#p0190eb939a)" style="fill: none; stroke: #1f77b4; stroke-width: 1.5"/>
    <path d="M 443.502171 234.127199 
L 443.502171 211.629474 
" clip-path="url(#p0190eb939a)" style="fill: none; stroke: #1f77b4; stroke-width: 1.5"/>
    <path d="M 450.824742 224.785189 
L 450.824742 204.3581 
" clip-path="url(#p0190eb939a)" style="fill: none; stroke: #1f77b4; stroke-width: 1.5"/>
    <path d="M 458.147312 225.845641 
L 458.147312 212.19802 
" clip-path="url(#p0190eb939a)" style="fill: none; stroke: #1f77b4; stroke-width: 1.5"/>
    <path d="M 465.469883 222.994966 
L 465.469883 204.820251 
" clip-path="url(#p0190eb939a)" style="fill: none; stroke: #1f77b4; stroke-width: 1.5"/>
    <path d="M 472.792454 220.942653 
L 472.792454 206.616662 
" clip-path="url(#p0190eb939a)" style="fill: none; stroke: #1f77b4; stroke-width: 1.5"/>
    <path d="M 480.115024 226.01356 
L 480.115024 207.467911 
" clip-path="url(#p0190eb939a)" style="fill: none; stroke: #1f77b4; stroke-width: 1.5"/>
    <path d="M 487.437595 233.822019 
L 487.437595 215.886153 
" clip-path="url(#p0190eb939a)" style="fill: none; stroke: #1f77b4; stroke-width: 1.5"/>
    <path d="M 494.760166 225.369481 
L 494.760166 204.398652 
" clip-path="url(#p0190eb939a)" style="fill: none; stroke: #1f77b4; stroke-width: 1.5"/>
    <path d="M 502.082736 222.447082 
L 502.082736 214.633026 
" clip-path="url(#p0190eb939a)" style="fill: none; stroke: #1f77b4; stroke-width: 1.5"/>
    <path d="M 509.405307 227.84028 
L 509.405307 205.133736 
" clip-path="url(#p0190eb939a)" style="fill: none; stroke: #1f77b4; stroke-width: 1.5"/>
    <path d="M 516.727878 222.318113 
L 516.727878 202.438981 
" clip-path="url(#p0190eb939a)" style="fill: none; stroke: #1f77b4; stroke-width: 1.5"/>
    <path d="M 524.050448 232.271741 
L 524.050448 213.575953 
" clip-path="url(#p0190eb939a)" style="fill: none; stroke: #1f77b4; stroke-width: 1.5"/>
    <path d="M 531.373019 222.669576 
L 531.373019 210.360635 
" clip-path="url(#p0190eb939a)" style="fill: none; stroke: #1f77b4; stroke-width: 1.5"/>
    <path d="M 538.69559 220.89453 
L 538.69559 207.795022 
" clip-path="url(#p0190eb939a)" style="fill: none; stroke: #1f77b4; stroke-width: 1.5"/>
    <path d="M 546.01816 223.002292 
L 546.01816 204.384164 
" clip-path="url(#p0190eb939a)" style="fill: none; stroke: #1f77b4; stroke-width: 1.5"/>
    <path d="M 553.340731 236.032124 
L 553.340731 214.860529 
" clip-path="url(#p0190eb939a)" style="fill: none; stroke: #1f77b4; stroke-width: 1.5"/>
    <path d="M 560.663302 220.323145 
L 560.663302 206.158677 
" clip-path="url(#p0190eb939a)" style="fill: none; stroke: #1f77b4; stroke-width: 1.5"/>
    <path d="M 567.985872 226.58212 
L 567.985872 214.266015 
" clip-path="url(#p0190eb939a)" style="fill: none; stroke: #1f77b4; stroke-width: 1.5"/>
    <path d="M 575.308443 217.70927 
L 575.308443 210.508441 
" clip-path="url(#p0190eb939a)" style="fill: none; stroke: #1f77b4; stroke-width: 1.5"/>
    <path d="M 582.631014 226.909569 
L 582.631014 213.905507 
" clip-path="url(#p0190eb939a)" style="fill: none; stroke: #1f77b4; stroke-width: 1.5"/>
    <path d="M 589.953584 224.05095 
L 589.953584 206.556127 
" clip-path="url(#p0190eb939a)" style="fill: none; stroke: #1f77b4; stroke-width: 1.5"/>
    <path d="M 597.276155 227.706022 
L 597.276155 209.671118 
" clip-path="url(#p0190eb939a)" style="fill: none; stroke: #1f77b4; stroke-width: 1.5"/>
    <path d="M 604.598726 228.694837 
L 604.598726 213.36836 
" clip-path="url(#p0190eb939a)" style="fill: none; stroke: #1f77b4; stroke-width: 1.5"/>
    <path d="M 611.921296 222.889073 
L 611.921296 205.916368 
" clip-path="url(#p0190eb939a)" style="fill: none; stroke: #1f77b4; stroke-width: 1.5"/>
    <path d="M 619.243867 226.050856 
L 619.243867 208.976267 
" clip-path="url(#p0190eb939a)" style="fill: none; stroke: #1f77b4; stroke-width: 1.5"/>
    <path d="M 626.566438 225.131262 
L 626.566438 203.958245 
" clip-path="url(#p0190eb939a)" style="fill: none; stroke: #1f77b4; stroke-width: 1.5"/>
    <path d="M 633.889008 226.35445 
L 633.889008 207.370659 
" clip-path="url(#p0190eb939a)" style="fill: none; stroke: #1f77b4; stroke-width: 1.5"/>
    <path d="M 641.211579 236.204872 
L 641.211579 209.030913 
" clip-path="url(#p0190eb939a)" style="fill: none; stroke: #1f77b4; stroke-width: 1.5"/>
    <path d="M 648.53415 223.70893 
L 648.53415 211.773848 
" clip-path="url(#p0190eb939a)" style="fill: none; stroke: #1f77b4; stroke-width: 1.5"/>
    <path d="M 655.85672 223.221534 
L 655.85672 216.286265 
" clip-path="url(#p0190eb939a)" style="fill: none; stroke: #1f77b4; stroke-width: 1.5"/>
    <path d="M 663.179291 217.858801 
L 663.179291 205.292233 
" clip-path="url(#p0190eb939a)" style="fill: none; stroke: #1f77b4; stroke-width: 1.5"/>
    <path d="M 670.501862 224.160728 
L 670.501862 213.382083 
" clip-path="url(#p0190eb939a)" style="fill: none; stroke: #1f77b4; stroke-width: 1.5"/>
    <path d="M 677.824432 223.850545 
L 677.824432 205.533212 
" clip-path="url(#p0190eb939a)" style="fill: none; stroke: #1f77b4; stroke-width: 1.5"/>
    <path d="M 685.147003 232.76014 
L 685.147003 212.011341 
" clip-path="url(#p0190eb939a)" style="fill: none; stroke: #1f77b4; stroke-width: 1.5"/>
    <path d="M 692.469574 226.033726 
L 692.469574 210.763109 
" clip-path="url(#p0190eb939a)" style="fill: none; stroke: #1f77b4; stroke-width: 1.5"/>
    <path d="M 699.792144 222.755692 
L 699.792144 206.236571 
" clip-path="url(#p0190eb939a)" style="fill: none; stroke: #1f77b4; stroke-width: 1.5"/>
    <path d="M 707.114715 225.536995 
L 707.114715 208.974302 
" clip-path="url(#p0190eb939a)" style="fill: none; stroke: #1f77b4; stroke-width: 1.5"/>
    <path d="M 714.437286 226.023705 
L 714.437286 215.020739 
" clip-path="url(#p0190eb939a)" style="fill: none; stroke: #1f77b4; stroke-width: 1.5"/>
    <path d="M 721.759856 222.858356 
L 721.759856 213.002109 
" clip-path="url(#p0190eb939a)" style="fill: none; stroke: #1f77b4; stroke-width: 1.5"/>
    <path d="M 729.082427 221.901235 
L 729.082427 204.064193 
" clip-path="url(#p0190eb939a)" style="fill: none; stroke: #1f77b4; stroke-width: 1.5"/>
    <path d="M 736.404998 229.611375 
L 736.404998 212.841984 
" clip-path="url(#p0190eb939a)" style="fill: none; stroke: #1f77b4; stroke-width: 1.5"/>
    <path d="M 743.727568 220.300217 
L 743.727568 206.096782 
" clip-path="url(#p0190eb939a)" style="fill: none; stroke: #1f77b4; stroke-width: 1.5"/>
    <path d="M 751.050139 233.664238 
L 751.050139 212.129396 
" clip-path="url(#p0190eb939a)" style="fill: none; stroke: #1f77b4; stroke-width: 1.5"/>
    <path d="M 758.37271 218.521232 
L 758.37271 206.787803 
" clip-path="url(#p0190eb939a)" style="fill: none; stroke: #1f77b4; stroke-width: 1.5"/>
    <path d="M 765.69528 230.025432 
L 765.69528 212.74962 
" clip-path="url(#p0190eb939a)" style="fill: none; stroke: #1f77b4; stroke-width: 1.5"/>
    <path d="M 773.017851 224.148413 
L 773.017851 212.996317 
" clip-path="url(#p0190eb939a)" style="fill: none; stroke: #1f77b4; stroke-width: 1.5"/>
    <path d="M 780.340422 216.885038 
L 780.340422 207.328808 
" clip-path="url(#p0190eb939a)" style="fill: none; stroke: #1f77b4; stroke-width: 1.5"/>
    <path d="M 787.662992 225.310381 
L 787.662992 207.971264 
" clip-path="url(#p0190eb939a)" style="fill: none; stroke: #1f77b4; stroke-width: 1.5"/>
    <path d="M 794.985563 226.47495 
L 794.985563 210.454335 
" clip-path="url(#p0190eb939a)" style="fill: none; stroke: #1f77b4; stroke-width: 1.5"/>
    <path d="M 802.308134 232.196185 
L 802.308134 209.920808 
" clip-path="url(#p0190eb939a)" style="fill: none; stroke: #1f77b4; stroke-width: 1.5"/>
    <path d="M 809.630705 222.510875 
L 809.630705 204.778097 
" clip-path="url(#p0190eb939a)" style="fill: none; stroke: #1f77b4; stroke-width: 1.5"/>
    <path d="M 816.953275 223.777781 
L 816.953275 209.587812 
" clip-path="url(#p0190eb939a)" style="fill: none; stroke: #1f77b4; stroke-width: 1.5"/>
   </g>
   <g id="LineCollection_2">
    <path d="M 92.018779 45.110372 
L 92.018779 44.761818 
" clip-path="url(#p0190eb939a)" style="fill: none; stroke: #ff7f0e; stroke-width: 1.5"/>
    <path d="M 99.341349 108.253956 
L 99.341349 107.305913 
" clip-path="url(#p0190eb939a)" style="fill: none; stroke: #ff7f0e; stroke-width: 1.5"/>
    <path d="M 106.66392 171.339973 
L 106.66392 169.373656 
" clip-path="url(#p0190eb939a)" style="fill: none; stroke: #ff7f0e; stroke-width: 1.5"/>
    <path d="M 113.986491 235.515449 
L 113.986491 230.772546 
" clip-path="url(#p0190eb939a)" style="fill: none; stroke: #ff7f0e; stroke-width: 1.5"/>
    <path d="M 121.309061 295.532021 
L 121.309061 290.09235 
" clip-path="url(#p0190eb939a)" style="fill: none; stroke: #ff7f0e; stroke-width: 1.5"/>
    <path d="M 128.631632 351.941043 
L 128.631632 340.997595 
" clip-path="url(#p0190eb939a)" style="fill: none; stroke: #ff7f0e; stroke-width: 1.5"/>
    <path d="M 135.954203 381.218571 
L 135.954203 367.078744 
" clip-path="url(#p0190eb939a)" style="fill: none; stroke: #ff7f0e; stroke-width: 1.5"/>
    <path d="M 143.276773 433 
L 143.276773 198.227667 
" clip-path="url(#p0190eb939a)" style="fill: none; stroke: #ff7f0e; stroke-width: 1.5"/>
    <path d="M 150.599344 433 
L 150.599344 259.849884 
" clip-path="url(#p0190eb939a)" style="fill: none; stroke: #ff7f0e; stroke-width: 1.5"/>
    <path d="M 157.921915 433 
L 157.921915 277.473363 
" clip-path="url(#p0190eb939a)" style="fill: none; stroke: #ff7f0e; stroke-width: 1.5"/>
    <path d="M 165.244485 398.442175 
L 165.244485 313.812945 
" clip-path="url(#p0190eb939a)" style="fill: none; stroke: #ff7f0e; stroke-width: 1.5"/>
    <path d="M 172.567056 433 
L 172.567056 301.479788 
" clip-path="url(#p0190eb939a)" style="fill: none; stroke: #ff7f0e; stroke-width: 1.5"/>
    <path d="M 179.889627 380.996482 
L 179.889627 321.415695 
" clip-path="url(#p0190eb939a)" style="fill: none; stroke: #ff7f0e; stroke-width: 1.5"/>
    <path d="M 187.212197 433 
L 187.212197 274.529111 
" clip-path="url(#p0190eb939a)" style="fill: none; stroke: #ff7f0e; stroke-width: 1.5"/>
    <path d="M 194.534768 433 
L 194.534768 291.581878 
" clip-path="url(#p0190eb939a)" style="fill: none; stroke: #ff7f0e; stroke-width: 1.5"/>
    <path d="M 201.857339 433 
L 201.857339 311.244779 
" clip-path="url(#p0190eb939a)" style="fill: none; stroke: #ff7f0e; stroke-width: 1.5"/>
    <path d="M 209.179909 433 
L 209.179909 247.731542 
" clip-path="url(#p0190eb939a)" style="fill: none; stroke: #ff7f0e; stroke-width: 1.5"/>
    <path d="M 216.50248 433 
L 216.50248 304.857031 
" clip-path="url(#p0190eb939a)" style="fill: none; stroke: #ff7f0e; stroke-width: 1.5"/>
    <path d="M 223.825051 396.74891 
L 223.825051 315.380124 
" clip-path="url(#p0190eb939a)" style="fill: none; stroke: #ff7f0e; stroke-width: 1.5"/>
    <path d="M 231.147621 433 
L 231.147621 248.336196 
" clip-path="url(#p0190eb939a)" style="fill: none; stroke: #ff7f0e; stroke-width: 1.5"/>
    <path d="M 238.470192 369.420326 
L 238.470192 295.91054 
" clip-path="url(#p0190eb939a)" style="fill: none; stroke: #ff7f0e; stroke-width: 1.5"/>
    <path d="M 245.792763 433 
L 245.792763 286.484863 
" clip-path="url(#p0190eb939a)" style="fill: none; stroke: #ff7f0e; stroke-width: 1.5"/>
    <path d="M 253.115333 433 
L 253.115333 226.782211 
" clip-path="url(#p0190eb939a)" style="fill: none; stroke: #ff7f0e; stroke-width: 1.5"/>
    <path d="M 260.437904 401.537944 
L 260.437904 284.381042 
" clip-path="url(#p0190eb939a)" style="fill: none; stroke: #ff7f0e; stroke-width: 1.5"/>
    <path d="M 267.760475 382.900981 
L 267.760475 329.643649 
" clip-path="url(#p0190eb939a)" style="fill: none; stroke: #ff7f0e; stroke-width: 1.5"/>
    <path d="M 275.083046 433 
L 275.083046 294.416378 
" clip-path="url(#p0190eb939a)" style="fill: none; stroke: #ff7f0e; stroke-width: 1.5"/>
    <path d="M 282.405616 433 
L 282.405616 235.424165 
" clip-path="url(#p0190eb939a)" style="fill: none; stroke: #ff7f0e; stroke-width: 1.5"/>
    <path d="M 289.728187 433 
L 289.728187 282.695518 
" clip-path="url(#p0190eb939a)" style="fill: none; stroke: #ff7f0e; stroke-width: 1.5"/>
    <path d="M 297.050758 433 
L 297.050758 248.542423 
" clip-path="url(#p0190eb939a)" style="fill: none; stroke: #ff7f0e; stroke-width: 1.5"/>
    <path d="M 304.373328 433 
L 304.373328 279.267077 
" clip-path="url(#p0190eb939a)" style="fill: none; stroke: #ff7f0e; stroke-width: 1.5"/>
    <path d="M 311.695899 433 
L 311.695899 276.596614 
" clip-path="url(#p0190eb939a)" style="fill: none; stroke: #ff7f0e; stroke-width: 1.5"/>
    <path d="M 319.01847 433 
L 319.01847 295.482375 
" clip-path="url(#p0190eb939a)" style="fill: none; stroke: #ff7f0e; stroke-width: 1.5"/>
    <path d="M 326.34104 433 
L 326.34104 301.197676 
" clip-path="url(#p0190eb939a)" style="fill: none; stroke: #ff7f0e; stroke-width: 1.5"/>
    <path d="M 333.663611 433 
L 333.663611 299.545447 
" clip-path="url(#p0190eb939a)" style="fill: none; stroke: #ff7f0e; stroke-width: 1.5"/>
    <path d="M 340.986182 377.738415 
L 340.986182 332.945731 
" clip-path="url(#p0190eb939a)" style="fill: none; stroke: #ff7f0e; stroke-width: 1.5"/>
    <path d="M 348.308752 433 
L 348.308752 291.657167 
" clip-path="url(#p0190eb939a)" style="fill: none; stroke: #ff7f0e; stroke-width: 1.5"/>
    <path d="M 355.631323 433 
L 355.631323 246.167855 
" clip-path="url(#p0190eb939a)" style="fill: none; stroke: #ff7f0e; stroke-width: 1.5"/>
    <path d="M 362.953894 433 
L 362.953894 262.005092 
" clip-path="url(#p0190eb939a)" style="fill: none; stroke: #ff7f0e; stroke-width: 1.5"/>
    <path d="M 370.276464 433 
L 370.276464 283.066236 
" clip-path="url(#p0190eb939a)" style="fill: none; stroke: #ff7f0e; stroke-width: 1.5"/>
    <path d="M 377.599035 433 
L 377.599035 271.895684 
" clip-path="url(#p0190eb939a)" style="fill: none; stroke: #ff7f0e; stroke-width: 1.5"/>
    <path d="M 384.921606 433 
L 384.921606 278.8454 
" clip-path="url(#p0190eb939a)" style="fill: none; stroke: #ff7f0e; stroke-width: 1.5"/>
    <path d="M 392.244176 433 
L 392.244176 185.477526 
" clip-path="url(#p0190eb939a)" style="fill: none; stroke: #ff7f0e; stroke-width: 1.5"/>
    <path d="M 399.566747 433 
L 399.566747 248.347333 
" clip-path="url(#p0190eb939a)" style="fill: none; stroke: #ff7f0e; stroke-width: 1.5"/>
    <path d="M 406.889318 427.256037 
L 406.889318 301.994167 
" clip-path="url(#p0190eb939a)" style="fill: none; stroke: #ff7f0e; stroke-width: 1.5"/>
    <path d="M 414.211888 390.590048 
L 414.211888 334.534708 
" clip-path="url(#p0190eb939a)" style="fill: none; stroke: #ff7f0e; stroke-width: 1.5"/>
    <path d="M 421.534459 433 
L 421.534459 188.959726 
" clip-path="url(#p0190eb939a)" style="fill: none; stroke: #ff7f0e; stroke-width: 1.5"/>
    <path d="M 428.85703 433 
L 428.85703 245.188176 
" clip-path="url(#p0190eb939a)" style="fill: none; stroke: #ff7f0e; stroke-width: 1.5"/>
    <path d="M 436.1796 426.875222 
L 436.1796 289.824754 
" clip-path="url(#p0190eb939a)" style="fill: none; stroke: #ff7f0e; stroke-width: 1.5"/>
    <path d="M 443.502171 380.772199 
L 443.502171 335.426721 
" clip-path="url(#p0190eb939a)" style="fill: none; stroke: #ff7f0e; stroke-width: 1.5"/>
    <path d="M 450.824742 386.826623 
L 450.824742 273.655732 
" clip-path="url(#p0190eb939a)" style="fill: none; stroke: #ff7f0e; stroke-width: 1.5"/>
    <path d="M 458.147312 368.042408 
L 458.147312 294.680384 
" clip-path="url(#p0190eb939a)" style="fill: none; stroke: #ff7f0e; stroke-width: 1.5"/>
    <path d="M 465.469883 373.495895 
L 465.469883 350.955662 
" clip-path="url(#p0190eb939a)" style="fill: none; stroke: #ff7f0e; stroke-width: 1.5"/>
    <path d="M 472.792454 433 
L 472.792454 237.755347 
" clip-path="url(#p0190eb939a)" style="fill: none; stroke: #ff7f0e; stroke-width: 1.5"/>
    <path d="M 480.115024 419.740376 
L 480.115024 276.385692 
" clip-path="url(#p0190eb939a)" style="fill: none; stroke: #ff7f0e; stroke-width: 1.5"/>
    <path d="M 487.437595 414.816371 
L 487.437595 313.94719 
" clip-path="url(#p0190eb939a)" style="fill: none; stroke: #ff7f0e; stroke-width: 1.5"/>
    <path d="M 494.760166 433 
L 494.760166 106.017948 
" clip-path="url(#p0190eb939a)" style="fill: none; stroke: #ff7f0e; stroke-width: 1.5"/>
    <path d="M 502.082736 433 
L 502.082736 168.304817 
" clip-path="url(#p0190eb939a)" style="fill: none; stroke: #ff7f0e; stroke-width: 1.5"/>
    <path d="M 509.405307 433 
L 509.405307 186.869813 
" clip-path="url(#p0190eb939a)" style="fill: none; stroke: #ff7f0e; stroke-width: 1.5"/>
    <path d="M 516.727878 433 
L 516.727878 243.732351 
" clip-path="url(#p0190eb939a)" style="fill: none; stroke: #ff7f0e; stroke-width: 1.5"/>
    <path d="M 524.050448 418.624197 
L 524.050448 272.425333 
" clip-path="url(#p0190eb939a)" style="fill: none; stroke: #ff7f0e; stroke-width: 1.5"/>
    <path d="M 531.373019 433 
L 531.373019 276.201939 
" clip-path="url(#p0190eb939a)" style="fill: none; stroke: #ff7f0e; stroke-width: 1.5"/>
    <path d="M 538.69559 400.403919 
L 538.69559 320.553211 
" clip-path="url(#p0190eb939a)" style="fill: none; stroke: #ff7f0e; stroke-width: 1.5"/>
    <path d="M 546.01816 395.734825 
L 546.01816 318.194059 
" clip-path="url(#p0190eb939a)" style="fill: none; stroke: #ff7f0e; stroke-width: 1.5"/>
    <path d="M 553.340731 433 
L 553.340731 241.151238 
" clip-path="url(#p0190eb939a)" style="fill: none; stroke: #ff7f0e; stroke-width: 1.5"/>
    <path d="M 560.663302 433 
L 560.663302 290.075407 
" clip-path="url(#p0190eb939a)" style="fill: none; stroke: #ff7f0e; stroke-width: 1.5"/>
    <path d="M 567.985872 433 
L 567.985872 272.74643 
" clip-path="url(#p0190eb939a)" style="fill: none; stroke: #ff7f0e; stroke-width: 1.5"/>
    <path d="M 575.308443 429.719023 
L 575.308443 324.581108 
" clip-path="url(#p0190eb939a)" style="fill: none; stroke: #ff7f0e; stroke-width: 1.5"/>
    <path d="M 582.631014 374.474223 
L 582.631014 297.745653 
" clip-path="url(#p0190eb939a)" style="fill: none; stroke: #ff7f0e; stroke-width: 1.5"/>
    <path d="M 589.953584 433 
L 589.953584 296.652806 
" clip-path="url(#p0190eb939a)" style="fill: none; stroke: #ff7f0e; stroke-width: 1.5"/>
    <path d="M 597.276155 376.893329 
L 597.276155 325.495536 
" clip-path="url(#p0190eb939a)" style="fill: none; stroke: #ff7f0e; stroke-width: 1.5"/>
    <path d="M 604.598726 433 
L 604.598726 156.872493 
" clip-path="url(#p0190eb939a)" style="fill: none; stroke: #ff7f0e; stroke-width: 1.5"/>
    <path d="M 611.921296 433 
L 611.921296 223.776293 
" clip-path="url(#p0190eb939a)" style="fill: none; stroke: #ff7f0e; stroke-width: 1.5"/>
    <path d="M 619.243867 433 
L 619.243867 262.947763 
" clip-path="url(#p0190eb939a)" style="fill: none; stroke: #ff7f0e; stroke-width: 1.5"/>
    <path d="M 626.566438 406.855244 
L 626.566438 311.608021 
" clip-path="url(#p0190eb939a)" style="fill: none; stroke: #ff7f0e; stroke-width: 1.5"/>
    <path d="M 633.889008 433 
L 633.889008 291.952909 
" clip-path="url(#p0190eb939a)" style="fill: none; stroke: #ff7f0e; stroke-width: 1.5"/>
    <path d="M 641.211579 380.76742 
L 641.211579 320.628477 
" clip-path="url(#p0190eb939a)" style="fill: none; stroke: #ff7f0e; stroke-width: 1.5"/>
    <path d="M 648.53415 407.124683 
L 648.53415 295.840842 
" clip-path="url(#p0190eb939a)" style="fill: none; stroke: #ff7f0e; stroke-width: 1.5"/>
    <path d="M 655.85672 379.416216 
L 655.85672 318.955159 
" clip-path="url(#p0190eb939a)" style="fill: none; stroke: #ff7f0e; stroke-width: 1.5"/>
    <path d="M 663.179291 418.684899 
L 663.179291 317.33223 
" clip-path="url(#p0190eb939a)" style="fill: none; stroke: #ff7f0e; stroke-width: 1.5"/>
    <path d="M 670.501862 433 
L 670.501862 264.621004 
" clip-path="url(#p0190eb939a)" style="fill: none; stroke: #ff7f0e; stroke-width: 1.5"/>
    <path d="M 677.824432 387.400292 
L 677.824432 309.135773 
" clip-path="url(#p0190eb939a)" style="fill: none; stroke: #ff7f0e; stroke-width: 1.5"/>
    <path d="M 685.147003 433 
L 685.147003 285.162781 
" clip-path="url(#p0190eb939a)" style="fill: none; stroke: #ff7f0e; stroke-width: 1.5"/>
    <path d="M 692.469574 433 
L 692.469574 263.87433 
" clip-path="url(#p0190eb939a)" style="fill: none; stroke: #ff7f0e; stroke-width: 1.5"/>
    <path d="M 699.792144 400.868546 
L 699.792144 266.992483 
" clip-path="url(#p0190eb939a)" style="fill: none; stroke: #ff7f0e; stroke-width: 1.5"/>
    <path d="M 707.114715 390.730392 
L 707.114715 322.072086 
" clip-path="url(#p0190eb939a)" style="fill: none; stroke: #ff7f0e; stroke-width: 1.5"/>
    <path d="M 714.437286 433 
L 714.437286 306.405576 
" clip-path="url(#p0190eb939a)" style="fill: none; stroke: #ff7f0e; stroke-width: 1.5"/>
    <path d="M 721.759856 372.778534 
L 721.759856 317.974781 
" clip-path="url(#p0190eb939a)" style="fill: none; stroke: #ff7f0e; stroke-width: 1.5"/>
    <path d="M 729.082427 373.353464 
L 729.082427 333.356082 
" clip-path="url(#p0190eb939a)" style="fill: none; stroke: #ff7f0e; stroke-width: 1.5"/>
    <path d="M 736.404998 380.760379 
L 736.404998 337.456575 
" clip-path="url(#p0190eb939a)" style="fill: none; stroke: #ff7f0e; stroke-width: 1.5"/>
    <path d="M 743.727568 391.612782 
L 743.727568 310.102144 
" clip-path="url(#p0190eb939a)" style="fill: none; stroke: #ff7f0e; stroke-width: 1.5"/>
    <path d="M 751.050139 433 
L 751.050139 217.346776 
" clip-path="url(#p0190eb939a)" style="fill: none; stroke: #ff7f0e; stroke-width: 1.5"/>
    <path d="M 758.37271 433 
L 758.37271 274.569313 
" clip-path="url(#p0190eb939a)" style="fill: none; stroke: #ff7f0e; stroke-width: 1.5"/>
    <path d="M 765.69528 433 
L 765.69528 199.059968 
" clip-path="url(#p0190eb939a)" style="fill: none; stroke: #ff7f0e; stroke-width: 1.5"/>
    <path d="M 773.017851 433 
L 773.017851 256.438855 
" clip-path="url(#p0190eb939a)" style="fill: none; stroke: #ff7f0e; stroke-width: 1.5"/>
    <path d="M 780.340422 433 
L 780.340422 299.636135 
" clip-path="url(#p0190eb939a)" style="fill: none; stroke: #ff7f0e; stroke-width: 1.5"/>
    <path d="M 787.662992 433 
L 787.662992 280.884406 
" clip-path="url(#p0190eb939a)" style="fill: none; stroke: #ff7f0e; stroke-width: 1.5"/>
    <path d="M 794.985563 407.367964 
L 794.985563 317.797308 
" clip-path="url(#p0190eb939a)" style="fill: none; stroke: #ff7f0e; stroke-width: 1.5"/>
    <path d="M 802.308134 433 
L 802.308134 251.26732 
" clip-path="url(#p0190eb939a)" style="fill: none; stroke: #ff7f0e; stroke-width: 1.5"/>
    <path d="M 809.630705 433 
L 809.630705 302.105784 
" clip-path="url(#p0190eb939a)" style="fill: none; stroke: #ff7f0e; stroke-width: 1.5"/>
    <path d="M 816.953275 381.921137 
L 816.953275 338.802423 
" clip-path="url(#p0190eb939a)" style="fill: none; stroke: #ff7f0e; stroke-width: 1.5"/>
   </g>
   <g id="line2d_38">
    <path d="M 92.018779 45.105678 
L 99.341349 45.437634 
L 106.66392 45.623714 
L 113.986491 46.132509 
L 121.309061 46.496826 
L 128.631632 46.850827 
L 135.954203 47.274233 
L 143.276773 47.58572 
L 150.599344 48.097525 
L 157.921915 48.554789 
L 165.244485 49.829488 
L 172.567056 50.447484 
L 179.889627 53.321569 
L 187.212197 56.956593 
L 194.534768 63.538983 
L 201.857339 75.372246 
L 209.179909 87.098129 
L 216.50248 98.259413 
L 223.825051 111.774012 
L 231.147621 125.153378 
L 238.470192 138.726662 
L 245.792763 144.622898 
L 253.115333 151.33563 
L 260.437904 163.679996 
L 267.760475 173.462874 
L 275.083046 183.029022 
L 282.405616 184.869353 
L 289.728187 194.888092 
L 297.050758 195.501508 
L 304.373328 200.910499 
L 311.695899 215.824378 
L 319.01847 204.089872 
L 326.34104 210.881984 
L 333.663611 209.243758 
L 340.986182 213.331753 
L 348.308752 214.967075 
L 355.631323 209.349388 
L 362.953894 218.384499 
L 370.276464 215.49273 
L 377.599035 217.820122 
L 384.921606 220.588323 
L 392.244176 218.719466 
L 399.566747 214.045739 
L 406.889318 211.499429 
L 414.211888 221.930672 
L 421.534459 216.269748 
L 428.85703 210.851 
L 436.1796 217.2973 
L 443.502171 221.493307 
L 450.824742 213.427804 
L 458.147312 218.50887 
L 465.469883 213.000531 
L 472.792454 213.214652 
L 480.115024 215.796512 
L 487.437595 223.970539 
L 494.760166 213.679063 
L 502.082736 218.371467 
L 509.405307 215.076413 
L 516.727878 211.294771 
L 524.050448 221.964381 
L 531.373019 216.097548 
L 538.69559 213.872051 
L 546.01816 212.741662 
L 553.340731 224.218348 
L 560.663302 212.688523 
L 567.985872 220.006025 
L 575.308443 213.965664 
L 582.631014 219.941654 
L 589.953584 214.462647 
L 597.276155 217.795303 
L 604.598726 220.385308 
L 611.921296 213.610985 
L 619.243867 216.712348 
L 626.566438 213.316612 
L 633.889008 215.873516 
L 641.211579 220.606543 
L 648.53415 217.348739 
L 655.85672 219.621065 
L 663.179291 211.140354 
L 670.501862 218.450989 
L 677.824432 213.770605 
L 685.147003 221.2059 
L 692.469574 217.756807 
L 699.792144 213.745918 
L 707.114715 216.501494 
L 714.437286 220.188364 
L 721.759856 217.662207 
L 729.082427 212.108816 
L 736.404998 220.453692 
L 743.727568 212.643081 
L 751.050139 221.626733 
L 758.37271 212.274987 
L 765.69528 220.56743 
L 773.017851 218.229418 
L 780.340422 211.854936 
L 787.662992 215.814742 
L 794.985563 217.758795 
L 802.308134 219.700439 
L 809.630705 212.78071 
L 816.953275 216.128426 
" clip-path="url(#p0190eb939a)" style="fill: none; stroke: #1f77b4; stroke-width: 1.5; stroke-linecap: square"/>
   </g>
   <g id="line2d_39">
    <path d="M 92.018779 44.935759 
L 99.341349 107.77745 
L 106.66392 170.346127 
L 113.986491 233.081839 
L 121.309061 292.730435 
L 128.631632 346.139054 
L 135.954203 373.598182 
L 143.276773 239.912219 
L 150.599344 299.14991 
L 157.921915 309.723548 
L 165.244485 338.683217 
L 172.567056 335.315433 
L 179.889627 342.029861 
L 187.212197 313.425073 
L 194.534768 321.468616 
L 201.857339 341.623118 
L 209.179909 292.313872 
L 216.50248 334.284384 
L 223.825051 339.801782 
L 231.147621 295.888503 
L 238.470192 319.130271 
L 245.792763 321.355219 
L 253.115333 266.479175 
L 260.437904 312.455096 
L 267.760475 348.846621 
L 275.083046 326.803915 
L 282.405616 286.517518 
L 289.728187 315.965239 
L 297.050758 283.274392 
L 304.373328 314.01467 
L 311.695899 311.273743 
L 319.01847 329.515057 
L 326.34104 335.966363 
L 333.663611 330.892994 
L 340.986182 350.008469 
L 348.308752 326.277038 
L 355.631323 283.522174 
L 362.953894 302.040566 
L 370.276464 320.383626 
L 377.599035 314.455187 
L 384.921606 310.260152 
L 392.244176 237.195528 
L 399.566747 295.151267 
L 406.889318 330.588526 
L 414.211888 354.381039 
L 421.534459 243.260566 
L 428.85703 285.342554 
L 436.1796 319.03505 
L 443.502171 352.638484 
L 450.824742 301.440197 
L 458.147312 317.875787 
L 465.469883 360.835564 
L 472.792454 287.508984 
L 480.115024 305.86776 
L 487.437595 340.674473 
L 494.760166 167.52406 
L 502.082736 227.482035 
L 509.405307 237.286786 
L 516.727878 287.112245 
L 524.050448 302.018614 
L 531.373019 319.153048 
L 538.69559 344.756313 
L 546.01816 342.052356 
L 553.340731 288.336312 
L 560.663302 324.681273 
L 567.985872 309.396233 
L 575.308443 351.705328 
L 582.631014 321.479117 
L 589.953584 333.329413 
L 597.276155 344.253758 
L 604.598726 215.971674 
L 611.921296 277.52062 
L 619.243867 296.207932 
L 626.566438 337.758208 
L 633.889008 326.935054 
L 641.211579 341.359956 
L 648.53415 323.47975 
L 655.85672 339.753821 
L 663.179291 344.106195 
L 670.501862 303.166722 
L 677.824432 333.10372 
L 685.147003 321.968353 
L 692.469574 301.824231 
L 699.792144 296.05161 
L 707.114715 344.45753 
L 714.437286 339.245067 
L 721.759856 337.537116 
L 729.082427 349.069291 
L 736.404998 354.111276 
L 743.727568 334.543905 
L 751.050139 274.451508 
L 758.37271 316.485959 
L 765.69528 251.955978 
L 773.017851 304.120658 
L 780.340422 330.479913 
L 787.662992 313.913952 
L 794.985563 343.29615 
L 802.308134 293.619364 
L 809.630705 331.459016 
L 816.953275 355.405716 
" clip-path="url(#p0190eb939a)" style="fill: none; stroke: #ff7f0e; stroke-width: 1.5; stroke-linecap: square"/>
   </g>
   <g id="patch_3">
    <path d="M 55.772054 390.04 
L 55.772054 28.32 
" style="fill: none; stroke: #000000; stroke-width: 0.8; stroke-linejoin: miter; stroke-linecap: square"/>
   </g>
   <g id="patch_4">
    <path d="M 853.2 390.04 
L 853.2 28.32 
" style="fill: none; stroke: #000000; stroke-width: 0.8; stroke-linejoin: miter; stroke-linecap: square"/>
   </g>
   <g id="patch_5">
    <path d="M 55.772054 390.04 
L 853.2 390.04 
" style="fill: none; stroke: #000000; stroke-width: 0.8; stroke-linejoin: miter; stroke-linecap: square"/>
   </g>
   <g id="patch_6">
    <path d="M 55.772054 28.32 
L 853.2 28.32 
" style="fill: none; stroke: #000000; stroke-width: 0.8; stroke-linejoin: miter; stroke-linecap: square"/>
   </g>
   <g id="text_13">
    <!-- Minibatch SGD Constant ($\alpha=2.0e-03$) vs Polyak Step Size with $N=25$, 10 runs each) -->
    <g transform="translate(193.966027 22.32) scale(0.12 -0.12)">
     <defs>
      <path id="DejaVuSans-4d" d="M 628 4666 
L 1569 4666 
L 2759 1491 
L 3956 4666 
L 4897 4666 
L 4897 0 
L 4281 0 
L 4281 4097 
L 3078 897 
L 2444 897 
L 1241 4097 
L 1241 0 
L 628 0 
L 628 4666 
z
" transform="scale(0.015625)"/>
      <path id="DejaVuSans-62" d="M 3116 1747 
Q 3116 2381 2855 2742 
Q 2594 3103 2138 3103 
Q 1681 3103 1420 2742 
Q 1159 2381 1159 1747 
Q 1159 1113 1420 752 
Q 1681 391 2138 391 
Q 2594 391 2855 752 
Q 3116 1113 3116 1747 
z
M 1159 2969 
Q 1341 3281 1617 3432 
Q 1894 3584 2278 3584 
Q 2916 3584 3314 3078 
Q 3713 2572 3713 1747 
Q 3713 922 3314 415 
Q 2916 -91 2278 -91 
Q 1894 -91 1617 61 
Q 1341 213 1159 525 
L 1159 0 
L 581 0 
L 581 4863 
L 1159 4863 
L 1159 2969 
z
" transform="scale(0.015625)"/>
      <path id="DejaVuSans-68" d="M 3513 2113 
L 3513 0 
L 2938 0 
L 2938 2094 
Q 2938 2591 2744 2837 
Q 2550 3084 2163 3084 
Q 1697 3084 1428 2787 
Q 1159 2491 1159 1978 
L 1159 0 
L 581 0 
L 581 4863 
L 1159 4863 
L 1159 2956 
Q 1366 3272 1645 3428 
Q 1925 3584 2291 3584 
Q 2894 3584 3203 3211 
Q 3513 2838 3513 2113 
z
" transform="scale(0.015625)"/>
      <path id="DejaVuSans-53" d="M 3425 4513 
L 3425 3897 
Q 3066 4069 2747 4153 
Q 2428 4238 2131 4238 
Q 1616 4238 1336 4038 
Q 1056 3838 1056 3469 
Q 1056 3159 1242 3001 
Q 1428 2844 1947 2747 
L 2328 2669 
Q 3034 2534 3370 2195 
Q 3706 1856 3706 1288 
Q 3706 609 3251 259 
Q 2797 -91 1919 -91 
Q 1588 -91 1214 -16 
Q 841 59 441 206 
L 441 856 
Q 825 641 1194 531 
Q 1563 422 1919 422 
Q 2459 422 2753 634 
Q 3047 847 3047 1241 
Q 3047 1584 2836 1778 
Q 2625 1972 2144 2069 
L 1759 2144 
Q 1053 2284 737 2584 
Q 422 2884 422 3419 
Q 422 4038 858 4394 
Q 1294 4750 2059 4750 
Q 2388 4750 2728 4690 
Q 3069 4631 3425 4513 
z
" transform="scale(0.015625)"/>
      <path id="DejaVuSans-47" d="M 3809 666 
L 3809 1919 
L 2778 1919 
L 2778 2438 
L 4434 2438 
L 4434 434 
Q 4069 175 3628 42 
Q 3188 -91 2688 -91 
Q 1594 -91 976 548 
Q 359 1188 359 2328 
Q 359 3472 976 4111 
Q 1594 4750 2688 4750 
Q 3144 4750 3555 4637 
Q 3966 4525 4313 4306 
L 4313 3634 
Q 3963 3931 3569 4081 
Q 3175 4231 2741 4231 
Q 1884 4231 1454 3753 
Q 1025 3275 1025 2328 
Q 1025 1384 1454 906 
Q 1884 428 2741 428 
Q 3075 428 3337 486 
Q 3600 544 3809 666 
z
" transform="scale(0.015625)"/>
      <path id="DejaVuSans-44" d="M 1259 4147 
L 1259 519 
L 2022 519 
Q 2988 519 3436 956 
Q 3884 1394 3884 2338 
Q 3884 3275 3436 3711 
Q 2988 4147 2022 4147 
L 1259 4147 
z
M 628 4666 
L 1925 4666 
Q 3281 4666 3915 4102 
Q 4550 3538 4550 2338 
Q 4550 1131 3912 565 
Q 3275 0 1925 0 
L 628 0 
L 628 4666 
z
" transform="scale(0.015625)"/>
      <path id="DejaVuSans-43" d="M 4122 4306 
L 4122 3641 
Q 3803 3938 3442 4084 
Q 3081 4231 2675 4231 
Q 1875 4231 1450 3742 
Q 1025 3253 1025 2328 
Q 1025 1406 1450 917 
Q 1875 428 2675 428 
Q 3081 428 3442 575 
Q 3803 722 4122 1019 
L 4122 359 
Q 3791 134 3420 21 
Q 3050 -91 2638 -91 
Q 1578 -91 968 557 
Q 359 1206 359 2328 
Q 359 3453 968 4101 
Q 1578 4750 2638 4750 
Q 3056 4750 3426 4639 
Q 3797 4528 4122 4306 
z
" transform="scale(0.015625)"/>
      <path id="DejaVuSans-28" d="M 1984 4856 
Q 1566 4138 1362 3434 
Q 1159 2731 1159 2009 
Q 1159 1288 1364 580 
Q 1569 -128 1984 -844 
L 1484 -844 
Q 1016 -109 783 600 
Q 550 1309 550 2009 
Q 550 2706 781 3412 
Q 1013 4119 1484 4856 
L 1984 4856 
z
" transform="scale(0.015625)"/>
      <path id="DejaVuSans-Oblique-3b1" d="M 2619 1628 
L 2622 2350 
Q 2625 3088 2069 3091 
Q 1653 3094 1394 2747 
Q 1069 2319 959 1747 
Q 825 1059 994 731 
Q 1169 397 1547 397 
Q 1966 397 2319 1063 
L 2619 1628 
z
M 2166 3578 
Q 3141 3594 3128 2584 
Q 3128 2584 3616 3500 
L 4128 3500 
L 3119 1603 
L 3109 919 
Q 3109 766 3194 638 
Q 3291 488 3391 488 
L 3669 488 
L 3575 0 
L 3228 0 
Q 2934 0 2722 263 
Q 2622 394 2619 669 
Q 2416 334 2066 50 
Q 1900 -81 1453 -78 
Q 722 -72 456 397 
Q 184 884 353 1747 
Q 534 2675 1009 3097 
Q 1544 3569 2166 3578 
z
" transform="scale(0.015625)"/>
      <path id="DejaVuSans-3d" d="M 678 2906 
L 4684 2906 
L 4684 2381 
L 678 2381 
L 678 2906 
z
M 678 1631 
L 4684 1631 
L 4684 1100 
L 678 1100 
L 678 1631 
z
" transform="scale(0.015625)"/>
      <path id="DejaVuSans-Oblique-65" d="M 3078 2063 
Q 3088 2113 3092 2166 
Q 3097 2219 3097 2272 
Q 3097 2653 2873 2875 
Q 2650 3097 2266 3097 
Q 1838 3097 1509 2826 
Q 1181 2556 1013 2059 
L 3078 2063 
z
M 3578 1613 
L 903 1613 
Q 884 1494 878 1425 
Q 872 1356 872 1306 
Q 872 872 1139 634 
Q 1406 397 1894 397 
Q 2269 397 2603 481 
Q 2938 566 3225 728 
L 3116 159 
Q 2806 34 2476 -28 
Q 2147 -91 1806 -91 
Q 1078 -91 686 257 
Q 294 606 294 1247 
Q 294 1794 489 2264 
Q 684 2734 1063 3103 
Q 1306 3334 1642 3459 
Q 1978 3584 2356 3584 
Q 2950 3584 3301 3228 
Q 3653 2872 3653 2272 
Q 3653 2128 3634 1964 
Q 3616 1800 3578 1613 
z
" transform="scale(0.015625)"/>
      <path id="DejaVuSans-33" d="M 2597 2516 
Q 3050 2419 3304 2112 
Q 3559 1806 3559 1356 
Q 3559 666 3084 287 
Q 2609 -91 1734 -91 
Q 1441 -91 1130 -33 
Q 819 25 488 141 
L 488 750 
Q 750 597 1062 519 
Q 1375 441 1716 441 
Q 2309 441 2620 675 
Q 2931 909 2931 1356 
Q 2931 1769 2642 2001 
Q 2353 2234 1838 2234 
L 1294 2234 
L 1294 2753 
L 1863 2753 
Q 2328 2753 2575 2939 
Q 2822 3125 2822 3475 
Q 2822 3834 2567 4026 
Q 2313 4219 1838 4219 
Q 1578 4219 1281 4162 
Q 984 4106 628 3988 
L 628 4550 
Q 988 4650 1302 4700 
Q 1616 4750 1894 4750 
Q 2613 4750 3031 4423 
Q 3450 4097 3450 3541 
Q 3450 3153 3228 2886 
Q 3006 2619 2597 2516 
z
" transform="scale(0.015625)"/>
      <path id="DejaVuSans-29" d="M 513 4856 
L 1013 4856 
Q 1481 4119 1714 3412 
Q 1947 2706 1947 2009 
Q 1947 1309 1714 600 
Q 1481 -109 1013 -844 
L 513 -844 
Q 928 -128 1133 580 
Q 1338 1288 1338 2009 
Q 1338 2731 1133 3434 
Q 928 4138 513 4856 
z
" transform="scale(0.015625)"/>
      <path id="DejaVuSans-76" d="M 191 3500 
L 800 3500 
L 1894 563 
L 2988 3500 
L 3597 3500 
L 2284 0 
L 1503 0 
L 191 3500 
z
" transform="scale(0.015625)"/>
      <path id="DejaVuSans-50" d="M 1259 4147 
L 1259 2394 
L 2053 2394 
Q 2494 2394 2734 2622 
Q 2975 2850 2975 3272 
Q 2975 3691 2734 3919 
Q 2494 4147 2053 4147 
L 1259 4147 
z
M 628 4666 
L 2053 4666 
Q 2838 4666 3239 4311 
Q 3641 3956 3641 3272 
Q 3641 2581 3239 2228 
Q 2838 1875 2053 1875 
L 1259 1875 
L 1259 0 
L 628 0 
L 628 4666 
z
" transform="scale(0.015625)"/>
      <path id="DejaVuSans-79" d="M 2059 -325 
Q 1816 -950 1584 -1140 
Q 1353 -1331 966 -1331 
L 506 -1331 
L 506 -850 
L 844 -850 
Q 1081 -850 1212 -737 
Q 1344 -625 1503 -206 
L 1606 56 
L 191 3500 
L 800 3500 
L 1894 763 
L 2988 3500 
L 3597 3500 
L 2059 -325 
z
" transform="scale(0.015625)"/>
      <path id="DejaVuSans-6b" d="M 581 4863 
L 1159 4863 
L 1159 1991 
L 2875 3500 
L 3609 3500 
L 1753 1863 
L 3688 0 
L 2938 0 
L 1159 1709 
L 1159 0 
L 581 0 
L 581 4863 
z
" transform="scale(0.015625)"/>
      <path id="DejaVuSans-70" d="M 1159 525 
L 1159 -1331 
L 581 -1331 
L 581 3500 
L 1159 3500 
L 1159 2969 
Q 1341 3281 1617 3432 
Q 1894 3584 2278 3584 
Q 2916 3584 3314 3078 
Q 3713 2572 3713 1747 
Q 3713 922 3314 415 
Q 2916 -91 2278 -91 
Q 1894 -91 1617 61 
Q 1341 213 1159 525 
z
M 3116 1747 
Q 3116 2381 2855 2742 
Q 2594 3103 2138 3103 
Q 1681 3103 1420 2742 
Q 1159 2381 1159 1747 
Q 1159 1113 1420 752 
Q 1681 391 2138 391 
Q 2594 391 2855 752 
Q 3116 1113 3116 1747 
z
" transform="scale(0.015625)"/>
      <path id="DejaVuSans-7a" d="M 353 3500 
L 3084 3500 
L 3084 2975 
L 922 459 
L 3084 459 
L 3084 0 
L 275 0 
L 275 525 
L 2438 3041 
L 353 3041 
L 353 3500 
z
" transform="scale(0.015625)"/>
      <path id="DejaVuSans-77" d="M 269 3500 
L 844 3500 
L 1563 769 
L 2278 3500 
L 2956 3500 
L 3675 769 
L 4391 3500 
L 4966 3500 
L 4050 0 
L 3372 0 
L 2619 2869 
L 1863 0 
L 1184 0 
L 269 3500 
z
" transform="scale(0.015625)"/>
      <path id="DejaVuSans-Oblique-4e" d="M 1081 4666 
L 1931 4666 
L 3219 666 
L 4000 4666 
L 4616 4666 
L 3706 0 
L 2853 0 
L 1569 4025 
L 788 0 
L 172 0 
L 1081 4666 
z
" transform="scale(0.015625)"/>
      <path id="DejaVuSans-35" d="M 691 4666 
L 3169 4666 
L 3169 4134 
L 1269 4134 
L 1269 2991 
Q 1406 3038 1543 3061 
Q 1681 3084 1819 3084 
Q 2600 3084 3056 2656 
Q 3513 2228 3513 1497 
Q 3513 744 3044 326 
Q 2575 -91 1722 -91 
Q 1428 -91 1123 -41 
Q 819 9 494 109 
L 494 744 
Q 775 591 1075 516 
Q 1375 441 1709 441 
Q 2250 441 2565 725 
Q 2881 1009 2881 1497 
Q 2881 1984 2565 2268 
Q 2250 2553 1709 2553 
Q 1456 2553 1204 2497 
Q 953 2441 691 2322 
L 691 4666 
z
" transform="scale(0.015625)"/>
      <path id="DejaVuSans-2c" d="M 750 794 
L 1409 794 
L 1409 256 
L 897 -744 
L 494 -744 
L 750 256 
L 750 794 
z
" transform="scale(0.015625)"/>
     </defs>
     <use xlink:href="#DejaVuSans-4d" transform="translate(0 0.015625)"/>
     <use xlink:href="#DejaVuSans-69" transform="translate(86.279297 0.015625)"/>
     <use xlink:href="#DejaVuSans-6e" transform="translate(114.0625 0.015625)"/>
     <use xlink:href="#DejaVuSans-69" transform="translate(177.441406 0.015625)"/>
     <use xlink:href="#DejaVuSans-62" transform="translate(205.224609 0.015625)"/>
     <use xlink:href="#DejaVuSans-61" transform="translate(268.701172 0.015625)"/>
     <use xlink:href="#DejaVuSans-74" transform="translate(329.980469 0.015625)"/>
     <use xlink:href="#DejaVuSans-63" transform="translate(369.189453 0.015625)"/>
     <use xlink:href="#DejaVuSans-68" transform="translate(424.169922 0.015625)"/>
     <use xlink:href="#DejaVuSans-20" transform="translate(487.548828 0.015625)"/>
     <use xlink:href="#DejaVuSans-53" transform="translate(519.335938 0.015625)"/>
     <use xlink:href="#DejaVuSans-47" transform="translate(582.8125 0.015625)"/>
     <use xlink:href="#DejaVuSans-44" transform="translate(660.302734 0.015625)"/>
     <use xlink:href="#DejaVuSans-20" transform="translate(737.304688 0.015625)"/>
     <use xlink:href="#DejaVuSans-43" transform="translate(769.091797 0.015625)"/>
     <use xlink:href="#DejaVuSans-6f" transform="translate(838.916016 0.015625)"/>
     <use xlink:href="#DejaVuSans-6e" transform="translate(900.097656 0.015625)"/>
     <use xlink:href="#DejaVuSans-73" transform="translate(963.476562 0.015625)"/>
     <use xlink:href="#DejaVuSans-74" transform="translate(1015.576172 0.015625)"/>
     <use xlink:href="#DejaVuSans-61" transform="translate(1054.785156 0.015625)"/>
     <use xlink:href="#DejaVuSans-6e" transform="translate(1116.064453 0.015625)"/>
     <use xlink:href="#DejaVuSans-74" transform="translate(1179.443359 0.015625)"/>
     <use xlink:href="#DejaVuSans-20" transform="translate(1218.652344 0.015625)"/>
     <use xlink:href="#DejaVuSans-28" transform="translate(1250.439453 0.015625)"/>
     <use xlink:href="#DejaVuSans-Oblique-3b1" transform="translate(1289.453125 0.015625)"/>
     <use xlink:href="#DejaVuSans-3d" transform="translate(1374.853516 0.015625)"/>
     <use xlink:href="#DejaVuSans-32" transform="translate(1478.125 0.015625)"/>
     <use xlink:href="#DejaVuSans-2e" transform="translate(1541.748047 0.015625)"/>
     <use xlink:href="#DejaVuSans-30" transform="translate(1573.535156 0.015625)"/>
     <use xlink:href="#DejaVuSans-Oblique-65" transform="translate(1637.158203 0.015625)"/>
     <use xlink:href="#DejaVuSans-2212" transform="translate(1718.164062 0.015625)"/>
     <use xlink:href="#DejaVuSans-30" transform="translate(1821.435547 0.015625)"/>
     <use xlink:href="#DejaVuSans-33" transform="translate(1885.058594 0.015625)"/>
     <use xlink:href="#DejaVuSans-29" transform="translate(1948.681641 0.015625)"/>
     <use xlink:href="#DejaVuSans-20" transform="translate(1987.695312 0.015625)"/>
     <use xlink:href="#DejaVuSans-76" transform="translate(2019.482422 0.015625)"/>
     <use xlink:href="#DejaVuSans-73" transform="translate(2078.662109 0.015625)"/>
     <use xlink:href="#DejaVuSans-20" transform="translate(2130.761719 0.015625)"/>
     <use xlink:href="#DejaVuSans-50" transform="translate(2162.548828 0.015625)"/>
     <use xlink:href="#DejaVuSans-6f" transform="translate(2222.851562 0.015625)"/>
     <use xlink:href="#DejaVuSans-6c" transform="translate(2284.033203 0.015625)"/>
     <use xlink:href="#DejaVuSans-79" transform="translate(2311.816406 0.015625)"/>
     <use xlink:href="#DejaVuSans-61" transform="translate(2370.996094 0.015625)"/>
     <use xlink:href="#DejaVuSans-6b" transform="translate(2432.275391 0.015625)"/>
     <use xlink:href="#DejaVuSans-20" transform="translate(2490.185547 0.015625)"/>
     <use xlink:href="#DejaVuSans-53" transform="translate(2521.972656 0.015625)"/>
     <use xlink:href="#DejaVuSans-74" transform="translate(2585.449219 0.015625)"/>
     <use xlink:href="#DejaVuSans-65" transform="translate(2624.658203 0.015625)"/>
     <use xlink:href="#DejaVuSans-70" transform="translate(2686.181641 0.015625)"/>
     <use xlink:href="#DejaVuSans-20" transform="translate(2749.658203 0.015625)"/>
     <use xlink:href="#DejaVuSans-53" transform="translate(2781.445312 0.015625)"/>
     <use xlink:href="#DejaVuSans-69" transform="translate(2844.921875 0.015625)"/>
     <use xlink:href="#DejaVuSans-7a" transform="translate(2872.705078 0.015625)"/>
     <use xlink:href="#DejaVuSans-65" transform="translate(2925.195312 0.015625)"/>
     <use xlink:href="#DejaVuSans-20" transform="translate(2986.71875 0.015625)"/>
     <use xlink:href="#DejaVuSans-77" transform="translate(3018.505859 0.015625)"/>
     <use xlink:href="#DejaVuSans-69" transform="translate(3100.292969 0.015625)"/>
     <use xlink:href="#DejaVuSans-74" transform="translate(3128.076172 0.015625)"/>
     <use xlink:href="#DejaVuSans-68" transform="translate(3167.285156 0.015625)"/>
     <use xlink:href="#DejaVuSans-20" transform="translate(3230.664062 0.015625)"/>
     <use xlink:href="#DejaVuSans-Oblique-4e" transform="translate(3262.451172 0.015625)"/>
     <use xlink:href="#DejaVuSans-3d" transform="translate(3356.738281 0.015625)"/>
     <use xlink:href="#DejaVuSans-32" transform="translate(3460.009766 0.015625)"/>
     <use xlink:href="#DejaVuSans-35" transform="translate(3523.632812 0.015625)"/>
     <use xlink:href="#DejaVuSans-2c" transform="translate(3587.255859 0.015625)"/>
     <use xlink:href="#DejaVuSans-20" transform="translate(3619.042969 0.015625)"/>
     <use xlink:href="#DejaVuSans-31" transform="translate(3650.830078 0.015625)"/>
     <use xlink:href="#DejaVuSans-30" transform="translate(3714.453125 0.015625)"/>
     <use xlink:href="#DejaVuSans-20" transform="translate(3778.076172 0.015625)"/>
     <use xlink:href="#DejaVuSans-72" transform="translate(3809.863281 0.015625)"/>
     <use xlink:href="#DejaVuSans-75" transform="translate(3850.976562 0.015625)"/>
     <use xlink:href="#DejaVuSans-6e" transform="translate(3914.355469 0.015625)"/>
     <use xlink:href="#DejaVuSans-73" transform="translate(3977.734375 0.015625)"/>
     <use xlink:href="#DejaVuSans-20" transform="translate(4029.833984 0.015625)"/>
     <use xlink:href="#DejaVuSans-65" transform="translate(4061.621094 0.015625)"/>
     <use xlink:href="#DejaVuSans-61" transform="translate(4123.144531 0.015625)"/>
     <use xlink:href="#DejaVuSans-63" transform="translate(4184.423828 0.015625)"/>
     <use xlink:href="#DejaVuSans-68" transform="translate(4239.404297 0.015625)"/>
     <use xlink:href="#DejaVuSans-29" transform="translate(4302.783203 0.015625)"/>
    </g>
   </g>
   <g id="legend_1">
    <g id="patch_7">
     <path d="M 718.5 65.67625 
L 846.2 65.67625 
Q 848.2 65.67625 848.2 63.67625 
L 848.2 35.32 
Q 848.2 33.32 846.2 33.32 
L 718.5 33.32 
Q 716.5 33.32 716.5 35.32 
L 716.5 63.67625 
Q 716.5 65.67625 718.5 65.67625 
z
" style="fill: #ffffff; opacity: 0.8; stroke: #cccccc; stroke-linejoin: miter"/>
    </g>
    <g id="LineCollection_3">
     <path d="M 730.5 46.418437 
L 730.5 36.418437 
" style="fill: none; stroke: #1f77b4; stroke-width: 1.5"/>
    </g>
    <g id="line2d_40">
     <path d="M 720.5 41.418437 
L 740.5 41.418437 
" style="fill: none; stroke: #1f77b4; stroke-width: 1.5; stroke-linecap: square"/>
    </g>
    <g id="line2d_41"/>
    <g id="text_14">
     <!-- Constant $\alpha = 0.002$ -->
     <g transform="translate(748.5 44.918437) scale(0.1 -0.1)">
      <use xlink:href="#DejaVuSans-43" transform="translate(0 0.78125)"/>
      <use xlink:href="#DejaVuSans-6f" transform="translate(69.824219 0.78125)"/>
      <use xlink:href="#DejaVuSans-6e" transform="translate(131.005859 0.78125)"/>
      <use xlink:href="#DejaVuSans-73" transform="translate(194.384766 0.78125)"/>
      <use xlink:href="#DejaVuSans-74" transform="translate(246.484375 0.78125)"/>
      <use xlink:href="#DejaVuSans-61" transform="translate(285.693359 0.78125)"/>
      <use xlink:href="#DejaVuSans-6e" transform="translate(346.972656 0.78125)"/>
      <use xlink:href="#DejaVuSans-74" transform="translate(410.351562 0.78125)"/>
      <use xlink:href="#DejaVuSans-20" transform="translate(449.560547 0.78125)"/>
      <use xlink:href="#DejaVuSans-Oblique-3b1" transform="translate(481.347656 0.78125)"/>
      <use xlink:href="#DejaVuSans-3d" transform="translate(566.748047 0.78125)"/>
      <use xlink:href="#DejaVuSans-30" transform="translate(670.019531 0.78125)"/>
      <use xlink:href="#DejaVuSans-2e" transform="translate(733.642578 0.78125)"/>
      <use xlink:href="#DejaVuSans-30" transform="translate(765.429688 0.78125)"/>
      <use xlink:href="#DejaVuSans-30" transform="translate(829.052734 0.78125)"/>
      <use xlink:href="#DejaVuSans-32" transform="translate(892.675781 0.78125)"/>
     </g>
    </g>
    <g id="LineCollection_4">
     <path d="M 730.5 61.096563 
L 730.5 51.096563 
" style="fill: none; stroke: #ff7f0e; stroke-width: 1.5"/>
    </g>
    <g id="line2d_42">
     <path d="M 720.5 56.096563 
L 740.5 56.096563 
" style="fill: none; stroke: #ff7f0e; stroke-width: 1.5; stroke-linecap: square"/>
    </g>
    <g id="line2d_43"/>
    <g id="text_15">
     <!-- Polyak -->
     <g transform="translate(748.5 59.596563) scale(0.1 -0.1)">
      <use xlink:href="#DejaVuSans-50"/>
      <use xlink:href="#DejaVuSans-6f" transform="translate(56.677734 0)"/>
      <use xlink:href="#DejaVuSans-6c" transform="translate(117.859375 0)"/>
      <use xlink:href="#DejaVuSans-79" transform="translate(145.642578 0)"/>
      <use xlink:href="#DejaVuSans-61" transform="translate(204.822266 0)"/>
      <use xlink:href="#DejaVuSans-6b" transform="translate(266.101562 0)"/>
     </g>
    </g>
   </g>
  </g>
 </g>
 <defs>
  <clipPath id="p0190eb939a">
   <rect x="55.772054" y="28.32" width="797.427946" height="361.72"/>
  </clipPath>
 </defs>
</svg>
