<?xml version="1.0" encoding="utf-8" standalone="no"?>
<!DOCTYPE svg PUBLIC "-//W3C//DTD SVG 1.1//EN"
  "http://www.w3.org/Graphics/SVG/1.1/DTD/svg11.dtd">
<svg xmlns:xlink="http://www.w3.org/1999/xlink" width="864pt" height="432pt" viewBox="0 0 864 432" xmlns="http://www.w3.org/2000/svg" version="1.1">
 <metadata>
  <rdf:RDF xmlns:dc="http://purl.org/dc/elements/1.1/" xmlns:cc="http://creativecommons.org/ns#" xmlns:rdf="http://www.w3.org/1999/02/22-rdf-syntax-ns#">
   <cc:Work>
    <dc:type rdf:resource="http://purl.org/dc/dcmitype/StillImage"/>
    <dc:date>2025-04-29T20:19:15.419802</dc:date>
    <dc:format>image/svg+xml</dc:format>
    <dc:creator>
     <cc:Agent>
      <dc:title>Matplotlib v3.10.0, https://matplotlib.org/</dc:title>
     </cc:Agent>
    </dc:creator>
   </cc:Work>
  </rdf:RDF>
 </metadata>
 <defs>
  <style type="text/css">*{stroke-linejoin: round; stroke-linecap: butt}</style>
 </defs>
 <g id="figure_1">
  <g id="patch_1">
   <path d="M 0 432 
L 864 432 
L 864 0 
L 0 0 
z
" style="fill: #ffffff"/>
  </g>
  <g id="axes_1">
   <g id="patch_2">
    <path d="M 50.092685 390.04 
L 853.2 390.04 
L 853.2 28.32 
L 50.092685 28.32 
z
" style="fill: #ffffff"/>
   </g>
   <g id="matplotlib.axis_1">
    <g id="xtick_1">
     <g id="line2d_1">
      <defs>
       <path id="m217079dce0" d="M 0 0 
L 0 3.5 
" style="stroke: #000000; stroke-width: 0.8"/>
      </defs>
      <g>
       <use xlink:href="#m217079dce0" x="79.22284" y="390.04" style="stroke: #000000; stroke-width: 0.8"/>
      </g>
     </g>
     <g id="text_1">
      <!-- 0 -->
      <g transform="translate(76.04159 404.638438) scale(0.1 -0.1)">
       <defs>
        <path id="DejaVuSans-30" d="M 2034 4250 
Q 1547 4250 1301 3770 
Q 1056 3291 1056 2328 
Q 1056 1369 1301 889 
Q 1547 409 2034 409 
Q 2525 409 2770 889 
Q 3016 1369 3016 2328 
Q 3016 3291 2770 3770 
Q 2525 4250 2034 4250 
z
M 2034 4750 
Q 2819 4750 3233 4129 
Q 3647 3509 3647 2328 
Q 3647 1150 3233 529 
Q 2819 -91 2034 -91 
Q 1250 -91 836 529 
Q 422 1150 422 2328 
Q 422 3509 836 4129 
Q 1250 4750 2034 4750 
z
" transform="scale(0.015625)"/>
       </defs>
       <use xlink:href="#DejaVuSans-30"/>
      </g>
     </g>
    </g>
    <g id="xtick_2">
     <g id="line2d_2">
      <g>
       <use xlink:href="#m217079dce0" x="226.717296" y="390.04" style="stroke: #000000; stroke-width: 0.8"/>
      </g>
     </g>
     <g id="text_2">
      <!-- 20 -->
      <g transform="translate(220.354796 404.638438) scale(0.1 -0.1)">
       <defs>
        <path id="DejaVuSans-32" d="M 1228 531 
L 3431 531 
L 3431 0 
L 469 0 
L 469 531 
Q 828 903 1448 1529 
Q 2069 2156 2228 2338 
Q 2531 2678 2651 2914 
Q 2772 3150 2772 3378 
Q 2772 3750 2511 3984 
Q 2250 4219 1831 4219 
Q 1534 4219 1204 4116 
Q 875 4013 500 3803 
L 500 4441 
Q 881 4594 1212 4672 
Q 1544 4750 1819 4750 
Q 2544 4750 2975 4387 
Q 3406 4025 3406 3419 
Q 3406 3131 3298 2873 
Q 3191 2616 2906 2266 
Q 2828 2175 2409 1742 
Q 1991 1309 1228 531 
z
" transform="scale(0.015625)"/>
       </defs>
       <use xlink:href="#DejaVuSans-32"/>
       <use xlink:href="#DejaVuSans-30" transform="translate(63.623047 0)"/>
      </g>
     </g>
    </g>
    <g id="xtick_3">
     <g id="line2d_3">
      <g>
       <use xlink:href="#m217079dce0" x="374.211753" y="390.04" style="stroke: #000000; stroke-width: 0.8"/>
      </g>
     </g>
     <g id="text_3">
      <!-- 40 -->
      <g transform="translate(367.849253 404.638438) scale(0.1 -0.1)">
       <defs>
        <path id="DejaVuSans-34" d="M 2419 4116 
L 825 1625 
L 2419 1625 
L 2419 4116 
z
M 2253 4666 
L 3047 4666 
L 3047 1625 
L 3713 1625 
L 3713 1100 
L 3047 1100 
L 3047 0 
L 2419 0 
L 2419 1100 
L 313 1100 
L 313 1709 
L 2253 4666 
z
" transform="scale(0.015625)"/>
       </defs>
       <use xlink:href="#DejaVuSans-34"/>
       <use xlink:href="#DejaVuSans-30" transform="translate(63.623047 0)"/>
      </g>
     </g>
    </g>
    <g id="xtick_4">
     <g id="line2d_4">
      <g>
       <use xlink:href="#m217079dce0" x="521.706209" y="390.04" style="stroke: #000000; stroke-width: 0.8"/>
      </g>
     </g>
     <g id="text_4">
      <!-- 60 -->
      <g transform="translate(515.343709 404.638438) scale(0.1 -0.1)">
       <defs>
        <path id="DejaVuSans-36" d="M 2113 2584 
Q 1688 2584 1439 2293 
Q 1191 2003 1191 1497 
Q 1191 994 1439 701 
Q 1688 409 2113 409 
Q 2538 409 2786 701 
Q 3034 994 3034 1497 
Q 3034 2003 2786 2293 
Q 2538 2584 2113 2584 
z
M 3366 4563 
L 3366 3988 
Q 3128 4100 2886 4159 
Q 2644 4219 2406 4219 
Q 1781 4219 1451 3797 
Q 1122 3375 1075 2522 
Q 1259 2794 1537 2939 
Q 1816 3084 2150 3084 
Q 2853 3084 3261 2657 
Q 3669 2231 3669 1497 
Q 3669 778 3244 343 
Q 2819 -91 2113 -91 
Q 1303 -91 875 529 
Q 447 1150 447 2328 
Q 447 3434 972 4092 
Q 1497 4750 2381 4750 
Q 2619 4750 2861 4703 
Q 3103 4656 3366 4563 
z
" transform="scale(0.015625)"/>
       </defs>
       <use xlink:href="#DejaVuSans-36"/>
       <use xlink:href="#DejaVuSans-30" transform="translate(63.623047 0)"/>
      </g>
     </g>
    </g>
    <g id="xtick_5">
     <g id="line2d_5">
      <g>
       <use xlink:href="#m217079dce0" x="669.200666" y="390.04" style="stroke: #000000; stroke-width: 0.8"/>
      </g>
     </g>
     <g id="text_5">
      <!-- 80 -->
      <g transform="translate(662.838166 404.638438) scale(0.1 -0.1)">
       <defs>
        <path id="DejaVuSans-38" d="M 2034 2216 
Q 1584 2216 1326 1975 
Q 1069 1734 1069 1313 
Q 1069 891 1326 650 
Q 1584 409 2034 409 
Q 2484 409 2743 651 
Q 3003 894 3003 1313 
Q 3003 1734 2745 1975 
Q 2488 2216 2034 2216 
z
M 1403 2484 
Q 997 2584 770 2862 
Q 544 3141 544 3541 
Q 544 4100 942 4425 
Q 1341 4750 2034 4750 
Q 2731 4750 3128 4425 
Q 3525 4100 3525 3541 
Q 3525 3141 3298 2862 
Q 3072 2584 2669 2484 
Q 3125 2378 3379 2068 
Q 3634 1759 3634 1313 
Q 3634 634 3220 271 
Q 2806 -91 2034 -91 
Q 1263 -91 848 271 
Q 434 634 434 1313 
Q 434 1759 690 2068 
Q 947 2378 1403 2484 
z
M 1172 3481 
Q 1172 3119 1398 2916 
Q 1625 2713 2034 2713 
Q 2441 2713 2670 2916 
Q 2900 3119 2900 3481 
Q 2900 3844 2670 4047 
Q 2441 4250 2034 4250 
Q 1625 4250 1398 4047 
Q 1172 3844 1172 3481 
z
" transform="scale(0.015625)"/>
       </defs>
       <use xlink:href="#DejaVuSans-38"/>
       <use xlink:href="#DejaVuSans-30" transform="translate(63.623047 0)"/>
      </g>
     </g>
    </g>
    <g id="xtick_6">
     <g id="line2d_6">
      <g>
       <use xlink:href="#m217079dce0" x="816.695122" y="390.04" style="stroke: #000000; stroke-width: 0.8"/>
      </g>
     </g>
     <g id="text_6">
      <!-- 100 -->
      <g transform="translate(807.151372 404.638438) scale(0.1 -0.1)">
       <defs>
        <path id="DejaVuSans-31" d="M 794 531 
L 1825 531 
L 1825 4091 
L 703 3866 
L 703 4441 
L 1819 4666 
L 2450 4666 
L 2450 531 
L 3481 531 
L 3481 0 
L 794 0 
L 794 531 
z
" transform="scale(0.015625)"/>
       </defs>
       <use xlink:href="#DejaVuSans-31"/>
       <use xlink:href="#DejaVuSans-30" transform="translate(63.623047 0)"/>
       <use xlink:href="#DejaVuSans-30" transform="translate(127.246094 0)"/>
      </g>
     </g>
    </g>
    <g id="text_7">
     <!-- No. Iterations -->
     <g transform="translate(417.942436 418.316562) scale(0.1 -0.1)">
      <defs>
       <path id="DejaVuSans-4e" d="M 628 4666 
L 1478 4666 
L 3547 763 
L 3547 4666 
L 4159 4666 
L 4159 0 
L 3309 0 
L 1241 3903 
L 1241 0 
L 628 0 
L 628 4666 
z
" transform="scale(0.015625)"/>
       <path id="DejaVuSans-6f" d="M 1959 3097 
Q 1497 3097 1228 2736 
Q 959 2375 959 1747 
Q 959 1119 1226 758 
Q 1494 397 1959 397 
Q 2419 397 2687 759 
Q 2956 1122 2956 1747 
Q 2956 2369 2687 2733 
Q 2419 3097 1959 3097 
z
M 1959 3584 
Q 2709 3584 3137 3096 
Q 3566 2609 3566 1747 
Q 3566 888 3137 398 
Q 2709 -91 1959 -91 
Q 1206 -91 779 398 
Q 353 888 353 1747 
Q 353 2609 779 3096 
Q 1206 3584 1959 3584 
z
" transform="scale(0.015625)"/>
       <path id="DejaVuSans-2e" d="M 684 794 
L 1344 794 
L 1344 0 
L 684 0 
L 684 794 
z
" transform="scale(0.015625)"/>
       <path id="DejaVuSans-20" transform="scale(0.015625)"/>
       <path id="DejaVuSans-49" d="M 628 4666 
L 1259 4666 
L 1259 0 
L 628 0 
L 628 4666 
z
" transform="scale(0.015625)"/>
       <path id="DejaVuSans-74" d="M 1172 4494 
L 1172 3500 
L 2356 3500 
L 2356 3053 
L 1172 3053 
L 1172 1153 
Q 1172 725 1289 603 
Q 1406 481 1766 481 
L 2356 481 
L 2356 0 
L 1766 0 
Q 1100 0 847 248 
Q 594 497 594 1153 
L 594 3053 
L 172 3053 
L 172 3500 
L 594 3500 
L 594 4494 
L 1172 4494 
z
" transform="scale(0.015625)"/>
       <path id="DejaVuSans-65" d="M 3597 1894 
L 3597 1613 
L 953 1613 
Q 991 1019 1311 708 
Q 1631 397 2203 397 
Q 2534 397 2845 478 
Q 3156 559 3463 722 
L 3463 178 
Q 3153 47 2828 -22 
Q 2503 -91 2169 -91 
Q 1331 -91 842 396 
Q 353 884 353 1716 
Q 353 2575 817 3079 
Q 1281 3584 2069 3584 
Q 2775 3584 3186 3129 
Q 3597 2675 3597 1894 
z
M 3022 2063 
Q 3016 2534 2758 2815 
Q 2500 3097 2075 3097 
Q 1594 3097 1305 2825 
Q 1016 2553 972 2059 
L 3022 2063 
z
" transform="scale(0.015625)"/>
       <path id="DejaVuSans-72" d="M 2631 2963 
Q 2534 3019 2420 3045 
Q 2306 3072 2169 3072 
Q 1681 3072 1420 2755 
Q 1159 2438 1159 1844 
L 1159 0 
L 581 0 
L 581 3500 
L 1159 3500 
L 1159 2956 
Q 1341 3275 1631 3429 
Q 1922 3584 2338 3584 
Q 2397 3584 2469 3576 
Q 2541 3569 2628 3553 
L 2631 2963 
z
" transform="scale(0.015625)"/>
       <path id="DejaVuSans-61" d="M 2194 1759 
Q 1497 1759 1228 1600 
Q 959 1441 959 1056 
Q 959 750 1161 570 
Q 1363 391 1709 391 
Q 2188 391 2477 730 
Q 2766 1069 2766 1631 
L 2766 1759 
L 2194 1759 
z
M 3341 1997 
L 3341 0 
L 2766 0 
L 2766 531 
Q 2569 213 2275 61 
Q 1981 -91 1556 -91 
Q 1019 -91 701 211 
Q 384 513 384 1019 
Q 384 1609 779 1909 
Q 1175 2209 1959 2209 
L 2766 2209 
L 2766 2266 
Q 2766 2663 2505 2880 
Q 2244 3097 1772 3097 
Q 1472 3097 1187 3025 
Q 903 2953 641 2809 
L 641 3341 
Q 956 3463 1253 3523 
Q 1550 3584 1831 3584 
Q 2591 3584 2966 3190 
Q 3341 2797 3341 1997 
z
" transform="scale(0.015625)"/>
       <path id="DejaVuSans-69" d="M 603 3500 
L 1178 3500 
L 1178 0 
L 603 0 
L 603 3500 
z
M 603 4863 
L 1178 4863 
L 1178 4134 
L 603 4134 
L 603 4863 
z
" transform="scale(0.015625)"/>
       <path id="DejaVuSans-6e" d="M 3513 2113 
L 3513 0 
L 2938 0 
L 2938 2094 
Q 2938 2591 2744 2837 
Q 2550 3084 2163 3084 
Q 1697 3084 1428 2787 
Q 1159 2491 1159 1978 
L 1159 0 
L 581 0 
L 581 3500 
L 1159 3500 
L 1159 2956 
Q 1366 3272 1645 3428 
Q 1925 3584 2291 3584 
Q 2894 3584 3203 3211 
Q 3513 2838 3513 2113 
z
" transform="scale(0.015625)"/>
       <path id="DejaVuSans-73" d="M 2834 3397 
L 2834 2853 
Q 2591 2978 2328 3040 
Q 2066 3103 1784 3103 
Q 1356 3103 1142 2972 
Q 928 2841 928 2578 
Q 928 2378 1081 2264 
Q 1234 2150 1697 2047 
L 1894 2003 
Q 2506 1872 2764 1633 
Q 3022 1394 3022 966 
Q 3022 478 2636 193 
Q 2250 -91 1575 -91 
Q 1294 -91 989 -36 
Q 684 19 347 128 
L 347 722 
Q 666 556 975 473 
Q 1284 391 1588 391 
Q 1994 391 2212 530 
Q 2431 669 2431 922 
Q 2431 1156 2273 1281 
Q 2116 1406 1581 1522 
L 1381 1569 
Q 847 1681 609 1914 
Q 372 2147 372 2553 
Q 372 3047 722 3315 
Q 1072 3584 1716 3584 
Q 2034 3584 2315 3537 
Q 2597 3491 2834 3397 
z
" transform="scale(0.015625)"/>
      </defs>
      <use xlink:href="#DejaVuSans-4e"/>
      <use xlink:href="#DejaVuSans-6f" transform="translate(74.804688 0)"/>
      <use xlink:href="#DejaVuSans-2e" transform="translate(134.236328 0)"/>
      <use xlink:href="#DejaVuSans-20" transform="translate(166.023438 0)"/>
      <use xlink:href="#DejaVuSans-49" transform="translate(197.810547 0)"/>
      <use xlink:href="#DejaVuSans-74" transform="translate(227.302734 0)"/>
      <use xlink:href="#DejaVuSans-65" transform="translate(266.511719 0)"/>
      <use xlink:href="#DejaVuSans-72" transform="translate(328.035156 0)"/>
      <use xlink:href="#DejaVuSans-61" transform="translate(369.148438 0)"/>
      <use xlink:href="#DejaVuSans-74" transform="translate(430.427734 0)"/>
      <use xlink:href="#DejaVuSans-69" transform="translate(469.636719 0)"/>
      <use xlink:href="#DejaVuSans-6f" transform="translate(497.419922 0)"/>
      <use xlink:href="#DejaVuSans-6e" transform="translate(558.601562 0)"/>
      <use xlink:href="#DejaVuSans-73" transform="translate(621.980469 0)"/>
     </g>
    </g>
   </g>
   <g id="matplotlib.axis_2">
    <g id="ytick_1">
     <g id="line2d_7">
      <defs>
       <path id="ma30921d6ec" d="M 0 0 
L -3.5 0 
" style="stroke: #000000; stroke-width: 0.8"/>
      </defs>
      <g>
       <use xlink:href="#ma30921d6ec" x="50.092685" y="290.729006" style="stroke: #000000; stroke-width: 0.8"/>
      </g>
     </g>
     <g id="text_8">
      <!-- $\mathdefault{10^{0}}$ -->
      <g transform="translate(25.492685 294.528225) scale(0.1 -0.1)">
       <use xlink:href="#DejaVuSans-31" transform="translate(0 0.765625)"/>
       <use xlink:href="#DejaVuSans-30" transform="translate(63.623047 0.765625)"/>
       <use xlink:href="#DejaVuSans-30" transform="translate(128.203125 39.046875) scale(0.7)"/>
      </g>
     </g>
    </g>
    <g id="ytick_2">
     <g id="line2d_8">
      <g>
       <use xlink:href="#ma30921d6ec" x="50.092685" y="190.175556" style="stroke: #000000; stroke-width: 0.8"/>
      </g>
     </g>
     <g id="text_9">
      <!-- $\mathdefault{10^{1}}$ -->
      <g transform="translate(25.492685 193.974775) scale(0.1 -0.1)">
       <use xlink:href="#DejaVuSans-31" transform="translate(0 0.684375)"/>
       <use xlink:href="#DejaVuSans-30" transform="translate(63.623047 0.684375)"/>
       <use xlink:href="#DejaVuSans-31" transform="translate(128.203125 38.965625) scale(0.7)"/>
      </g>
     </g>
    </g>
    <g id="ytick_3">
     <g id="line2d_9">
      <g>
       <use xlink:href="#ma30921d6ec" x="50.092685" y="89.622107" style="stroke: #000000; stroke-width: 0.8"/>
      </g>
     </g>
     <g id="text_10">
      <!-- $\mathdefault{10^{2}}$ -->
      <g transform="translate(25.492685 93.421326) scale(0.1 -0.1)">
       <use xlink:href="#DejaVuSans-31" transform="translate(0 0.765625)"/>
       <use xlink:href="#DejaVuSans-30" transform="translate(63.623047 0.765625)"/>
       <use xlink:href="#DejaVuSans-32" transform="translate(128.203125 39.046875) scale(0.7)"/>
      </g>
     </g>
    </g>
    <g id="ytick_4">
     <g id="line2d_10">
      <defs>
       <path id="m2cd6e01943" d="M 0 0 
L -2 0 
" style="stroke: #000000; stroke-width: 0.6"/>
      </defs>
      <g>
       <use xlink:href="#m2cd6e01943" x="50.092685" y="361.012851" style="stroke: #000000; stroke-width: 0.6"/>
      </g>
     </g>
    </g>
    <g id="ytick_5">
     <g id="line2d_11">
      <g>
       <use xlink:href="#m2cd6e01943" x="50.092685" y="343.306267" style="stroke: #000000; stroke-width: 0.6"/>
      </g>
     </g>
    </g>
    <g id="ytick_6">
     <g id="line2d_12">
      <g>
       <use xlink:href="#m2cd6e01943" x="50.092685" y="330.743246" style="stroke: #000000; stroke-width: 0.6"/>
      </g>
     </g>
    </g>
    <g id="ytick_7">
     <g id="line2d_13">
      <g>
       <use xlink:href="#m2cd6e01943" x="50.092685" y="320.99861" style="stroke: #000000; stroke-width: 0.6"/>
      </g>
     </g>
    </g>
    <g id="ytick_8">
     <g id="line2d_14">
      <g>
       <use xlink:href="#m2cd6e01943" x="50.092685" y="313.036663" style="stroke: #000000; stroke-width: 0.6"/>
      </g>
     </g>
    </g>
    <g id="ytick_9">
     <g id="line2d_15">
      <g>
       <use xlink:href="#m2cd6e01943" x="50.092685" y="306.304932" style="stroke: #000000; stroke-width: 0.6"/>
      </g>
     </g>
    </g>
    <g id="ytick_10">
     <g id="line2d_16">
      <g>
       <use xlink:href="#m2cd6e01943" x="50.092685" y="300.473642" style="stroke: #000000; stroke-width: 0.6"/>
      </g>
     </g>
    </g>
    <g id="ytick_11">
     <g id="line2d_17">
      <g>
       <use xlink:href="#m2cd6e01943" x="50.092685" y="295.330079" style="stroke: #000000; stroke-width: 0.6"/>
      </g>
     </g>
    </g>
    <g id="ytick_12">
     <g id="line2d_18">
      <g>
       <use xlink:href="#m2cd6e01943" x="50.092685" y="260.459401" style="stroke: #000000; stroke-width: 0.6"/>
      </g>
     </g>
    </g>
    <g id="ytick_13">
     <g id="line2d_19">
      <g>
       <use xlink:href="#m2cd6e01943" x="50.092685" y="242.752818" style="stroke: #000000; stroke-width: 0.6"/>
      </g>
     </g>
    </g>
    <g id="ytick_14">
     <g id="line2d_20">
      <g>
       <use xlink:href="#m2cd6e01943" x="50.092685" y="230.189797" style="stroke: #000000; stroke-width: 0.6"/>
      </g>
     </g>
    </g>
    <g id="ytick_15">
     <g id="line2d_21">
      <g>
       <use xlink:href="#m2cd6e01943" x="50.092685" y="220.445161" style="stroke: #000000; stroke-width: 0.6"/>
      </g>
     </g>
    </g>
    <g id="ytick_16">
     <g id="line2d_22">
      <g>
       <use xlink:href="#m2cd6e01943" x="50.092685" y="212.483213" style="stroke: #000000; stroke-width: 0.6"/>
      </g>
     </g>
    </g>
    <g id="ytick_17">
     <g id="line2d_23">
      <g>
       <use xlink:href="#m2cd6e01943" x="50.092685" y="205.751483" style="stroke: #000000; stroke-width: 0.6"/>
      </g>
     </g>
    </g>
    <g id="ytick_18">
     <g id="line2d_24">
      <g>
       <use xlink:href="#m2cd6e01943" x="50.092685" y="199.920193" style="stroke: #000000; stroke-width: 0.6"/>
      </g>
     </g>
    </g>
    <g id="ytick_19">
     <g id="line2d_25">
      <g>
       <use xlink:href="#m2cd6e01943" x="50.092685" y="194.77663" style="stroke: #000000; stroke-width: 0.6"/>
      </g>
     </g>
    </g>
    <g id="ytick_20">
     <g id="line2d_26">
      <g>
       <use xlink:href="#m2cd6e01943" x="50.092685" y="159.905952" style="stroke: #000000; stroke-width: 0.6"/>
      </g>
     </g>
    </g>
    <g id="ytick_21">
     <g id="line2d_27">
      <g>
       <use xlink:href="#m2cd6e01943" x="50.092685" y="142.199369" style="stroke: #000000; stroke-width: 0.6"/>
      </g>
     </g>
    </g>
    <g id="ytick_22">
     <g id="line2d_28">
      <g>
       <use xlink:href="#m2cd6e01943" x="50.092685" y="129.636348" style="stroke: #000000; stroke-width: 0.6"/>
      </g>
     </g>
    </g>
    <g id="ytick_23">
     <g id="line2d_29">
      <g>
       <use xlink:href="#m2cd6e01943" x="50.092685" y="119.891712" style="stroke: #000000; stroke-width: 0.6"/>
      </g>
     </g>
    </g>
    <g id="ytick_24">
     <g id="line2d_30">
      <g>
       <use xlink:href="#m2cd6e01943" x="50.092685" y="111.929764" style="stroke: #000000; stroke-width: 0.6"/>
      </g>
     </g>
    </g>
    <g id="ytick_25">
     <g id="line2d_31">
      <g>
       <use xlink:href="#m2cd6e01943" x="50.092685" y="105.198034" style="stroke: #000000; stroke-width: 0.6"/>
      </g>
     </g>
    </g>
    <g id="ytick_26">
     <g id="line2d_32">
      <g>
       <use xlink:href="#m2cd6e01943" x="50.092685" y="99.366743" style="stroke: #000000; stroke-width: 0.6"/>
      </g>
     </g>
    </g>
    <g id="ytick_27">
     <g id="line2d_33">
      <g>
       <use xlink:href="#m2cd6e01943" x="50.092685" y="94.223181" style="stroke: #000000; stroke-width: 0.6"/>
      </g>
     </g>
    </g>
    <g id="ytick_28">
     <g id="line2d_34">
      <g>
       <use xlink:href="#m2cd6e01943" x="50.092685" y="59.352503" style="stroke: #000000; stroke-width: 0.6"/>
      </g>
     </g>
    </g>
    <g id="ytick_29">
     <g id="line2d_35">
      <g>
       <use xlink:href="#m2cd6e01943" x="50.092685" y="41.645919" style="stroke: #000000; stroke-width: 0.6"/>
      </g>
     </g>
    </g>
    <g id="ytick_30">
     <g id="line2d_36">
      <g>
       <use xlink:href="#m2cd6e01943" x="50.092685" y="29.082898" style="stroke: #000000; stroke-width: 0.6"/>
      </g>
     </g>
    </g>
    <g id="text_11">
     <!-- Function Value -->
     <g transform="translate(19.412997 245.765156) rotate(-90) scale(0.1 -0.1)">
      <defs>
       <path id="DejaVuSans-46" d="M 628 4666 
L 3309 4666 
L 3309 4134 
L 1259 4134 
L 1259 2759 
L 3109 2759 
L 3109 2228 
L 1259 2228 
L 1259 0 
L 628 0 
L 628 4666 
z
" transform="scale(0.015625)"/>
       <path id="DejaVuSans-75" d="M 544 1381 
L 544 3500 
L 1119 3500 
L 1119 1403 
Q 1119 906 1312 657 
Q 1506 409 1894 409 
Q 2359 409 2629 706 
Q 2900 1003 2900 1516 
L 2900 3500 
L 3475 3500 
L 3475 0 
L 2900 0 
L 2900 538 
Q 2691 219 2414 64 
Q 2138 -91 1772 -91 
Q 1169 -91 856 284 
Q 544 659 544 1381 
z
M 1991 3584 
L 1991 3584 
z
" transform="scale(0.015625)"/>
       <path id="DejaVuSans-63" d="M 3122 3366 
L 3122 2828 
Q 2878 2963 2633 3030 
Q 2388 3097 2138 3097 
Q 1578 3097 1268 2742 
Q 959 2388 959 1747 
Q 959 1106 1268 751 
Q 1578 397 2138 397 
Q 2388 397 2633 464 
Q 2878 531 3122 666 
L 3122 134 
Q 2881 22 2623 -34 
Q 2366 -91 2075 -91 
Q 1284 -91 818 406 
Q 353 903 353 1747 
Q 353 2603 823 3093 
Q 1294 3584 2113 3584 
Q 2378 3584 2631 3529 
Q 2884 3475 3122 3366 
z
" transform="scale(0.015625)"/>
       <path id="DejaVuSans-56" d="M 1831 0 
L 50 4666 
L 709 4666 
L 2188 738 
L 3669 4666 
L 4325 4666 
L 2547 0 
L 1831 0 
z
" transform="scale(0.015625)"/>
       <path id="DejaVuSans-6c" d="M 603 4863 
L 1178 4863 
L 1178 0 
L 603 0 
L 603 4863 
z
" transform="scale(0.015625)"/>
      </defs>
      <use xlink:href="#DejaVuSans-46"/>
      <use xlink:href="#DejaVuSans-75" transform="translate(52.019531 0)"/>
      <use xlink:href="#DejaVuSans-6e" transform="translate(115.398438 0)"/>
      <use xlink:href="#DejaVuSans-63" transform="translate(178.777344 0)"/>
      <use xlink:href="#DejaVuSans-74" transform="translate(233.757812 0)"/>
      <use xlink:href="#DejaVuSans-69" transform="translate(272.966797 0)"/>
      <use xlink:href="#DejaVuSans-6f" transform="translate(300.75 0)"/>
      <use xlink:href="#DejaVuSans-6e" transform="translate(361.931641 0)"/>
      <use xlink:href="#DejaVuSans-20" transform="translate(425.310547 0)"/>
      <use xlink:href="#DejaVuSans-56" transform="translate(457.097656 0)"/>
      <use xlink:href="#DejaVuSans-61" transform="translate(517.755859 0)"/>
      <use xlink:href="#DejaVuSans-6c" transform="translate(579.035156 0)"/>
      <use xlink:href="#DejaVuSans-75" transform="translate(606.818359 0)"/>
      <use xlink:href="#DejaVuSans-65" transform="translate(670.197266 0)"/>
     </g>
    </g>
   </g>
   <g id="LineCollection_1">
    <path d="M 86.597563 68.100086 
L 86.597563 67.456545 
" clip-path="url(#p62498344fb)" style="fill: none; stroke: #1f77b4; stroke-width: 1.5"/>
    <path d="M 93.972286 68.577617 
L 93.972286 67.985839 
" clip-path="url(#p62498344fb)" style="fill: none; stroke: #1f77b4; stroke-width: 1.5"/>
    <path d="M 101.347008 68.370969 
L 101.347008 67.887326 
" clip-path="url(#p62498344fb)" style="fill: none; stroke: #1f77b4; stroke-width: 1.5"/>
    <path d="M 108.721731 69.078402 
L 108.721731 68.189856 
" clip-path="url(#p62498344fb)" style="fill: none; stroke: #1f77b4; stroke-width: 1.5"/>
    <path d="M 116.096454 69.007201 
L 116.096454 68.484024 
" clip-path="url(#p62498344fb)" style="fill: none; stroke: #1f77b4; stroke-width: 1.5"/>
    <path d="M 123.471177 69.234391 
L 123.471177 68.356216 
" clip-path="url(#p62498344fb)" style="fill: none; stroke: #1f77b4; stroke-width: 1.5"/>
    <path d="M 130.8459 69.302747 
L 130.8459 68.593462 
" clip-path="url(#p62498344fb)" style="fill: none; stroke: #1f77b4; stroke-width: 1.5"/>
    <path d="M 138.220622 69.481353 
L 138.220622 68.772889 
" clip-path="url(#p62498344fb)" style="fill: none; stroke: #1f77b4; stroke-width: 1.5"/>
    <path d="M 145.595345 69.748559 
L 145.595345 69.159165 
" clip-path="url(#p62498344fb)" style="fill: none; stroke: #1f77b4; stroke-width: 1.5"/>
    <path d="M 152.970068 70.008889 
L 152.970068 69.029203 
" clip-path="url(#p62498344fb)" style="fill: none; stroke: #1f77b4; stroke-width: 1.5"/>
    <path d="M 160.344791 69.939438 
L 160.344791 69.310534 
" clip-path="url(#p62498344fb)" style="fill: none; stroke: #1f77b4; stroke-width: 1.5"/>
    <path d="M 167.719514 70.232206 
L 167.719514 69.618513 
" clip-path="url(#p62498344fb)" style="fill: none; stroke: #1f77b4; stroke-width: 1.5"/>
    <path d="M 175.094237 70.528514 
L 175.094237 69.886389 
" clip-path="url(#p62498344fb)" style="fill: none; stroke: #1f77b4; stroke-width: 1.5"/>
    <path d="M 182.468959 71.062739 
L 182.468959 70.052431 
" clip-path="url(#p62498344fb)" style="fill: none; stroke: #1f77b4; stroke-width: 1.5"/>
    <path d="M 189.843682 70.963379 
L 189.843682 70.282805 
" clip-path="url(#p62498344fb)" style="fill: none; stroke: #1f77b4; stroke-width: 1.5"/>
    <path d="M 197.218405 71.234181 
L 197.218405 70.445182 
" clip-path="url(#p62498344fb)" style="fill: none; stroke: #1f77b4; stroke-width: 1.5"/>
    <path d="M 204.593128 71.606126 
L 204.593128 70.80233 
" clip-path="url(#p62498344fb)" style="fill: none; stroke: #1f77b4; stroke-width: 1.5"/>
    <path d="M 211.967851 72.1661 
L 211.967851 71.360471 
" clip-path="url(#p62498344fb)" style="fill: none; stroke: #1f77b4; stroke-width: 1.5"/>
    <path d="M 219.342574 72.659864 
L 219.342574 71.833794 
" clip-path="url(#p62498344fb)" style="fill: none; stroke: #1f77b4; stroke-width: 1.5"/>
    <path d="M 226.717296 72.741684 
L 226.717296 72.074662 
" clip-path="url(#p62498344fb)" style="fill: none; stroke: #1f77b4; stroke-width: 1.5"/>
    <path d="M 234.092019 73.672419 
L 234.092019 72.294025 
" clip-path="url(#p62498344fb)" style="fill: none; stroke: #1f77b4; stroke-width: 1.5"/>
    <path d="M 241.466742 74.395237 
L 241.466742 73.094284 
" clip-path="url(#p62498344fb)" style="fill: none; stroke: #1f77b4; stroke-width: 1.5"/>
    <path d="M 248.841465 75.559905 
L 248.841465 74.493189 
" clip-path="url(#p62498344fb)" style="fill: none; stroke: #1f77b4; stroke-width: 1.5"/>
    <path d="M 256.216188 77.569555 
L 256.216188 75.655141 
" clip-path="url(#p62498344fb)" style="fill: none; stroke: #1f77b4; stroke-width: 1.5"/>
    <path d="M 263.59091 80.553566 
L 263.59091 77.175046 
" clip-path="url(#p62498344fb)" style="fill: none; stroke: #1f77b4; stroke-width: 1.5"/>
    <path d="M 270.965633 81.927704 
L 270.965633 78.625634 
" clip-path="url(#p62498344fb)" style="fill: none; stroke: #1f77b4; stroke-width: 1.5"/>
    <path d="M 278.340356 85.34045 
L 278.340356 80.812142 
" clip-path="url(#p62498344fb)" style="fill: none; stroke: #1f77b4; stroke-width: 1.5"/>
    <path d="M 285.715079 88.617519 
L 285.715079 84.986647 
" clip-path="url(#p62498344fb)" style="fill: none; stroke: #1f77b4; stroke-width: 1.5"/>
    <path d="M 293.089802 95.06852 
L 293.089802 90.334749 
" clip-path="url(#p62498344fb)" style="fill: none; stroke: #1f77b4; stroke-width: 1.5"/>
    <path d="M 300.464525 100.588198 
L 300.464525 93.687876 
" clip-path="url(#p62498344fb)" style="fill: none; stroke: #1f77b4; stroke-width: 1.5"/>
    <path d="M 307.839247 105.887677 
L 307.839247 97.305441 
" clip-path="url(#p62498344fb)" style="fill: none; stroke: #1f77b4; stroke-width: 1.5"/>
    <path d="M 315.21397 110.7675 
L 315.21397 104.69793 
" clip-path="url(#p62498344fb)" style="fill: none; stroke: #1f77b4; stroke-width: 1.5"/>
    <path d="M 322.588693 117.799044 
L 322.588693 109.824289 
" clip-path="url(#p62498344fb)" style="fill: none; stroke: #1f77b4; stroke-width: 1.5"/>
    <path d="M 329.963416 126.618712 
L 329.963416 117.126612 
" clip-path="url(#p62498344fb)" style="fill: none; stroke: #1f77b4; stroke-width: 1.5"/>
    <path d="M 337.338139 126.774419 
L 337.338139 120.412007 
" clip-path="url(#p62498344fb)" style="fill: none; stroke: #1f77b4; stroke-width: 1.5"/>
    <path d="M 344.712861 133.248387 
L 344.712861 123.208373 
" clip-path="url(#p62498344fb)" style="fill: none; stroke: #1f77b4; stroke-width: 1.5"/>
    <path d="M 352.087584 138.975914 
L 352.087584 131.820851 
" clip-path="url(#p62498344fb)" style="fill: none; stroke: #1f77b4; stroke-width: 1.5"/>
    <path d="M 359.462307 144.099272 
L 359.462307 136.370139 
" clip-path="url(#p62498344fb)" style="fill: none; stroke: #1f77b4; stroke-width: 1.5"/>
    <path d="M 366.83703 152.437701 
L 366.83703 144.135197 
" clip-path="url(#p62498344fb)" style="fill: none; stroke: #1f77b4; stroke-width: 1.5"/>
    <path d="M 374.211753 153.955815 
L 374.211753 146.090721 
" clip-path="url(#p62498344fb)" style="fill: none; stroke: #1f77b4; stroke-width: 1.5"/>
    <path d="M 381.586476 159.419111 
L 381.586476 152.715295 
" clip-path="url(#p62498344fb)" style="fill: none; stroke: #1f77b4; stroke-width: 1.5"/>
    <path d="M 388.961198 164.141095 
L 388.961198 153.961691 
" clip-path="url(#p62498344fb)" style="fill: none; stroke: #1f77b4; stroke-width: 1.5"/>
    <path d="M 396.335921 172.060396 
L 396.335921 163.299004 
" clip-path="url(#p62498344fb)" style="fill: none; stroke: #1f77b4; stroke-width: 1.5"/>
    <path d="M 403.710644 177.611857 
L 403.710644 164.050915 
" clip-path="url(#p62498344fb)" style="fill: none; stroke: #1f77b4; stroke-width: 1.5"/>
    <path d="M 411.085367 181.805121 
L 411.085367 164.615852 
" clip-path="url(#p62498344fb)" style="fill: none; stroke: #1f77b4; stroke-width: 1.5"/>
    <path d="M 418.46009 187.530765 
L 418.46009 172.674614 
" clip-path="url(#p62498344fb)" style="fill: none; stroke: #1f77b4; stroke-width: 1.5"/>
    <path d="M 425.834813 190.988648 
L 425.834813 175.950646 
" clip-path="url(#p62498344fb)" style="fill: none; stroke: #1f77b4; stroke-width: 1.5"/>
    <path d="M 433.209535 198.997853 
L 433.209535 176.619084 
" clip-path="url(#p62498344fb)" style="fill: none; stroke: #1f77b4; stroke-width: 1.5"/>
    <path d="M 440.584258 199.018618 
L 440.584258 186.987224 
" clip-path="url(#p62498344fb)" style="fill: none; stroke: #1f77b4; stroke-width: 1.5"/>
    <path d="M 447.958981 199.065625 
L 447.958981 182.962406 
" clip-path="url(#p62498344fb)" style="fill: none; stroke: #1f77b4; stroke-width: 1.5"/>
    <path d="M 455.333704 204.254634 
L 455.333704 186.290966 
" clip-path="url(#p62498344fb)" style="fill: none; stroke: #1f77b4; stroke-width: 1.5"/>
    <path d="M 462.708427 208.85866 
L 462.708427 191.986123 
" clip-path="url(#p62498344fb)" style="fill: none; stroke: #1f77b4; stroke-width: 1.5"/>
    <path d="M 470.083149 209.287189 
L 470.083149 194.827558 
" clip-path="url(#p62498344fb)" style="fill: none; stroke: #1f77b4; stroke-width: 1.5"/>
    <path d="M 477.457872 215.788839 
L 477.457872 197.842648 
" clip-path="url(#p62498344fb)" style="fill: none; stroke: #1f77b4; stroke-width: 1.5"/>
    <path d="M 484.832595 217.025084 
L 484.832595 202.350493 
" clip-path="url(#p62498344fb)" style="fill: none; stroke: #1f77b4; stroke-width: 1.5"/>
    <path d="M 492.207318 213.718647 
L 492.207318 194.606323 
" clip-path="url(#p62498344fb)" style="fill: none; stroke: #1f77b4; stroke-width: 1.5"/>
    <path d="M 499.582041 223.564061 
L 499.582041 205.199778 
" clip-path="url(#p62498344fb)" style="fill: none; stroke: #1f77b4; stroke-width: 1.5"/>
    <path d="M 506.956764 215.796968 
L 506.956764 202.130458 
" clip-path="url(#p62498344fb)" style="fill: none; stroke: #1f77b4; stroke-width: 1.5"/>
    <path d="M 514.331486 222.130437 
L 514.331486 207.392747 
" clip-path="url(#p62498344fb)" style="fill: none; stroke: #1f77b4; stroke-width: 1.5"/>
    <path d="M 521.706209 223.812323 
L 521.706209 205.143775 
" clip-path="url(#p62498344fb)" style="fill: none; stroke: #1f77b4; stroke-width: 1.5"/>
    <path d="M 529.080932 225.159702 
L 529.080932 210.208124 
" clip-path="url(#p62498344fb)" style="fill: none; stroke: #1f77b4; stroke-width: 1.5"/>
    <path d="M 536.455655 225.38951 
L 536.455655 212.834669 
" clip-path="url(#p62498344fb)" style="fill: none; stroke: #1f77b4; stroke-width: 1.5"/>
    <path d="M 543.830378 224.534759 
L 543.830378 207.224684 
" clip-path="url(#p62498344fb)" style="fill: none; stroke: #1f77b4; stroke-width: 1.5"/>
    <path d="M 551.2051 231.765907 
L 551.2051 208.122031 
" clip-path="url(#p62498344fb)" style="fill: none; stroke: #1f77b4; stroke-width: 1.5"/>
    <path d="M 558.579823 223.941538 
L 558.579823 215.50656 
" clip-path="url(#p62498344fb)" style="fill: none; stroke: #1f77b4; stroke-width: 1.5"/>
    <path d="M 565.954546 226.191873 
L 565.954546 218.228498 
" clip-path="url(#p62498344fb)" style="fill: none; stroke: #1f77b4; stroke-width: 1.5"/>
    <path d="M 573.329269 224.230285 
L 573.329269 216.948128 
" clip-path="url(#p62498344fb)" style="fill: none; stroke: #1f77b4; stroke-width: 1.5"/>
    <path d="M 580.703992 222.867091 
L 580.703992 216.313047 
" clip-path="url(#p62498344fb)" style="fill: none; stroke: #1f77b4; stroke-width: 1.5"/>
    <path d="M 588.078715 227.508967 
L 588.078715 212.517076 
" clip-path="url(#p62498344fb)" style="fill: none; stroke: #1f77b4; stroke-width: 1.5"/>
    <path d="M 595.453437 226.200658 
L 595.453437 215.022497 
" clip-path="url(#p62498344fb)" style="fill: none; stroke: #1f77b4; stroke-width: 1.5"/>
    <path d="M 602.82816 234.13264 
L 602.82816 215.837223 
" clip-path="url(#p62498344fb)" style="fill: none; stroke: #1f77b4; stroke-width: 1.5"/>
    <path d="M 610.202883 236.862687 
L 610.202883 216.329532 
" clip-path="url(#p62498344fb)" style="fill: none; stroke: #1f77b4; stroke-width: 1.5"/>
    <path d="M 617.577606 230.985736 
L 617.577606 219.126147 
" clip-path="url(#p62498344fb)" style="fill: none; stroke: #1f77b4; stroke-width: 1.5"/>
    <path d="M 624.952329 232.800022 
L 624.952329 219.399333 
" clip-path="url(#p62498344fb)" style="fill: none; stroke: #1f77b4; stroke-width: 1.5"/>
    <path d="M 632.327052 226.72532 
L 632.327052 217.046114 
" clip-path="url(#p62498344fb)" style="fill: none; stroke: #1f77b4; stroke-width: 1.5"/>
    <path d="M 639.701774 231.091516 
L 639.701774 213.402232 
" clip-path="url(#p62498344fb)" style="fill: none; stroke: #1f77b4; stroke-width: 1.5"/>
    <path d="M 647.076497 234.057579 
L 647.076497 216.95658 
" clip-path="url(#p62498344fb)" style="fill: none; stroke: #1f77b4; stroke-width: 1.5"/>
    <path d="M 654.45122 231.960826 
L 654.45122 220.954978 
" clip-path="url(#p62498344fb)" style="fill: none; stroke: #1f77b4; stroke-width: 1.5"/>
    <path d="M 661.825943 233.86863 
L 661.825943 214.033585 
" clip-path="url(#p62498344fb)" style="fill: none; stroke: #1f77b4; stroke-width: 1.5"/>
    <path d="M 669.200666 235.443989 
L 669.200666 212.018094 
" clip-path="url(#p62498344fb)" style="fill: none; stroke: #1f77b4; stroke-width: 1.5"/>
    <path d="M 676.575388 235.335847 
L 676.575388 218.330793 
" clip-path="url(#p62498344fb)" style="fill: none; stroke: #1f77b4; stroke-width: 1.5"/>
    <path d="M 683.950111 233.253563 
L 683.950111 217.50445 
" clip-path="url(#p62498344fb)" style="fill: none; stroke: #1f77b4; stroke-width: 1.5"/>
    <path d="M 691.324834 234.589508 
L 691.324834 214.395429 
" clip-path="url(#p62498344fb)" style="fill: none; stroke: #1f77b4; stroke-width: 1.5"/>
    <path d="M 698.699557 229.526715 
L 698.699557 217.882195 
" clip-path="url(#p62498344fb)" style="fill: none; stroke: #1f77b4; stroke-width: 1.5"/>
    <path d="M 706.07428 232.415851 
L 706.07428 213.836994 
" clip-path="url(#p62498344fb)" style="fill: none; stroke: #1f77b4; stroke-width: 1.5"/>
    <path d="M 713.449003 232.66409 
L 713.449003 221.55879 
" clip-path="url(#p62498344fb)" style="fill: none; stroke: #1f77b4; stroke-width: 1.5"/>
    <path d="M 720.823725 234.634598 
L 720.823725 213.620081 
" clip-path="url(#p62498344fb)" style="fill: none; stroke: #1f77b4; stroke-width: 1.5"/>
    <path d="M 728.198448 233.160532 
L 728.198448 220.577732 
" clip-path="url(#p62498344fb)" style="fill: none; stroke: #1f77b4; stroke-width: 1.5"/>
    <path d="M 735.573171 234.456788 
L 735.573171 220.67935 
" clip-path="url(#p62498344fb)" style="fill: none; stroke: #1f77b4; stroke-width: 1.5"/>
    <path d="M 742.947894 231.030866 
L 742.947894 213.002596 
" clip-path="url(#p62498344fb)" style="fill: none; stroke: #1f77b4; stroke-width: 1.5"/>
    <path d="M 750.322617 235.100847 
L 750.322617 224.598614 
" clip-path="url(#p62498344fb)" style="fill: none; stroke: #1f77b4; stroke-width: 1.5"/>
    <path d="M 757.697339 230.858519 
L 757.697339 213.710852 
" clip-path="url(#p62498344fb)" style="fill: none; stroke: #1f77b4; stroke-width: 1.5"/>
    <path d="M 765.072062 234.45187 
L 765.072062 221.226258 
" clip-path="url(#p62498344fb)" style="fill: none; stroke: #1f77b4; stroke-width: 1.5"/>
    <path d="M 772.446785 235.654869 
L 772.446785 217.367194 
" clip-path="url(#p62498344fb)" style="fill: none; stroke: #1f77b4; stroke-width: 1.5"/>
    <path d="M 779.821508 238.683012 
L 779.821508 216.447985 
" clip-path="url(#p62498344fb)" style="fill: none; stroke: #1f77b4; stroke-width: 1.5"/>
    <path d="M 787.196231 226.133675 
L 787.196231 214.64788 
" clip-path="url(#p62498344fb)" style="fill: none; stroke: #1f77b4; stroke-width: 1.5"/>
    <path d="M 794.570954 235.164191 
L 794.570954 217.570701 
" clip-path="url(#p62498344fb)" style="fill: none; stroke: #1f77b4; stroke-width: 1.5"/>
    <path d="M 801.945676 236.572232 
L 801.945676 220.167927 
" clip-path="url(#p62498344fb)" style="fill: none; stroke: #1f77b4; stroke-width: 1.5"/>
    <path d="M 809.320399 233.208613 
L 809.320399 214.808991 
" clip-path="url(#p62498344fb)" style="fill: none; stroke: #1f77b4; stroke-width: 1.5"/>
    <path d="M 816.695122 230.955373 
L 816.695122 216.120379 
" clip-path="url(#p62498344fb)" style="fill: none; stroke: #1f77b4; stroke-width: 1.5"/>
   </g>
   <g id="LineCollection_2">
    <path d="M 86.597563 68.441763 
L 86.597563 67.553606 
" clip-path="url(#p62498344fb)" style="fill: none; stroke: #ff7f0e; stroke-width: 1.5"/>
    <path d="M 93.972286 129.432896 
L 93.972286 127.813468 
" clip-path="url(#p62498344fb)" style="fill: none; stroke: #ff7f0e; stroke-width: 1.5"/>
    <path d="M 101.347008 189.496987 
L 101.347008 187.12039 
" clip-path="url(#p62498344fb)" style="fill: none; stroke: #ff7f0e; stroke-width: 1.5"/>
    <path d="M 108.721731 250.7061 
L 108.721731 245.405167 
" clip-path="url(#p62498344fb)" style="fill: none; stroke: #ff7f0e; stroke-width: 1.5"/>
    <path d="M 116.096454 314.058177 
L 116.096454 305.659233 
" clip-path="url(#p62498344fb)" style="fill: none; stroke: #ff7f0e; stroke-width: 1.5"/>
    <path d="M 123.471177 365.691154 
L 123.471177 353.579058 
" clip-path="url(#p62498344fb)" style="fill: none; stroke: #ff7f0e; stroke-width: 1.5"/>
    <path d="M 130.8459 382.481741 
L 130.8459 366.219865 
" clip-path="url(#p62498344fb)" style="fill: none; stroke: #ff7f0e; stroke-width: 1.5"/>
    <path d="M 138.220622 367.139431 
L 138.220622 273.387993 
" clip-path="url(#p62498344fb)" style="fill: none; stroke: #ff7f0e; stroke-width: 1.5"/>
    <path d="M 145.595345 390.812208 
L 145.595345 327.686334 
" clip-path="url(#p62498344fb)" style="fill: none; stroke: #ff7f0e; stroke-width: 1.5"/>
    <path d="M 152.970068 386.510883 
L 152.970068 329.564352 
" clip-path="url(#p62498344fb)" style="fill: none; stroke: #ff7f0e; stroke-width: 1.5"/>
    <path d="M 160.344791 388.155509 
L 160.344791 334.493033 
" clip-path="url(#p62498344fb)" style="fill: none; stroke: #ff7f0e; stroke-width: 1.5"/>
    <path d="M 167.719514 433 
L 167.719514 309.710597 
" clip-path="url(#p62498344fb)" style="fill: none; stroke: #ff7f0e; stroke-width: 1.5"/>
    <path d="M 175.094237 433 
L 175.094237 291.970375 
" clip-path="url(#p62498344fb)" style="fill: none; stroke: #ff7f0e; stroke-width: 1.5"/>
    <path d="M 182.468959 433 
L 182.468959 290.354203 
" clip-path="url(#p62498344fb)" style="fill: none; stroke: #ff7f0e; stroke-width: 1.5"/>
    <path d="M 189.843682 433 
L 189.843682 291.843173 
" clip-path="url(#p62498344fb)" style="fill: none; stroke: #ff7f0e; stroke-width: 1.5"/>
    <path d="M 197.218405 389.722968 
L 197.218405 346.0793 
" clip-path="url(#p62498344fb)" style="fill: none; stroke: #ff7f0e; stroke-width: 1.5"/>
    <path d="M 204.593128 433 
L 204.593128 306.777914 
" clip-path="url(#p62498344fb)" style="fill: none; stroke: #ff7f0e; stroke-width: 1.5"/>
    <path d="M 211.967851 433 
L 211.967851 311.750132 
" clip-path="url(#p62498344fb)" style="fill: none; stroke: #ff7f0e; stroke-width: 1.5"/>
    <path d="M 219.342574 433 
L 219.342574 284.931319 
" clip-path="url(#p62498344fb)" style="fill: none; stroke: #ff7f0e; stroke-width: 1.5"/>
    <path d="M 226.717296 433 
L 226.717296 181.818107 
" clip-path="url(#p62498344fb)" style="fill: none; stroke: #ff7f0e; stroke-width: 1.5"/>
    <path d="M 234.092019 433 
L 234.092019 237.276271 
" clip-path="url(#p62498344fb)" style="fill: none; stroke: #ff7f0e; stroke-width: 1.5"/>
    <path d="M 241.466742 433 
L 241.466742 292.236236 
" clip-path="url(#p62498344fb)" style="fill: none; stroke: #ff7f0e; stroke-width: 1.5"/>
    <path d="M 248.841465 433 
L 248.841465 301.935598 
" clip-path="url(#p62498344fb)" style="fill: none; stroke: #ff7f0e; stroke-width: 1.5"/>
    <path d="M 256.216188 433 
L 256.216188 290.807965 
" clip-path="url(#p62498344fb)" style="fill: none; stroke: #ff7f0e; stroke-width: 1.5"/>
    <path d="M 263.59091 372.96286 
L 263.59091 334.461289 
" clip-path="url(#p62498344fb)" style="fill: none; stroke: #ff7f0e; stroke-width: 1.5"/>
    <path d="M 270.965633 385.648172 
L 270.965633 346.84632 
" clip-path="url(#p62498344fb)" style="fill: none; stroke: #ff7f0e; stroke-width: 1.5"/>
    <path d="M 278.340356 433 
L 278.340356 226.395146 
" clip-path="url(#p62498344fb)" style="fill: none; stroke: #ff7f0e; stroke-width: 1.5"/>
    <path d="M 285.715079 433 
L 285.715079 258.824085 
" clip-path="url(#p62498344fb)" style="fill: none; stroke: #ff7f0e; stroke-width: 1.5"/>
    <path d="M 293.089802 371.669839 
L 293.089802 311.375872 
" clip-path="url(#p62498344fb)" style="fill: none; stroke: #ff7f0e; stroke-width: 1.5"/>
    <path d="M 300.464525 377.222968 
L 300.464525 337.775709 
" clip-path="url(#p62498344fb)" style="fill: none; stroke: #ff7f0e; stroke-width: 1.5"/>
    <path d="M 307.839247 433 
L 307.839247 159.622828 
" clip-path="url(#p62498344fb)" style="fill: none; stroke: #ff7f0e; stroke-width: 1.5"/>
    <path d="M 315.21397 433 
L 315.21397 201.207884 
" clip-path="url(#p62498344fb)" style="fill: none; stroke: #ff7f0e; stroke-width: 1.5"/>
    <path d="M 322.588693 433 
L 322.588693 256.388843 
" clip-path="url(#p62498344fb)" style="fill: none; stroke: #ff7f0e; stroke-width: 1.5"/>
    <path d="M 329.963416 362.096441 
L 329.963416 280.464803 
" clip-path="url(#p62498344fb)" style="fill: none; stroke: #ff7f0e; stroke-width: 1.5"/>
    <path d="M 337.338139 370.664256 
L 337.338139 312.735901 
" clip-path="url(#p62498344fb)" style="fill: none; stroke: #ff7f0e; stroke-width: 1.5"/>
    <path d="M 344.712861 408.70339 
L 344.712861 334.05691 
" clip-path="url(#p62498344fb)" style="fill: none; stroke: #ff7f0e; stroke-width: 1.5"/>
    <path d="M 352.087584 361.423953 
L 352.087584 322.754759 
" clip-path="url(#p62498344fb)" style="fill: none; stroke: #ff7f0e; stroke-width: 1.5"/>
    <path d="M 359.462307 407.164061 
L 359.462307 349.364564 
" clip-path="url(#p62498344fb)" style="fill: none; stroke: #ff7f0e; stroke-width: 1.5"/>
    <path d="M 366.83703 433 
L 366.83703 61.705208 
" clip-path="url(#p62498344fb)" style="fill: none; stroke: #ff7f0e; stroke-width: 1.5"/>
    <path d="M 374.211753 433 
L 374.211753 122.507623 
" clip-path="url(#p62498344fb)" style="fill: none; stroke: #ff7f0e; stroke-width: 1.5"/>
    <path d="M 381.586476 433 
L 381.586476 181.277476 
" clip-path="url(#p62498344fb)" style="fill: none; stroke: #ff7f0e; stroke-width: 1.5"/>
    <path d="M 388.961198 433 
L 388.961198 239.048958 
" clip-path="url(#p62498344fb)" style="fill: none; stroke: #ff7f0e; stroke-width: 1.5"/>
    <path d="M 396.335921 433 
L 396.335921 286.819602 
" clip-path="url(#p62498344fb)" style="fill: none; stroke: #ff7f0e; stroke-width: 1.5"/>
    <path d="M 403.710644 433 
L 403.710644 283.928752 
" clip-path="url(#p62498344fb)" style="fill: none; stroke: #ff7f0e; stroke-width: 1.5"/>
    <path d="M 411.085367 389.683483 
L 411.085367 331.405981 
" clip-path="url(#p62498344fb)" style="fill: none; stroke: #ff7f0e; stroke-width: 1.5"/>
    <path d="M 418.46009 433 
L 418.46009 302.71855 
" clip-path="url(#p62498344fb)" style="fill: none; stroke: #ff7f0e; stroke-width: 1.5"/>
    <path d="M 425.834813 382.9949 
L 425.834813 330.477 
" clip-path="url(#p62498344fb)" style="fill: none; stroke: #ff7f0e; stroke-width: 1.5"/>
    <path d="M 433.209535 433 
L 433.209535 313.555506 
" clip-path="url(#p62498344fb)" style="fill: none; stroke: #ff7f0e; stroke-width: 1.5"/>
    <path d="M 440.584258 433 
L 440.584258 292.548328 
" clip-path="url(#p62498344fb)" style="fill: none; stroke: #ff7f0e; stroke-width: 1.5"/>
    <path d="M 447.958981 402.393378 
L 447.958981 321.012046 
" clip-path="url(#p62498344fb)" style="fill: none; stroke: #ff7f0e; stroke-width: 1.5"/>
    <path d="M 455.333704 411.461494 
L 455.333704 308.384703 
" clip-path="url(#p62498344fb)" style="fill: none; stroke: #ff7f0e; stroke-width: 1.5"/>
    <path d="M 462.708427 433 
L 462.708427 302.450027 
" clip-path="url(#p62498344fb)" style="fill: none; stroke: #ff7f0e; stroke-width: 1.5"/>
    <path d="M 470.083149 433 
L 470.083149 297.476232 
" clip-path="url(#p62498344fb)" style="fill: none; stroke: #ff7f0e; stroke-width: 1.5"/>
    <path d="M 477.457872 382.971118 
L 477.457872 316.034794 
" clip-path="url(#p62498344fb)" style="fill: none; stroke: #ff7f0e; stroke-width: 1.5"/>
    <path d="M 484.832595 373.496076 
L 484.832595 340.158239 
" clip-path="url(#p62498344fb)" style="fill: none; stroke: #ff7f0e; stroke-width: 1.5"/>
    <path d="M 492.207318 404.928923 
L 492.207318 325.056683 
" clip-path="url(#p62498344fb)" style="fill: none; stroke: #ff7f0e; stroke-width: 1.5"/>
    <path d="M 499.582041 433 
L 499.582041 239.488398 
" clip-path="url(#p62498344fb)" style="fill: none; stroke: #ff7f0e; stroke-width: 1.5"/>
    <path d="M 506.956764 433 
L 506.956764 293.806414 
" clip-path="url(#p62498344fb)" style="fill: none; stroke: #ff7f0e; stroke-width: 1.5"/>
    <path d="M 514.331486 433 
L 514.331486 300.775113 
" clip-path="url(#p62498344fb)" style="fill: none; stroke: #ff7f0e; stroke-width: 1.5"/>
    <path d="M 521.706209 433 
L 521.706209 228.289491 
" clip-path="url(#p62498344fb)" style="fill: none; stroke: #ff7f0e; stroke-width: 1.5"/>
    <path d="M 529.080932 361.617603 
L 529.080932 273.360098 
" clip-path="url(#p62498344fb)" style="fill: none; stroke: #ff7f0e; stroke-width: 1.5"/>
    <path d="M 536.455655 374.211414 
L 536.455655 326.069218 
" clip-path="url(#p62498344fb)" style="fill: none; stroke: #ff7f0e; stroke-width: 1.5"/>
    <path d="M 543.830378 433 
L 543.830378 278.216987 
" clip-path="url(#p62498344fb)" style="fill: none; stroke: #ff7f0e; stroke-width: 1.5"/>
    <path d="M 551.2051 433 
L 551.2051 276.924226 
" clip-path="url(#p62498344fb)" style="fill: none; stroke: #ff7f0e; stroke-width: 1.5"/>
    <path d="M 558.579823 392.549781 
L 558.579823 330.502965 
" clip-path="url(#p62498344fb)" style="fill: none; stroke: #ff7f0e; stroke-width: 1.5"/>
    <path d="M 565.954546 379.313398 
L 565.954546 326.149459 
" clip-path="url(#p62498344fb)" style="fill: none; stroke: #ff7f0e; stroke-width: 1.5"/>
    <path d="M 573.329269 389.982593 
L 573.329269 344.538808 
" clip-path="url(#p62498344fb)" style="fill: none; stroke: #ff7f0e; stroke-width: 1.5"/>
    <path d="M 580.703992 433 
L 580.703992 313.449696 
" clip-path="url(#p62498344fb)" style="fill: none; stroke: #ff7f0e; stroke-width: 1.5"/>
    <path d="M 588.078715 433 
L 588.078715 276.43441 
" clip-path="url(#p62498344fb)" style="fill: none; stroke: #ff7f0e; stroke-width: 1.5"/>
    <path d="M 595.453437 433 
L 595.453437 290.30128 
" clip-path="url(#p62498344fb)" style="fill: none; stroke: #ff7f0e; stroke-width: 1.5"/>
    <path d="M 602.82816 388.973675 
L 602.82816 311.289732 
" clip-path="url(#p62498344fb)" style="fill: none; stroke: #ff7f0e; stroke-width: 1.5"/>
    <path d="M 610.202883 375.351726 
L 610.202883 348.468758 
" clip-path="url(#p62498344fb)" style="fill: none; stroke: #ff7f0e; stroke-width: 1.5"/>
    <path d="M 617.577606 433 
L 617.577606 206.973971 
" clip-path="url(#p62498344fb)" style="fill: none; stroke: #ff7f0e; stroke-width: 1.5"/>
    <path d="M 624.952329 433 
L 624.952329 268.29304 
" clip-path="url(#p62498344fb)" style="fill: none; stroke: #ff7f0e; stroke-width: 1.5"/>
    <path d="M 632.327052 433 
L 632.327052 320.387566 
" clip-path="url(#p62498344fb)" style="fill: none; stroke: #ff7f0e; stroke-width: 1.5"/>
    <path d="M 639.701774 373.829241 
L 639.701774 326.205073 
" clip-path="url(#p62498344fb)" style="fill: none; stroke: #ff7f0e; stroke-width: 1.5"/>
    <path d="M 647.076497 433 
L 647.076497 280.520041 
" clip-path="url(#p62498344fb)" style="fill: none; stroke: #ff7f0e; stroke-width: 1.5"/>
    <path d="M 654.45122 433 
L 654.45122 262.687343 
" clip-path="url(#p62498344fb)" style="fill: none; stroke: #ff7f0e; stroke-width: 1.5"/>
    <path d="M 661.825943 419.938748 
L 661.825943 315.285931 
" clip-path="url(#p62498344fb)" style="fill: none; stroke: #ff7f0e; stroke-width: 1.5"/>
    <path d="M 669.200666 433 
L 669.200666 262.199402 
" clip-path="url(#p62498344fb)" style="fill: none; stroke: #ff7f0e; stroke-width: 1.5"/>
    <path d="M 676.575388 386.290149 
L 676.575388 293.149566 
" clip-path="url(#p62498344fb)" style="fill: none; stroke: #ff7f0e; stroke-width: 1.5"/>
    <path d="M 683.950111 433 
L 683.950111 287.863746 
" clip-path="url(#p62498344fb)" style="fill: none; stroke: #ff7f0e; stroke-width: 1.5"/>
    <path d="M 691.324834 410.260732 
L 691.324834 321.545792 
" clip-path="url(#p62498344fb)" style="fill: none; stroke: #ff7f0e; stroke-width: 1.5"/>
    <path d="M 698.699557 372.069474 
L 698.699557 334.606225 
" clip-path="url(#p62498344fb)" style="fill: none; stroke: #ff7f0e; stroke-width: 1.5"/>
    <path d="M 706.07428 433 
L 706.07428 303.091045 
" clip-path="url(#p62498344fb)" style="fill: none; stroke: #ff7f0e; stroke-width: 1.5"/>
    <path d="M 713.449003 433 
L 713.449003 265.756618 
" clip-path="url(#p62498344fb)" style="fill: none; stroke: #ff7f0e; stroke-width: 1.5"/>
    <path d="M 720.823725 397.343218 
L 720.823725 320.602614 
" clip-path="url(#p62498344fb)" style="fill: none; stroke: #ff7f0e; stroke-width: 1.5"/>
    <path d="M 728.198448 433 
L 728.198448 204.575843 
" clip-path="url(#p62498344fb)" style="fill: none; stroke: #ff7f0e; stroke-width: 1.5"/>
    <path d="M 735.573171 433 
L 735.573171 256.413931 
" clip-path="url(#p62498344fb)" style="fill: none; stroke: #ff7f0e; stroke-width: 1.5"/>
    <path d="M 742.947894 433 
L 742.947894 246.276449 
" clip-path="url(#p62498344fb)" style="fill: none; stroke: #ff7f0e; stroke-width: 1.5"/>
    <path d="M 750.322617 433 
L 750.322617 280.098823 
" clip-path="url(#p62498344fb)" style="fill: none; stroke: #ff7f0e; stroke-width: 1.5"/>
    <path d="M 757.697339 433 
L 757.697339 288.778771 
" clip-path="url(#p62498344fb)" style="fill: none; stroke: #ff7f0e; stroke-width: 1.5"/>
    <path d="M 765.072062 433 
L 765.072062 313.132855 
" clip-path="url(#p62498344fb)" style="fill: none; stroke: #ff7f0e; stroke-width: 1.5"/>
    <path d="M 772.446785 433 
L 772.446785 245.425378 
" clip-path="url(#p62498344fb)" style="fill: none; stroke: #ff7f0e; stroke-width: 1.5"/>
    <path d="M 779.821508 433 
L 779.821508 301.275793 
" clip-path="url(#p62498344fb)" style="fill: none; stroke: #ff7f0e; stroke-width: 1.5"/>
    <path d="M 787.196231 433 
L 787.196231 44.761818 
" clip-path="url(#p62498344fb)" style="fill: none; stroke: #ff7f0e; stroke-width: 1.5"/>
    <path d="M 794.570954 433 
L 794.570954 105.272698 
" clip-path="url(#p62498344fb)" style="fill: none; stroke: #ff7f0e; stroke-width: 1.5"/>
    <path d="M 801.945676 433 
L 801.945676 164.925399 
" clip-path="url(#p62498344fb)" style="fill: none; stroke: #ff7f0e; stroke-width: 1.5"/>
    <path d="M 809.320399 433 
L 809.320399 229.70337 
" clip-path="url(#p62498344fb)" style="fill: none; stroke: #ff7f0e; stroke-width: 1.5"/>
    <path d="M 816.695122 433 
L 816.695122 279.711548 
" clip-path="url(#p62498344fb)" style="fill: none; stroke: #ff7f0e; stroke-width: 1.5"/>
   </g>
   <g id="line2d_37">
    <path d="M 86.597563 67.77713 
L 93.972286 68.280726 
L 101.347008 68.128478 
L 108.721731 68.631869 
L 116.096454 68.744829 
L 123.471177 68.793096 
L 130.8459 68.946664 
L 138.220622 69.125685 
L 145.595345 69.452867 
L 152.970068 69.516299 
L 160.344791 69.623854 
L 167.719514 69.924282 
L 175.094237 70.206271 
L 182.468959 70.554663 
L 189.843682 70.621767 
L 197.218405 70.8379 
L 204.593128 71.202379 
L 211.967851 71.761428 
L 219.342574 72.244875 
L 226.717296 72.406899 
L 234.092019 72.977784 
L 241.466742 73.739916 
L 248.841465 75.02329 
L 256.216188 76.601858 
L 263.59091 78.831642 
L 270.965633 80.245466 
L 278.340356 83.017628 
L 285.715079 86.764358 
L 293.089802 92.637524 
L 300.464525 97.001888 
L 307.839247 101.386069 
L 315.21397 107.62735 
L 322.588693 113.62988 
L 329.963416 121.615267 
L 337.338139 123.477445 
L 344.712861 127.940479 
L 352.087584 135.252006 
L 359.462307 140.06393 
L 366.83703 148.089436 
L 374.211753 149.84644 
L 381.586476 155.93869 
L 388.961198 158.755461 
L 396.335921 167.460345 
L 403.710644 170.307097 
L 411.085367 172.370138 
L 418.46009 179.473968 
L 425.834813 182.825515 
L 433.209535 186.390373 
L 440.584258 192.589881 
L 447.958981 190.275926 
L 455.333704 194.355565 
L 462.708427 199.612538 
L 470.083149 201.461617 
L 477.457872 205.900281 
L 484.832595 209.074269 
L 492.207318 203.125148 
L 499.582041 213.423618 
L 506.956764 208.431262 
L 514.331486 214.14281 
L 521.706209 213.487969 
L 529.080932 217.047128 
L 536.455655 218.662453 
L 543.830378 215.027596 
L 551.2051 218.36297 
L 558.579823 219.520709 
L 565.954546 222.028917 
L 573.329269 220.43759 
L 580.703992 219.467229 
L 588.078715 219.372814 
L 595.453437 220.25489 
L 602.82816 224.033752 
L 610.202883 225.400252 
L 617.577606 224.654578 
L 624.952329 225.587658 
L 632.327052 221.618096 
L 639.701774 221.357259 
L 647.076497 224.675285 
L 654.45122 226.112098 
L 661.825943 222.83451 
L 669.200666 222.178721 
L 676.575388 226.010775 
L 683.950111 224.67285 
L 691.324834 223.335438 
L 698.699557 223.317474 
L 706.07428 222.145763 
L 713.449003 226.759375 
L 720.823725 222.875291 
L 728.198448 226.417498 
L 735.573171 227.026975 
L 742.947894 221.092934 
L 750.322617 229.534776 
L 757.697339 221.448374 
L 765.072062 227.340286 
L 772.446785 225.560651 
L 779.821508 226.165371 
L 787.196231 220.014245 
L 794.570954 225.487376 
L 801.945676 227.604294 
L 809.320399 223.046835 
L 816.695122 222.910935 
" clip-path="url(#p62498344fb)" style="fill: none; stroke: #1f77b4; stroke-width: 1.5; stroke-linecap: square"/>
   </g>
   <g id="line2d_38">
    <path d="M 86.597563 67.995427 
L 93.972286 128.615675 
L 101.347008 188.292523 
L 108.721731 247.97525 
L 116.096454 309.657096 
L 123.471177 359.216525 
L 130.8459 373.598182 
L 138.220622 298.831371 
L 145.595345 348.716523 
L 152.970068 349.34675 
L 160.344791 353.553292 
L 167.719514 340.595553 
L 175.094237 331.69881 
L 182.468959 323.806769 
L 189.843682 324.31434 
L 197.218405 362.661795 
L 204.593128 338.705652 
L 211.967851 344.343091 
L 219.342574 317.500676 
L 226.717296 239.686462 
L 234.092019 280.686431 
L 241.466742 327.991958 
L 248.841465 335.386382 
L 256.216188 321.337189 
L 263.59091 349.599651 
L 270.965633 362.072402 
L 278.340356 279.906397 
L 285.715079 296.13158 
L 293.089802 331.851682 
L 300.464525 353.188888 
L 307.839247 218.363462 
L 315.21397 245.776739 
L 322.588693 292.174369 
L 329.963416 304.470591 
L 337.338139 332.726062 
L 344.712861 357.062075 
L 352.087584 337.942141 
L 359.462307 369.327666 
L 366.83703 122.029111 
L 374.211753 182.020002 
L 381.586476 237.689665 
L 388.961198 290.884026 
L 396.335921 318.802655 
L 403.710644 317.497271 
L 411.085367 351.46914 
L 418.46009 332.340865 
L 425.834813 349.275501 
L 433.209535 344.091422 
L 440.584258 326.780489 
L 447.958981 344.984304 
L 455.333704 334.715594 
L 462.708427 334.037854 
L 470.083149 330.112561 
L 477.457872 337.766406 
L 484.832595 353.720241 
L 492.207318 348.82323 
L 499.582041 287.534626 
L 506.956764 329.46288 
L 514.331486 333.175124 
L 521.706209 270.594771 
L 529.080932 298.195188 
L 536.455655 343.817244 
L 543.830378 322.948129 
L 551.2051 308.140068 
L 558.579823 351.32532 
L 565.954546 345.096355 
L 573.329269 361.598391 
L 580.703992 342.305369 
L 588.078715 308.165573 
L 595.453437 320.001484 
L 602.82816 334.746898 
L 610.202883 359.873472 
L 617.577606 259.818827 
L 624.952329 310.617173 
L 632.327052 349.157648 
L 639.701774 343.823385 
L 647.076497 324.843236 
L 654.45122 304.457486 
L 661.825943 341.750527 
L 669.200666 309.696783 
L 676.575388 318.528629 
L 683.950111 319.185271 
L 691.324834 346.434162 
L 698.699557 349.437965 
L 706.07428 336.211886 
L 713.449003 301.464487 
L 720.823725 343.922258 
L 728.198448 258.943 
L 735.573171 290.655817 
L 742.947894 292.019797 
L 750.322617 310.178913 
L 757.697339 321.878039 
L 765.072062 341.020916 
L 772.446785 282.260192 
L 779.821508 334.377816 
L 787.196231 105.11679 
L 794.570954 165.401216 
L 801.945676 223.697826 
L 809.320399 281.552489 
L 816.695122 320.162073 
" clip-path="url(#p62498344fb)" style="fill: none; stroke: #ff7f0e; stroke-width: 1.5; stroke-linecap: square"/>
   </g>
   <g id="patch_3">
    <path d="M 50.092685 390.04 
L 50.092685 28.32 
" style="fill: none; stroke: #000000; stroke-width: 0.8; stroke-linejoin: miter; stroke-linecap: square"/>
   </g>
   <g id="patch_4">
    <path d="M 853.2 390.04 
L 853.2 28.32 
" style="fill: none; stroke: #000000; stroke-width: 0.8; stroke-linejoin: miter; stroke-linecap: square"/>
   </g>
   <g id="patch_5">
    <path d="M 50.092685 390.04 
L 853.2 390.04 
" style="fill: none; stroke: #000000; stroke-width: 0.8; stroke-linejoin: miter; stroke-linecap: square"/>
   </g>
   <g id="patch_6">
    <path d="M 50.092685 28.32 
L 853.2 28.32 
" style="fill: none; stroke: #000000; stroke-width: 0.8; stroke-linejoin: miter; stroke-linecap: square"/>
   </g>
   <g id="text_12">
    <!-- Minibatch SGD Constant ($\alpha=1.0e-03$) vs Polyak Step Size with $N=25$, 10 runs each) -->
    <g transform="translate(191.126342 22.32) scale(0.12 -0.12)">
     <defs>
      <path id="DejaVuSans-4d" d="M 628 4666 
L 1569 4666 
L 2759 1491 
L 3956 4666 
L 4897 4666 
L 4897 0 
L 4281 0 
L 4281 4097 
L 3078 897 
L 2444 897 
L 1241 4097 
L 1241 0 
L 628 0 
L 628 4666 
z
" transform="scale(0.015625)"/>
      <path id="DejaVuSans-62" d="M 3116 1747 
Q 3116 2381 2855 2742 
Q 2594 3103 2138 3103 
Q 1681 3103 1420 2742 
Q 1159 2381 1159 1747 
Q 1159 1113 1420 752 
Q 1681 391 2138 391 
Q 2594 391 2855 752 
Q 3116 1113 3116 1747 
z
M 1159 2969 
Q 1341 3281 1617 3432 
Q 1894 3584 2278 3584 
Q 2916 3584 3314 3078 
Q 3713 2572 3713 1747 
Q 3713 922 3314 415 
Q 2916 -91 2278 -91 
Q 1894 -91 1617 61 
Q 1341 213 1159 525 
L 1159 0 
L 581 0 
L 581 4863 
L 1159 4863 
L 1159 2969 
z
" transform="scale(0.015625)"/>
      <path id="DejaVuSans-68" d="M 3513 2113 
L 3513 0 
L 2938 0 
L 2938 2094 
Q 2938 2591 2744 2837 
Q 2550 3084 2163 3084 
Q 1697 3084 1428 2787 
Q 1159 2491 1159 1978 
L 1159 0 
L 581 0 
L 581 4863 
L 1159 4863 
L 1159 2956 
Q 1366 3272 1645 3428 
Q 1925 3584 2291 3584 
Q 2894 3584 3203 3211 
Q 3513 2838 3513 2113 
z
" transform="scale(0.015625)"/>
      <path id="DejaVuSans-53" d="M 3425 4513 
L 3425 3897 
Q 3066 4069 2747 4153 
Q 2428 4238 2131 4238 
Q 1616 4238 1336 4038 
Q 1056 3838 1056 3469 
Q 1056 3159 1242 3001 
Q 1428 2844 1947 2747 
L 2328 2669 
Q 3034 2534 3370 2195 
Q 3706 1856 3706 1288 
Q 3706 609 3251 259 
Q 2797 -91 1919 -91 
Q 1588 -91 1214 -16 
Q 841 59 441 206 
L 441 856 
Q 825 641 1194 531 
Q 1563 422 1919 422 
Q 2459 422 2753 634 
Q 3047 847 3047 1241 
Q 3047 1584 2836 1778 
Q 2625 1972 2144 2069 
L 1759 2144 
Q 1053 2284 737 2584 
Q 422 2884 422 3419 
Q 422 4038 858 4394 
Q 1294 4750 2059 4750 
Q 2388 4750 2728 4690 
Q 3069 4631 3425 4513 
z
" transform="scale(0.015625)"/>
      <path id="DejaVuSans-47" d="M 3809 666 
L 3809 1919 
L 2778 1919 
L 2778 2438 
L 4434 2438 
L 4434 434 
Q 4069 175 3628 42 
Q 3188 -91 2688 -91 
Q 1594 -91 976 548 
Q 359 1188 359 2328 
Q 359 3472 976 4111 
Q 1594 4750 2688 4750 
Q 3144 4750 3555 4637 
Q 3966 4525 4313 4306 
L 4313 3634 
Q 3963 3931 3569 4081 
Q 3175 4231 2741 4231 
Q 1884 4231 1454 3753 
Q 1025 3275 1025 2328 
Q 1025 1384 1454 906 
Q 1884 428 2741 428 
Q 3075 428 3337 486 
Q 3600 544 3809 666 
z
" transform="scale(0.015625)"/>
      <path id="DejaVuSans-44" d="M 1259 4147 
L 1259 519 
L 2022 519 
Q 2988 519 3436 956 
Q 3884 1394 3884 2338 
Q 3884 3275 3436 3711 
Q 2988 4147 2022 4147 
L 1259 4147 
z
M 628 4666 
L 1925 4666 
Q 3281 4666 3915 4102 
Q 4550 3538 4550 2338 
Q 4550 1131 3912 565 
Q 3275 0 1925 0 
L 628 0 
L 628 4666 
z
" transform="scale(0.015625)"/>
      <path id="DejaVuSans-43" d="M 4122 4306 
L 4122 3641 
Q 3803 3938 3442 4084 
Q 3081 4231 2675 4231 
Q 1875 4231 1450 3742 
Q 1025 3253 1025 2328 
Q 1025 1406 1450 917 
Q 1875 428 2675 428 
Q 3081 428 3442 575 
Q 3803 722 4122 1019 
L 4122 359 
Q 3791 134 3420 21 
Q 3050 -91 2638 -91 
Q 1578 -91 968 557 
Q 359 1206 359 2328 
Q 359 3453 968 4101 
Q 1578 4750 2638 4750 
Q 3056 4750 3426 4639 
Q 3797 4528 4122 4306 
z
" transform="scale(0.015625)"/>
      <path id="DejaVuSans-28" d="M 1984 4856 
Q 1566 4138 1362 3434 
Q 1159 2731 1159 2009 
Q 1159 1288 1364 580 
Q 1569 -128 1984 -844 
L 1484 -844 
Q 1016 -109 783 600 
Q 550 1309 550 2009 
Q 550 2706 781 3412 
Q 1013 4119 1484 4856 
L 1984 4856 
z
" transform="scale(0.015625)"/>
      <path id="DejaVuSans-Oblique-3b1" d="M 2619 1628 
L 2622 2350 
Q 2625 3088 2069 3091 
Q 1653 3094 1394 2747 
Q 1069 2319 959 1747 
Q 825 1059 994 731 
Q 1169 397 1547 397 
Q 1966 397 2319 1063 
L 2619 1628 
z
M 2166 3578 
Q 3141 3594 3128 2584 
Q 3128 2584 3616 3500 
L 4128 3500 
L 3119 1603 
L 3109 919 
Q 3109 766 3194 638 
Q 3291 488 3391 488 
L 3669 488 
L 3575 0 
L 3228 0 
Q 2934 0 2722 263 
Q 2622 394 2619 669 
Q 2416 334 2066 50 
Q 1900 -81 1453 -78 
Q 722 -72 456 397 
Q 184 884 353 1747 
Q 534 2675 1009 3097 
Q 1544 3569 2166 3578 
z
" transform="scale(0.015625)"/>
      <path id="DejaVuSans-3d" d="M 678 2906 
L 4684 2906 
L 4684 2381 
L 678 2381 
L 678 2906 
z
M 678 1631 
L 4684 1631 
L 4684 1100 
L 678 1100 
L 678 1631 
z
" transform="scale(0.015625)"/>
      <path id="DejaVuSans-Oblique-65" d="M 3078 2063 
Q 3088 2113 3092 2166 
Q 3097 2219 3097 2272 
Q 3097 2653 2873 2875 
Q 2650 3097 2266 3097 
Q 1838 3097 1509 2826 
Q 1181 2556 1013 2059 
L 3078 2063 
z
M 3578 1613 
L 903 1613 
Q 884 1494 878 1425 
Q 872 1356 872 1306 
Q 872 872 1139 634 
Q 1406 397 1894 397 
Q 2269 397 2603 481 
Q 2938 566 3225 728 
L 3116 159 
Q 2806 34 2476 -28 
Q 2147 -91 1806 -91 
Q 1078 -91 686 257 
Q 294 606 294 1247 
Q 294 1794 489 2264 
Q 684 2734 1063 3103 
Q 1306 3334 1642 3459 
Q 1978 3584 2356 3584 
Q 2950 3584 3301 3228 
Q 3653 2872 3653 2272 
Q 3653 2128 3634 1964 
Q 3616 1800 3578 1613 
z
" transform="scale(0.015625)"/>
      <path id="DejaVuSans-2212" d="M 678 2272 
L 4684 2272 
L 4684 1741 
L 678 1741 
L 678 2272 
z
" transform="scale(0.015625)"/>
      <path id="DejaVuSans-33" d="M 2597 2516 
Q 3050 2419 3304 2112 
Q 3559 1806 3559 1356 
Q 3559 666 3084 287 
Q 2609 -91 1734 -91 
Q 1441 -91 1130 -33 
Q 819 25 488 141 
L 488 750 
Q 750 597 1062 519 
Q 1375 441 1716 441 
Q 2309 441 2620 675 
Q 2931 909 2931 1356 
Q 2931 1769 2642 2001 
Q 2353 2234 1838 2234 
L 1294 2234 
L 1294 2753 
L 1863 2753 
Q 2328 2753 2575 2939 
Q 2822 3125 2822 3475 
Q 2822 3834 2567 4026 
Q 2313 4219 1838 4219 
Q 1578 4219 1281 4162 
Q 984 4106 628 3988 
L 628 4550 
Q 988 4650 1302 4700 
Q 1616 4750 1894 4750 
Q 2613 4750 3031 4423 
Q 3450 4097 3450 3541 
Q 3450 3153 3228 2886 
Q 3006 2619 2597 2516 
z
" transform="scale(0.015625)"/>
      <path id="DejaVuSans-29" d="M 513 4856 
L 1013 4856 
Q 1481 4119 1714 3412 
Q 1947 2706 1947 2009 
Q 1947 1309 1714 600 
Q 1481 -109 1013 -844 
L 513 -844 
Q 928 -128 1133 580 
Q 1338 1288 1338 2009 
Q 1338 2731 1133 3434 
Q 928 4138 513 4856 
z
" transform="scale(0.015625)"/>
      <path id="DejaVuSans-76" d="M 191 3500 
L 800 3500 
L 1894 563 
L 2988 3500 
L 3597 3500 
L 2284 0 
L 1503 0 
L 191 3500 
z
" transform="scale(0.015625)"/>
      <path id="DejaVuSans-50" d="M 1259 4147 
L 1259 2394 
L 2053 2394 
Q 2494 2394 2734 2622 
Q 2975 2850 2975 3272 
Q 2975 3691 2734 3919 
Q 2494 4147 2053 4147 
L 1259 4147 
z
M 628 4666 
L 2053 4666 
Q 2838 4666 3239 4311 
Q 3641 3956 3641 3272 
Q 3641 2581 3239 2228 
Q 2838 1875 2053 1875 
L 1259 1875 
L 1259 0 
L 628 0 
L 628 4666 
z
" transform="scale(0.015625)"/>
      <path id="DejaVuSans-79" d="M 2059 -325 
Q 1816 -950 1584 -1140 
Q 1353 -1331 966 -1331 
L 506 -1331 
L 506 -850 
L 844 -850 
Q 1081 -850 1212 -737 
Q 1344 -625 1503 -206 
L 1606 56 
L 191 3500 
L 800 3500 
L 1894 763 
L 2988 3500 
L 3597 3500 
L 2059 -325 
z
" transform="scale(0.015625)"/>
      <path id="DejaVuSans-6b" d="M 581 4863 
L 1159 4863 
L 1159 1991 
L 2875 3500 
L 3609 3500 
L 1753 1863 
L 3688 0 
L 2938 0 
L 1159 1709 
L 1159 0 
L 581 0 
L 581 4863 
z
" transform="scale(0.015625)"/>
      <path id="DejaVuSans-70" d="M 1159 525 
L 1159 -1331 
L 581 -1331 
L 581 3500 
L 1159 3500 
L 1159 2969 
Q 1341 3281 1617 3432 
Q 1894 3584 2278 3584 
Q 2916 3584 3314 3078 
Q 3713 2572 3713 1747 
Q 3713 922 3314 415 
Q 2916 -91 2278 -91 
Q 1894 -91 1617 61 
Q 1341 213 1159 525 
z
M 3116 1747 
Q 3116 2381 2855 2742 
Q 2594 3103 2138 3103 
Q 1681 3103 1420 2742 
Q 1159 2381 1159 1747 
Q 1159 1113 1420 752 
Q 1681 391 2138 391 
Q 2594 391 2855 752 
Q 3116 1113 3116 1747 
z
" transform="scale(0.015625)"/>
      <path id="DejaVuSans-7a" d="M 353 3500 
L 3084 3500 
L 3084 2975 
L 922 459 
L 3084 459 
L 3084 0 
L 275 0 
L 275 525 
L 2438 3041 
L 353 3041 
L 353 3500 
z
" transform="scale(0.015625)"/>
      <path id="DejaVuSans-77" d="M 269 3500 
L 844 3500 
L 1563 769 
L 2278 3500 
L 2956 3500 
L 3675 769 
L 4391 3500 
L 4966 3500 
L 4050 0 
L 3372 0 
L 2619 2869 
L 1863 0 
L 1184 0 
L 269 3500 
z
" transform="scale(0.015625)"/>
      <path id="DejaVuSans-Oblique-4e" d="M 1081 4666 
L 1931 4666 
L 3219 666 
L 4000 4666 
L 4616 4666 
L 3706 0 
L 2853 0 
L 1569 4025 
L 788 0 
L 172 0 
L 1081 4666 
z
" transform="scale(0.015625)"/>
      <path id="DejaVuSans-35" d="M 691 4666 
L 3169 4666 
L 3169 4134 
L 1269 4134 
L 1269 2991 
Q 1406 3038 1543 3061 
Q 1681 3084 1819 3084 
Q 2600 3084 3056 2656 
Q 3513 2228 3513 1497 
Q 3513 744 3044 326 
Q 2575 -91 1722 -91 
Q 1428 -91 1123 -41 
Q 819 9 494 109 
L 494 744 
Q 775 591 1075 516 
Q 1375 441 1709 441 
Q 2250 441 2565 725 
Q 2881 1009 2881 1497 
Q 2881 1984 2565 2268 
Q 2250 2553 1709 2553 
Q 1456 2553 1204 2497 
Q 953 2441 691 2322 
L 691 4666 
z
" transform="scale(0.015625)"/>
      <path id="DejaVuSans-2c" d="M 750 794 
L 1409 794 
L 1409 256 
L 897 -744 
L 494 -744 
L 750 256 
L 750 794 
z
" transform="scale(0.015625)"/>
     </defs>
     <use xlink:href="#DejaVuSans-4d" transform="translate(0 0.015625)"/>
     <use xlink:href="#DejaVuSans-69" transform="translate(86.279297 0.015625)"/>
     <use xlink:href="#DejaVuSans-6e" transform="translate(114.0625 0.015625)"/>
     <use xlink:href="#DejaVuSans-69" transform="translate(177.441406 0.015625)"/>
     <use xlink:href="#DejaVuSans-62" transform="translate(205.224609 0.015625)"/>
     <use xlink:href="#DejaVuSans-61" transform="translate(268.701172 0.015625)"/>
     <use xlink:href="#DejaVuSans-74" transform="translate(329.980469 0.015625)"/>
     <use xlink:href="#DejaVuSans-63" transform="translate(369.189453 0.015625)"/>
     <use xlink:href="#DejaVuSans-68" transform="translate(424.169922 0.015625)"/>
     <use xlink:href="#DejaVuSans-20" transform="translate(487.548828 0.015625)"/>
     <use xlink:href="#DejaVuSans-53" transform="translate(519.335938 0.015625)"/>
     <use xlink:href="#DejaVuSans-47" transform="translate(582.8125 0.015625)"/>
     <use xlink:href="#DejaVuSans-44" transform="translate(660.302734 0.015625)"/>
     <use xlink:href="#DejaVuSans-20" transform="translate(737.304688 0.015625)"/>
     <use xlink:href="#DejaVuSans-43" transform="translate(769.091797 0.015625)"/>
     <use xlink:href="#DejaVuSans-6f" transform="translate(838.916016 0.015625)"/>
     <use xlink:href="#DejaVuSans-6e" transform="translate(900.097656 0.015625)"/>
     <use xlink:href="#DejaVuSans-73" transform="translate(963.476562 0.015625)"/>
     <use xlink:href="#DejaVuSans-74" transform="translate(1015.576172 0.015625)"/>
     <use xlink:href="#DejaVuSans-61" transform="translate(1054.785156 0.015625)"/>
     <use xlink:href="#DejaVuSans-6e" transform="translate(1116.064453 0.015625)"/>
     <use xlink:href="#DejaVuSans-74" transform="translate(1179.443359 0.015625)"/>
     <use xlink:href="#DejaVuSans-20" transform="translate(1218.652344 0.015625)"/>
     <use xlink:href="#DejaVuSans-28" transform="translate(1250.439453 0.015625)"/>
     <use xlink:href="#DejaVuSans-Oblique-3b1" transform="translate(1289.453125 0.015625)"/>
     <use xlink:href="#DejaVuSans-3d" transform="translate(1374.853516 0.015625)"/>
     <use xlink:href="#DejaVuSans-31" transform="translate(1478.125 0.015625)"/>
     <use xlink:href="#DejaVuSans-2e" transform="translate(1541.748047 0.015625)"/>
     <use xlink:href="#DejaVuSans-30" transform="translate(1573.535156 0.015625)"/>
     <use xlink:href="#DejaVuSans-Oblique-65" transform="translate(1637.158203 0.015625)"/>
     <use xlink:href="#DejaVuSans-2212" transform="translate(1718.164062 0.015625)"/>
     <use xlink:href="#DejaVuSans-30" transform="translate(1821.435547 0.015625)"/>
     <use xlink:href="#DejaVuSans-33" transform="translate(1885.058594 0.015625)"/>
     <use xlink:href="#DejaVuSans-29" transform="translate(1948.681641 0.015625)"/>
     <use xlink:href="#DejaVuSans-20" transform="translate(1987.695312 0.015625)"/>
     <use xlink:href="#DejaVuSans-76" transform="translate(2019.482422 0.015625)"/>
     <use xlink:href="#DejaVuSans-73" transform="translate(2078.662109 0.015625)"/>
     <use xlink:href="#DejaVuSans-20" transform="translate(2130.761719 0.015625)"/>
     <use xlink:href="#DejaVuSans-50" transform="translate(2162.548828 0.015625)"/>
     <use xlink:href="#DejaVuSans-6f" transform="translate(2222.851562 0.015625)"/>
     <use xlink:href="#DejaVuSans-6c" transform="translate(2284.033203 0.015625)"/>
     <use xlink:href="#DejaVuSans-79" transform="translate(2311.816406 0.015625)"/>
     <use xlink:href="#DejaVuSans-61" transform="translate(2370.996094 0.015625)"/>
     <use xlink:href="#DejaVuSans-6b" transform="translate(2432.275391 0.015625)"/>
     <use xlink:href="#DejaVuSans-20" transform="translate(2490.185547 0.015625)"/>
     <use xlink:href="#DejaVuSans-53" transform="translate(2521.972656 0.015625)"/>
     <use xlink:href="#DejaVuSans-74" transform="translate(2585.449219 0.015625)"/>
     <use xlink:href="#DejaVuSans-65" transform="translate(2624.658203 0.015625)"/>
     <use xlink:href="#DejaVuSans-70" transform="translate(2686.181641 0.015625)"/>
     <use xlink:href="#DejaVuSans-20" transform="translate(2749.658203 0.015625)"/>
     <use xlink:href="#DejaVuSans-53" transform="translate(2781.445312 0.015625)"/>
     <use xlink:href="#DejaVuSans-69" transform="translate(2844.921875 0.015625)"/>
     <use xlink:href="#DejaVuSans-7a" transform="translate(2872.705078 0.015625)"/>
     <use xlink:href="#DejaVuSans-65" transform="translate(2925.195312 0.015625)"/>
     <use xlink:href="#DejaVuSans-20" transform="translate(2986.71875 0.015625)"/>
     <use xlink:href="#DejaVuSans-77" transform="translate(3018.505859 0.015625)"/>
     <use xlink:href="#DejaVuSans-69" transform="translate(3100.292969 0.015625)"/>
     <use xlink:href="#DejaVuSans-74" transform="translate(3128.076172 0.015625)"/>
     <use xlink:href="#DejaVuSans-68" transform="translate(3167.285156 0.015625)"/>
     <use xlink:href="#DejaVuSans-20" transform="translate(3230.664062 0.015625)"/>
     <use xlink:href="#DejaVuSans-Oblique-4e" transform="translate(3262.451172 0.015625)"/>
     <use xlink:href="#DejaVuSans-3d" transform="translate(3356.738281 0.015625)"/>
     <use xlink:href="#DejaVuSans-32" transform="translate(3460.009766 0.015625)"/>
     <use xlink:href="#DejaVuSans-35" transform="translate(3523.632812 0.015625)"/>
     <use xlink:href="#DejaVuSans-2c" transform="translate(3587.255859 0.015625)"/>
     <use xlink:href="#DejaVuSans-20" transform="translate(3619.042969 0.015625)"/>
     <use xlink:href="#DejaVuSans-31" transform="translate(3650.830078 0.015625)"/>
     <use xlink:href="#DejaVuSans-30" transform="translate(3714.453125 0.015625)"/>
     <use xlink:href="#DejaVuSans-20" transform="translate(3778.076172 0.015625)"/>
     <use xlink:href="#DejaVuSans-72" transform="translate(3809.863281 0.015625)"/>
     <use xlink:href="#DejaVuSans-75" transform="translate(3850.976562 0.015625)"/>
     <use xlink:href="#DejaVuSans-6e" transform="translate(3914.355469 0.015625)"/>
     <use xlink:href="#DejaVuSans-73" transform="translate(3977.734375 0.015625)"/>
     <use xlink:href="#DejaVuSans-20" transform="translate(4029.833984 0.015625)"/>
     <use xlink:href="#DejaVuSans-65" transform="translate(4061.621094 0.015625)"/>
     <use xlink:href="#DejaVuSans-61" transform="translate(4123.144531 0.015625)"/>
     <use xlink:href="#DejaVuSans-63" transform="translate(4184.423828 0.015625)"/>
     <use xlink:href="#DejaVuSans-68" transform="translate(4239.404297 0.015625)"/>
     <use xlink:href="#DejaVuSans-29" transform="translate(4302.783203 0.015625)"/>
    </g>
   </g>
   <g id="legend_1">
    <g id="patch_7">
     <path d="M 718.5 65.67625 
L 846.2 65.67625 
Q 848.2 65.67625 848.2 63.67625 
L 848.2 35.32 
Q 848.2 33.32 846.2 33.32 
L 718.5 33.32 
Q 716.5 33.32 716.5 35.32 
L 716.5 63.67625 
Q 716.5 65.67625 718.5 65.67625 
z
" style="fill: #ffffff; opacity: 0.8; stroke: #cccccc; stroke-linejoin: miter"/>
    </g>
    <g id="LineCollection_3">
     <path d="M 730.5 46.418437 
L 730.5 36.418437 
" style="fill: none; stroke: #1f77b4; stroke-width: 1.5"/>
    </g>
    <g id="line2d_39">
     <path d="M 720.5 41.418437 
L 740.5 41.418437 
" style="fill: none; stroke: #1f77b4; stroke-width: 1.5; stroke-linecap: square"/>
    </g>
    <g id="line2d_40"/>
    <g id="text_13">
     <!-- Constant $\alpha = 0.001$ -->
     <g transform="translate(748.5 44.918437) scale(0.1 -0.1)">
      <use xlink:href="#DejaVuSans-43" transform="translate(0 0.78125)"/>
      <use xlink:href="#DejaVuSans-6f" transform="translate(69.824219 0.78125)"/>
      <use xlink:href="#DejaVuSans-6e" transform="translate(131.005859 0.78125)"/>
      <use xlink:href="#DejaVuSans-73" transform="translate(194.384766 0.78125)"/>
      <use xlink:href="#DejaVuSans-74" transform="translate(246.484375 0.78125)"/>
      <use xlink:href="#DejaVuSans-61" transform="translate(285.693359 0.78125)"/>
      <use xlink:href="#DejaVuSans-6e" transform="translate(346.972656 0.78125)"/>
      <use xlink:href="#DejaVuSans-74" transform="translate(410.351562 0.78125)"/>
      <use xlink:href="#DejaVuSans-20" transform="translate(449.560547 0.78125)"/>
      <use xlink:href="#DejaVuSans-Oblique-3b1" transform="translate(481.347656 0.78125)"/>
      <use xlink:href="#DejaVuSans-3d" transform="translate(566.748047 0.78125)"/>
      <use xlink:href="#DejaVuSans-30" transform="translate(670.019531 0.78125)"/>
      <use xlink:href="#DejaVuSans-2e" transform="translate(733.642578 0.78125)"/>
      <use xlink:href="#DejaVuSans-30" transform="translate(765.429688 0.78125)"/>
      <use xlink:href="#DejaVuSans-30" transform="translate(829.052734 0.78125)"/>
      <use xlink:href="#DejaVuSans-31" transform="translate(892.675781 0.78125)"/>
     </g>
    </g>
    <g id="LineCollection_4">
     <path d="M 730.5 61.096563 
L 730.5 51.096563 
" style="fill: none; stroke: #ff7f0e; stroke-width: 1.5"/>
    </g>
    <g id="line2d_41">
     <path d="M 720.5 56.096563 
L 740.5 56.096563 
" style="fill: none; stroke: #ff7f0e; stroke-width: 1.5; stroke-linecap: square"/>
    </g>
    <g id="line2d_42"/>
    <g id="text_14">
     <!-- Polyak -->
     <g transform="translate(748.5 59.596563) scale(0.1 -0.1)">
      <use xlink:href="#DejaVuSans-50"/>
      <use xlink:href="#DejaVuSans-6f" transform="translate(56.677734 0)"/>
      <use xlink:href="#DejaVuSans-6c" transform="translate(117.859375 0)"/>
      <use xlink:href="#DejaVuSans-79" transform="translate(145.642578 0)"/>
      <use xlink:href="#DejaVuSans-61" transform="translate(204.822266 0)"/>
      <use xlink:href="#DejaVuSans-6b" transform="translate(266.101562 0)"/>
     </g>
    </g>
   </g>
  </g>
 </g>
 <defs>
  <clipPath id="p62498344fb">
   <rect x="50.092685" y="28.32" width="803.107315" height="361.72"/>
  </clipPath>
 </defs>
</svg>
