<?xml version="1.0" encoding="utf-8" standalone="no"?>
<!DOCTYPE svg PUBLIC "-//W3C//DTD SVG 1.1//EN"
  "http://www.w3.org/Graphics/SVG/1.1/DTD/svg11.dtd">
<svg xmlns:xlink="http://www.w3.org/1999/xlink" width="864pt" height="432pt" viewBox="0 0 864 432" xmlns="http://www.w3.org/2000/svg" version="1.1">
 <metadata>
  <rdf:RDF xmlns:dc="http://purl.org/dc/elements/1.1/" xmlns:cc="http://creativecommons.org/ns#" xmlns:rdf="http://www.w3.org/1999/02/22-rdf-syntax-ns#">
   <cc:Work>
    <dc:type rdf:resource="http://purl.org/dc/dcmitype/StillImage"/>
    <dc:date>2025-04-29T20:26:18.798775</dc:date>
    <dc:format>image/svg+xml</dc:format>
    <dc:creator>
     <cc:Agent>
      <dc:title>Matplotlib v3.10.0, https://matplotlib.org/</dc:title>
     </cc:Agent>
    </dc:creator>
   </cc:Work>
  </rdf:RDF>
 </metadata>
 <defs>
  <style type="text/css">*{stroke-linejoin: round; stroke-linecap: butt}</style>
 </defs>
 <g id="figure_1">
  <g id="patch_1">
   <path d="M 0 432 
L 864 432 
L 864 0 
L 0 0 
z
" style="fill: #ffffff"/>
  </g>
  <g id="axes_1">
   <g id="patch_2">
    <path d="M 55.772054 390.04 
L 853.2 390.04 
L 853.2 28.32 
L 55.772054 28.32 
z
" style="fill: #ffffff"/>
   </g>
   <g id="matplotlib.axis_1">
    <g id="xtick_1">
     <g id="line2d_1">
      <defs>
       <path id="mc9f7e44e11" d="M 0 0 
L 0 3.5 
" style="stroke: #000000; stroke-width: 0.8"/>
      </defs>
      <g>
       <use xlink:href="#mc9f7e44e11" x="84.696208" y="390.04" style="stroke: #000000; stroke-width: 0.8"/>
      </g>
     </g>
     <g id="text_1">
      <!-- 0 -->
      <g transform="translate(81.514958 404.638438) scale(0.1 -0.1)">
       <defs>
        <path id="DejaVuSans-30" d="M 2034 4250 
Q 1547 4250 1301 3770 
Q 1056 3291 1056 2328 
Q 1056 1369 1301 889 
Q 1547 409 2034 409 
Q 2525 409 2770 889 
Q 3016 1369 3016 2328 
Q 3016 3291 2770 3770 
Q 2525 4250 2034 4250 
z
M 2034 4750 
Q 2819 4750 3233 4129 
Q 3647 3509 3647 2328 
Q 3647 1150 3233 529 
Q 2819 -91 2034 -91 
Q 1250 -91 836 529 
Q 422 1150 422 2328 
Q 422 3509 836 4129 
Q 1250 4750 2034 4750 
z
" transform="scale(0.015625)"/>
       </defs>
       <use xlink:href="#DejaVuSans-30"/>
      </g>
     </g>
    </g>
    <g id="xtick_2">
     <g id="line2d_2">
      <g>
       <use xlink:href="#mc9f7e44e11" x="231.147621" y="390.04" style="stroke: #000000; stroke-width: 0.8"/>
      </g>
     </g>
     <g id="text_2">
      <!-- 20 -->
      <g transform="translate(224.785121 404.638438) scale(0.1 -0.1)">
       <defs>
        <path id="DejaVuSans-32" d="M 1228 531 
L 3431 531 
L 3431 0 
L 469 0 
L 469 531 
Q 828 903 1448 1529 
Q 2069 2156 2228 2338 
Q 2531 2678 2651 2914 
Q 2772 3150 2772 3378 
Q 2772 3750 2511 3984 
Q 2250 4219 1831 4219 
Q 1534 4219 1204 4116 
Q 875 4013 500 3803 
L 500 4441 
Q 881 4594 1212 4672 
Q 1544 4750 1819 4750 
Q 2544 4750 2975 4387 
Q 3406 4025 3406 3419 
Q 3406 3131 3298 2873 
Q 3191 2616 2906 2266 
Q 2828 2175 2409 1742 
Q 1991 1309 1228 531 
z
" transform="scale(0.015625)"/>
       </defs>
       <use xlink:href="#DejaVuSans-32"/>
       <use xlink:href="#DejaVuSans-30" transform="translate(63.623047 0)"/>
      </g>
     </g>
    </g>
    <g id="xtick_3">
     <g id="line2d_3">
      <g>
       <use xlink:href="#mc9f7e44e11" x="377.599035" y="390.04" style="stroke: #000000; stroke-width: 0.8"/>
      </g>
     </g>
     <g id="text_3">
      <!-- 40 -->
      <g transform="translate(371.236535 404.638438) scale(0.1 -0.1)">
       <defs>
        <path id="DejaVuSans-34" d="M 2419 4116 
L 825 1625 
L 2419 1625 
L 2419 4116 
z
M 2253 4666 
L 3047 4666 
L 3047 1625 
L 3713 1625 
L 3713 1100 
L 3047 1100 
L 3047 0 
L 2419 0 
L 2419 1100 
L 313 1100 
L 313 1709 
L 2253 4666 
z
" transform="scale(0.015625)"/>
       </defs>
       <use xlink:href="#DejaVuSans-34"/>
       <use xlink:href="#DejaVuSans-30" transform="translate(63.623047 0)"/>
      </g>
     </g>
    </g>
    <g id="xtick_4">
     <g id="line2d_4">
      <g>
       <use xlink:href="#mc9f7e44e11" x="524.050448" y="390.04" style="stroke: #000000; stroke-width: 0.8"/>
      </g>
     </g>
     <g id="text_4">
      <!-- 60 -->
      <g transform="translate(517.687948 404.638438) scale(0.1 -0.1)">
       <defs>
        <path id="DejaVuSans-36" d="M 2113 2584 
Q 1688 2584 1439 2293 
Q 1191 2003 1191 1497 
Q 1191 994 1439 701 
Q 1688 409 2113 409 
Q 2538 409 2786 701 
Q 3034 994 3034 1497 
Q 3034 2003 2786 2293 
Q 2538 2584 2113 2584 
z
M 3366 4563 
L 3366 3988 
Q 3128 4100 2886 4159 
Q 2644 4219 2406 4219 
Q 1781 4219 1451 3797 
Q 1122 3375 1075 2522 
Q 1259 2794 1537 2939 
Q 1816 3084 2150 3084 
Q 2853 3084 3261 2657 
Q 3669 2231 3669 1497 
Q 3669 778 3244 343 
Q 2819 -91 2113 -91 
Q 1303 -91 875 529 
Q 447 1150 447 2328 
Q 447 3434 972 4092 
Q 1497 4750 2381 4750 
Q 2619 4750 2861 4703 
Q 3103 4656 3366 4563 
z
" transform="scale(0.015625)"/>
       </defs>
       <use xlink:href="#DejaVuSans-36"/>
       <use xlink:href="#DejaVuSans-30" transform="translate(63.623047 0)"/>
      </g>
     </g>
    </g>
    <g id="xtick_5">
     <g id="line2d_5">
      <g>
       <use xlink:href="#mc9f7e44e11" x="670.501862" y="390.04" style="stroke: #000000; stroke-width: 0.8"/>
      </g>
     </g>
     <g id="text_5">
      <!-- 80 -->
      <g transform="translate(664.139362 404.638438) scale(0.1 -0.1)">
       <defs>
        <path id="DejaVuSans-38" d="M 2034 2216 
Q 1584 2216 1326 1975 
Q 1069 1734 1069 1313 
Q 1069 891 1326 650 
Q 1584 409 2034 409 
Q 2484 409 2743 651 
Q 3003 894 3003 1313 
Q 3003 1734 2745 1975 
Q 2488 2216 2034 2216 
z
M 1403 2484 
Q 997 2584 770 2862 
Q 544 3141 544 3541 
Q 544 4100 942 4425 
Q 1341 4750 2034 4750 
Q 2731 4750 3128 4425 
Q 3525 4100 3525 3541 
Q 3525 3141 3298 2862 
Q 3072 2584 2669 2484 
Q 3125 2378 3379 2068 
Q 3634 1759 3634 1313 
Q 3634 634 3220 271 
Q 2806 -91 2034 -91 
Q 1263 -91 848 271 
Q 434 634 434 1313 
Q 434 1759 690 2068 
Q 947 2378 1403 2484 
z
M 1172 3481 
Q 1172 3119 1398 2916 
Q 1625 2713 2034 2713 
Q 2441 2713 2670 2916 
Q 2900 3119 2900 3481 
Q 2900 3844 2670 4047 
Q 2441 4250 2034 4250 
Q 1625 4250 1398 4047 
Q 1172 3844 1172 3481 
z
" transform="scale(0.015625)"/>
       </defs>
       <use xlink:href="#DejaVuSans-38"/>
       <use xlink:href="#DejaVuSans-30" transform="translate(63.623047 0)"/>
      </g>
     </g>
    </g>
    <g id="xtick_6">
     <g id="line2d_6">
      <g>
       <use xlink:href="#mc9f7e44e11" x="816.953275" y="390.04" style="stroke: #000000; stroke-width: 0.8"/>
      </g>
     </g>
     <g id="text_6">
      <!-- 100 -->
      <g transform="translate(807.409525 404.638438) scale(0.1 -0.1)">
       <defs>
        <path id="DejaVuSans-31" d="M 794 531 
L 1825 531 
L 1825 4091 
L 703 3866 
L 703 4441 
L 1819 4666 
L 2450 4666 
L 2450 531 
L 3481 531 
L 3481 0 
L 794 0 
L 794 531 
z
" transform="scale(0.015625)"/>
       </defs>
       <use xlink:href="#DejaVuSans-31"/>
       <use xlink:href="#DejaVuSans-30" transform="translate(63.623047 0)"/>
       <use xlink:href="#DejaVuSans-30" transform="translate(127.246094 0)"/>
      </g>
     </g>
    </g>
    <g id="text_7">
     <!-- No. Iterations -->
     <g transform="translate(420.782121 418.316562) scale(0.1 -0.1)">
      <defs>
       <path id="DejaVuSans-4e" d="M 628 4666 
L 1478 4666 
L 3547 763 
L 3547 4666 
L 4159 4666 
L 4159 0 
L 3309 0 
L 1241 3903 
L 1241 0 
L 628 0 
L 628 4666 
z
" transform="scale(0.015625)"/>
       <path id="DejaVuSans-6f" d="M 1959 3097 
Q 1497 3097 1228 2736 
Q 959 2375 959 1747 
Q 959 1119 1226 758 
Q 1494 397 1959 397 
Q 2419 397 2687 759 
Q 2956 1122 2956 1747 
Q 2956 2369 2687 2733 
Q 2419 3097 1959 3097 
z
M 1959 3584 
Q 2709 3584 3137 3096 
Q 3566 2609 3566 1747 
Q 3566 888 3137 398 
Q 2709 -91 1959 -91 
Q 1206 -91 779 398 
Q 353 888 353 1747 
Q 353 2609 779 3096 
Q 1206 3584 1959 3584 
z
" transform="scale(0.015625)"/>
       <path id="DejaVuSans-2e" d="M 684 794 
L 1344 794 
L 1344 0 
L 684 0 
L 684 794 
z
" transform="scale(0.015625)"/>
       <path id="DejaVuSans-20" transform="scale(0.015625)"/>
       <path id="DejaVuSans-49" d="M 628 4666 
L 1259 4666 
L 1259 0 
L 628 0 
L 628 4666 
z
" transform="scale(0.015625)"/>
       <path id="DejaVuSans-74" d="M 1172 4494 
L 1172 3500 
L 2356 3500 
L 2356 3053 
L 1172 3053 
L 1172 1153 
Q 1172 725 1289 603 
Q 1406 481 1766 481 
L 2356 481 
L 2356 0 
L 1766 0 
Q 1100 0 847 248 
Q 594 497 594 1153 
L 594 3053 
L 172 3053 
L 172 3500 
L 594 3500 
L 594 4494 
L 1172 4494 
z
" transform="scale(0.015625)"/>
       <path id="DejaVuSans-65" d="M 3597 1894 
L 3597 1613 
L 953 1613 
Q 991 1019 1311 708 
Q 1631 397 2203 397 
Q 2534 397 2845 478 
Q 3156 559 3463 722 
L 3463 178 
Q 3153 47 2828 -22 
Q 2503 -91 2169 -91 
Q 1331 -91 842 396 
Q 353 884 353 1716 
Q 353 2575 817 3079 
Q 1281 3584 2069 3584 
Q 2775 3584 3186 3129 
Q 3597 2675 3597 1894 
z
M 3022 2063 
Q 3016 2534 2758 2815 
Q 2500 3097 2075 3097 
Q 1594 3097 1305 2825 
Q 1016 2553 972 2059 
L 3022 2063 
z
" transform="scale(0.015625)"/>
       <path id="DejaVuSans-72" d="M 2631 2963 
Q 2534 3019 2420 3045 
Q 2306 3072 2169 3072 
Q 1681 3072 1420 2755 
Q 1159 2438 1159 1844 
L 1159 0 
L 581 0 
L 581 3500 
L 1159 3500 
L 1159 2956 
Q 1341 3275 1631 3429 
Q 1922 3584 2338 3584 
Q 2397 3584 2469 3576 
Q 2541 3569 2628 3553 
L 2631 2963 
z
" transform="scale(0.015625)"/>
       <path id="DejaVuSans-61" d="M 2194 1759 
Q 1497 1759 1228 1600 
Q 959 1441 959 1056 
Q 959 750 1161 570 
Q 1363 391 1709 391 
Q 2188 391 2477 730 
Q 2766 1069 2766 1631 
L 2766 1759 
L 2194 1759 
z
M 3341 1997 
L 3341 0 
L 2766 0 
L 2766 531 
Q 2569 213 2275 61 
Q 1981 -91 1556 -91 
Q 1019 -91 701 211 
Q 384 513 384 1019 
Q 384 1609 779 1909 
Q 1175 2209 1959 2209 
L 2766 2209 
L 2766 2266 
Q 2766 2663 2505 2880 
Q 2244 3097 1772 3097 
Q 1472 3097 1187 3025 
Q 903 2953 641 2809 
L 641 3341 
Q 956 3463 1253 3523 
Q 1550 3584 1831 3584 
Q 2591 3584 2966 3190 
Q 3341 2797 3341 1997 
z
" transform="scale(0.015625)"/>
       <path id="DejaVuSans-69" d="M 603 3500 
L 1178 3500 
L 1178 0 
L 603 0 
L 603 3500 
z
M 603 4863 
L 1178 4863 
L 1178 4134 
L 603 4134 
L 603 4863 
z
" transform="scale(0.015625)"/>
       <path id="DejaVuSans-6e" d="M 3513 2113 
L 3513 0 
L 2938 0 
L 2938 2094 
Q 2938 2591 2744 2837 
Q 2550 3084 2163 3084 
Q 1697 3084 1428 2787 
Q 1159 2491 1159 1978 
L 1159 0 
L 581 0 
L 581 3500 
L 1159 3500 
L 1159 2956 
Q 1366 3272 1645 3428 
Q 1925 3584 2291 3584 
Q 2894 3584 3203 3211 
Q 3513 2838 3513 2113 
z
" transform="scale(0.015625)"/>
       <path id="DejaVuSans-73" d="M 2834 3397 
L 2834 2853 
Q 2591 2978 2328 3040 
Q 2066 3103 1784 3103 
Q 1356 3103 1142 2972 
Q 928 2841 928 2578 
Q 928 2378 1081 2264 
Q 1234 2150 1697 2047 
L 1894 2003 
Q 2506 1872 2764 1633 
Q 3022 1394 3022 966 
Q 3022 478 2636 193 
Q 2250 -91 1575 -91 
Q 1294 -91 989 -36 
Q 684 19 347 128 
L 347 722 
Q 666 556 975 473 
Q 1284 391 1588 391 
Q 1994 391 2212 530 
Q 2431 669 2431 922 
Q 2431 1156 2273 1281 
Q 2116 1406 1581 1522 
L 1381 1569 
Q 847 1681 609 1914 
Q 372 2147 372 2553 
Q 372 3047 722 3315 
Q 1072 3584 1716 3584 
Q 2034 3584 2315 3537 
Q 2597 3491 2834 3397 
z
" transform="scale(0.015625)"/>
      </defs>
      <use xlink:href="#DejaVuSans-4e"/>
      <use xlink:href="#DejaVuSans-6f" transform="translate(74.804688 0)"/>
      <use xlink:href="#DejaVuSans-2e" transform="translate(134.236328 0)"/>
      <use xlink:href="#DejaVuSans-20" transform="translate(166.023438 0)"/>
      <use xlink:href="#DejaVuSans-49" transform="translate(197.810547 0)"/>
      <use xlink:href="#DejaVuSans-74" transform="translate(227.302734 0)"/>
      <use xlink:href="#DejaVuSans-65" transform="translate(266.511719 0)"/>
      <use xlink:href="#DejaVuSans-72" transform="translate(328.035156 0)"/>
      <use xlink:href="#DejaVuSans-61" transform="translate(369.148438 0)"/>
      <use xlink:href="#DejaVuSans-74" transform="translate(430.427734 0)"/>
      <use xlink:href="#DejaVuSans-69" transform="translate(469.636719 0)"/>
      <use xlink:href="#DejaVuSans-6f" transform="translate(497.419922 0)"/>
      <use xlink:href="#DejaVuSans-6e" transform="translate(558.601562 0)"/>
      <use xlink:href="#DejaVuSans-73" transform="translate(621.980469 0)"/>
     </g>
    </g>
   </g>
   <g id="matplotlib.axis_2">
    <g id="ytick_1">
     <g id="line2d_7">
      <defs>
       <path id="mc45349fc2b" d="M 0 0 
L -3.5 0 
" style="stroke: #000000; stroke-width: 0.8"/>
      </defs>
      <g>
       <use xlink:href="#mc45349fc2b" x="55.772054" y="379.044128" style="stroke: #000000; stroke-width: 0.8"/>
      </g>
     </g>
     <g id="text_8">
      <!-- $\mathdefault{10^{-1}}$ -->
      <g transform="translate(25.272054 382.843347) scale(0.1 -0.1)">
       <defs>
        <path id="DejaVuSans-2212" d="M 678 2272 
L 4684 2272 
L 4684 1741 
L 678 1741 
L 678 2272 
z
" transform="scale(0.015625)"/>
       </defs>
       <use xlink:href="#DejaVuSans-31" transform="translate(0 0.684375)"/>
       <use xlink:href="#DejaVuSans-30" transform="translate(63.623047 0.684375)"/>
       <use xlink:href="#DejaVuSans-2212" transform="translate(128.203125 38.965625) scale(0.7)"/>
       <use xlink:href="#DejaVuSans-31" transform="translate(186.855469 38.965625) scale(0.7)"/>
      </g>
     </g>
    </g>
    <g id="ytick_2">
     <g id="line2d_8">
      <g>
       <use xlink:href="#mc45349fc2b" x="55.772054" y="275.350607" style="stroke: #000000; stroke-width: 0.8"/>
      </g>
     </g>
     <g id="text_9">
      <!-- $\mathdefault{10^{0}}$ -->
      <g transform="translate(31.172054 279.149826) scale(0.1 -0.1)">
       <use xlink:href="#DejaVuSans-31" transform="translate(0 0.765625)"/>
       <use xlink:href="#DejaVuSans-30" transform="translate(63.623047 0.765625)"/>
       <use xlink:href="#DejaVuSans-30" transform="translate(128.203125 39.046875) scale(0.7)"/>
      </g>
     </g>
    </g>
    <g id="ytick_3">
     <g id="line2d_9">
      <g>
       <use xlink:href="#mc45349fc2b" x="55.772054" y="171.657086" style="stroke: #000000; stroke-width: 0.8"/>
      </g>
     </g>
     <g id="text_10">
      <!-- $\mathdefault{10^{1}}$ -->
      <g transform="translate(31.172054 175.456305) scale(0.1 -0.1)">
       <use xlink:href="#DejaVuSans-31" transform="translate(0 0.684375)"/>
       <use xlink:href="#DejaVuSans-30" transform="translate(63.623047 0.684375)"/>
       <use xlink:href="#DejaVuSans-31" transform="translate(128.203125 38.965625) scale(0.7)"/>
      </g>
     </g>
    </g>
    <g id="ytick_4">
     <g id="line2d_10">
      <g>
       <use xlink:href="#mc45349fc2b" x="55.772054" y="67.963565" style="stroke: #000000; stroke-width: 0.8"/>
      </g>
     </g>
     <g id="text_11">
      <!-- $\mathdefault{10^{2}}$ -->
      <g transform="translate(31.172054 71.762784) scale(0.1 -0.1)">
       <use xlink:href="#DejaVuSans-31" transform="translate(0 0.765625)"/>
       <use xlink:href="#DejaVuSans-30" transform="translate(63.623047 0.765625)"/>
       <use xlink:href="#DejaVuSans-32" transform="translate(128.203125 39.046875) scale(0.7)"/>
      </g>
     </g>
    </g>
    <g id="ytick_5">
     <g id="line2d_11">
      <defs>
       <path id="m427e7c7e76" d="M 0 0 
L -2 0 
" style="stroke: #000000; stroke-width: 0.6"/>
      </defs>
      <g>
       <use xlink:href="#m427e7c7e76" x="55.772054" y="389.093069" style="stroke: #000000; stroke-width: 0.6"/>
      </g>
     </g>
    </g>
    <g id="ytick_6">
     <g id="line2d_12">
      <g>
       <use xlink:href="#m427e7c7e76" x="55.772054" y="383.788884" style="stroke: #000000; stroke-width: 0.6"/>
      </g>
     </g>
    </g>
    <g id="ytick_7">
     <g id="line2d_13">
      <g>
       <use xlink:href="#m427e7c7e76" x="55.772054" y="347.829268" style="stroke: #000000; stroke-width: 0.6"/>
      </g>
     </g>
    </g>
    <g id="ytick_8">
     <g id="line2d_14">
      <g>
       <use xlink:href="#m427e7c7e76" x="55.772054" y="329.569745" style="stroke: #000000; stroke-width: 0.6"/>
      </g>
     </g>
    </g>
    <g id="ytick_9">
     <g id="line2d_15">
      <g>
       <use xlink:href="#m427e7c7e76" x="55.772054" y="316.614408" style="stroke: #000000; stroke-width: 0.6"/>
      </g>
     </g>
    </g>
    <g id="ytick_10">
     <g id="line2d_16">
      <g>
       <use xlink:href="#m427e7c7e76" x="55.772054" y="306.565467" style="stroke: #000000; stroke-width: 0.6"/>
      </g>
     </g>
    </g>
    <g id="ytick_11">
     <g id="line2d_17">
      <g>
       <use xlink:href="#m427e7c7e76" x="55.772054" y="298.354885" style="stroke: #000000; stroke-width: 0.6"/>
      </g>
     </g>
    </g>
    <g id="ytick_12">
     <g id="line2d_18">
      <g>
       <use xlink:href="#m427e7c7e76" x="55.772054" y="291.412937" style="stroke: #000000; stroke-width: 0.6"/>
      </g>
     </g>
    </g>
    <g id="ytick_13">
     <g id="line2d_19">
      <g>
       <use xlink:href="#m427e7c7e76" x="55.772054" y="285.399548" style="stroke: #000000; stroke-width: 0.6"/>
      </g>
     </g>
    </g>
    <g id="ytick_14">
     <g id="line2d_20">
      <g>
       <use xlink:href="#m427e7c7e76" x="55.772054" y="280.095363" style="stroke: #000000; stroke-width: 0.6"/>
      </g>
     </g>
    </g>
    <g id="ytick_15">
     <g id="line2d_21">
      <g>
       <use xlink:href="#m427e7c7e76" x="55.772054" y="244.135747" style="stroke: #000000; stroke-width: 0.6"/>
      </g>
     </g>
    </g>
    <g id="ytick_16">
     <g id="line2d_22">
      <g>
       <use xlink:href="#m427e7c7e76" x="55.772054" y="225.876224" style="stroke: #000000; stroke-width: 0.6"/>
      </g>
     </g>
    </g>
    <g id="ytick_17">
     <g id="line2d_23">
      <g>
       <use xlink:href="#m427e7c7e76" x="55.772054" y="212.920887" style="stroke: #000000; stroke-width: 0.6"/>
      </g>
     </g>
    </g>
    <g id="ytick_18">
     <g id="line2d_24">
      <g>
       <use xlink:href="#m427e7c7e76" x="55.772054" y="202.871946" style="stroke: #000000; stroke-width: 0.6"/>
      </g>
     </g>
    </g>
    <g id="ytick_19">
     <g id="line2d_25">
      <g>
       <use xlink:href="#m427e7c7e76" x="55.772054" y="194.661364" style="stroke: #000000; stroke-width: 0.6"/>
      </g>
     </g>
    </g>
    <g id="ytick_20">
     <g id="line2d_26">
      <g>
       <use xlink:href="#m427e7c7e76" x="55.772054" y="187.719416" style="stroke: #000000; stroke-width: 0.6"/>
      </g>
     </g>
    </g>
    <g id="ytick_21">
     <g id="line2d_27">
      <g>
       <use xlink:href="#m427e7c7e76" x="55.772054" y="181.706027" style="stroke: #000000; stroke-width: 0.6"/>
      </g>
     </g>
    </g>
    <g id="ytick_22">
     <g id="line2d_28">
      <g>
       <use xlink:href="#m427e7c7e76" x="55.772054" y="176.401842" style="stroke: #000000; stroke-width: 0.6"/>
      </g>
     </g>
    </g>
    <g id="ytick_23">
     <g id="line2d_29">
      <g>
       <use xlink:href="#m427e7c7e76" x="55.772054" y="140.442226" style="stroke: #000000; stroke-width: 0.6"/>
      </g>
     </g>
    </g>
    <g id="ytick_24">
     <g id="line2d_30">
      <g>
       <use xlink:href="#m427e7c7e76" x="55.772054" y="122.182703" style="stroke: #000000; stroke-width: 0.6"/>
      </g>
     </g>
    </g>
    <g id="ytick_25">
     <g id="line2d_31">
      <g>
       <use xlink:href="#m427e7c7e76" x="55.772054" y="109.227366" style="stroke: #000000; stroke-width: 0.6"/>
      </g>
     </g>
    </g>
    <g id="ytick_26">
     <g id="line2d_32">
      <g>
       <use xlink:href="#m427e7c7e76" x="55.772054" y="99.178425" style="stroke: #000000; stroke-width: 0.6"/>
      </g>
     </g>
    </g>
    <g id="ytick_27">
     <g id="line2d_33">
      <g>
       <use xlink:href="#m427e7c7e76" x="55.772054" y="90.967843" style="stroke: #000000; stroke-width: 0.6"/>
      </g>
     </g>
    </g>
    <g id="ytick_28">
     <g id="line2d_34">
      <g>
       <use xlink:href="#m427e7c7e76" x="55.772054" y="84.025895" style="stroke: #000000; stroke-width: 0.6"/>
      </g>
     </g>
    </g>
    <g id="ytick_29">
     <g id="line2d_35">
      <g>
       <use xlink:href="#m427e7c7e76" x="55.772054" y="78.012506" style="stroke: #000000; stroke-width: 0.6"/>
      </g>
     </g>
    </g>
    <g id="ytick_30">
     <g id="line2d_36">
      <g>
       <use xlink:href="#m427e7c7e76" x="55.772054" y="72.708321" style="stroke: #000000; stroke-width: 0.6"/>
      </g>
     </g>
    </g>
    <g id="ytick_31">
     <g id="line2d_37">
      <g>
       <use xlink:href="#m427e7c7e76" x="55.772054" y="36.748705" style="stroke: #000000; stroke-width: 0.6"/>
      </g>
     </g>
    </g>
    <g id="text_12">
     <!-- Function Value -->
     <g transform="translate(19.192366 245.765156) rotate(-90) scale(0.1 -0.1)">
      <defs>
       <path id="DejaVuSans-46" d="M 628 4666 
L 3309 4666 
L 3309 4134 
L 1259 4134 
L 1259 2759 
L 3109 2759 
L 3109 2228 
L 1259 2228 
L 1259 0 
L 628 0 
L 628 4666 
z
" transform="scale(0.015625)"/>
       <path id="DejaVuSans-75" d="M 544 1381 
L 544 3500 
L 1119 3500 
L 1119 1403 
Q 1119 906 1312 657 
Q 1506 409 1894 409 
Q 2359 409 2629 706 
Q 2900 1003 2900 1516 
L 2900 3500 
L 3475 3500 
L 3475 0 
L 2900 0 
L 2900 538 
Q 2691 219 2414 64 
Q 2138 -91 1772 -91 
Q 1169 -91 856 284 
Q 544 659 544 1381 
z
M 1991 3584 
L 1991 3584 
z
" transform="scale(0.015625)"/>
       <path id="DejaVuSans-63" d="M 3122 3366 
L 3122 2828 
Q 2878 2963 2633 3030 
Q 2388 3097 2138 3097 
Q 1578 3097 1268 2742 
Q 959 2388 959 1747 
Q 959 1106 1268 751 
Q 1578 397 2138 397 
Q 2388 397 2633 464 
Q 2878 531 3122 666 
L 3122 134 
Q 2881 22 2623 -34 
Q 2366 -91 2075 -91 
Q 1284 -91 818 406 
Q 353 903 353 1747 
Q 353 2603 823 3093 
Q 1294 3584 2113 3584 
Q 2378 3584 2631 3529 
Q 2884 3475 3122 3366 
z
" transform="scale(0.015625)"/>
       <path id="DejaVuSans-56" d="M 1831 0 
L 50 4666 
L 709 4666 
L 2188 738 
L 3669 4666 
L 4325 4666 
L 2547 0 
L 1831 0 
z
" transform="scale(0.015625)"/>
       <path id="DejaVuSans-6c" d="M 603 4863 
L 1178 4863 
L 1178 0 
L 603 0 
L 603 4863 
z
" transform="scale(0.015625)"/>
      </defs>
      <use xlink:href="#DejaVuSans-46"/>
      <use xlink:href="#DejaVuSans-75" transform="translate(52.019531 0)"/>
      <use xlink:href="#DejaVuSans-6e" transform="translate(115.398438 0)"/>
      <use xlink:href="#DejaVuSans-63" transform="translate(178.777344 0)"/>
      <use xlink:href="#DejaVuSans-74" transform="translate(233.757812 0)"/>
      <use xlink:href="#DejaVuSans-69" transform="translate(272.966797 0)"/>
      <use xlink:href="#DejaVuSans-6f" transform="translate(300.75 0)"/>
      <use xlink:href="#DejaVuSans-6e" transform="translate(361.931641 0)"/>
      <use xlink:href="#DejaVuSans-20" transform="translate(425.310547 0)"/>
      <use xlink:href="#DejaVuSans-56" transform="translate(457.097656 0)"/>
      <use xlink:href="#DejaVuSans-61" transform="translate(517.755859 0)"/>
      <use xlink:href="#DejaVuSans-6c" transform="translate(579.035156 0)"/>
      <use xlink:href="#DejaVuSans-75" transform="translate(606.818359 0)"/>
      <use xlink:href="#DejaVuSans-65" transform="translate(670.197266 0)"/>
     </g>
    </g>
   </g>
   <g id="LineCollection_1">
    <path d="M 92.018779 45.821638 
L 92.018779 45.150133 
" clip-path="url(#p8cbe4aa5af)" style="fill: none; stroke: #1f77b4; stroke-width: 1.5"/>
    <path d="M 99.341349 76.974814 
L 99.341349 70.831647 
" clip-path="url(#p8cbe4aa5af)" style="fill: none; stroke: #1f77b4; stroke-width: 1.5"/>
    <path d="M 106.66392 105.696014 
L 106.66392 99.708551 
" clip-path="url(#p8cbe4aa5af)" style="fill: none; stroke: #1f77b4; stroke-width: 1.5"/>
    <path d="M 113.986491 115.134653 
L 113.986491 108.246872 
" clip-path="url(#p8cbe4aa5af)" style="fill: none; stroke: #1f77b4; stroke-width: 1.5"/>
    <path d="M 121.309061 123.499459 
L 121.309061 118.41922 
" clip-path="url(#p8cbe4aa5af)" style="fill: none; stroke: #1f77b4; stroke-width: 1.5"/>
    <path d="M 128.631632 134.043404 
L 128.631632 128.131021 
" clip-path="url(#p8cbe4aa5af)" style="fill: none; stroke: #1f77b4; stroke-width: 1.5"/>
    <path d="M 135.954203 143.146947 
L 135.954203 135.860867 
" clip-path="url(#p8cbe4aa5af)" style="fill: none; stroke: #1f77b4; stroke-width: 1.5"/>
    <path d="M 143.276773 152.302395 
L 143.276773 146.194258 
" clip-path="url(#p8cbe4aa5af)" style="fill: none; stroke: #1f77b4; stroke-width: 1.5"/>
    <path d="M 150.599344 162.809612 
L 150.599344 155.358713 
" clip-path="url(#p8cbe4aa5af)" style="fill: none; stroke: #1f77b4; stroke-width: 1.5"/>
    <path d="M 157.921915 171.192648 
L 157.921915 164.418228 
" clip-path="url(#p8cbe4aa5af)" style="fill: none; stroke: #1f77b4; stroke-width: 1.5"/>
    <path d="M 165.244485 180.946623 
L 165.244485 174.170772 
" clip-path="url(#p8cbe4aa5af)" style="fill: none; stroke: #1f77b4; stroke-width: 1.5"/>
    <path d="M 172.567056 189.068995 
L 172.567056 184.222025 
" clip-path="url(#p8cbe4aa5af)" style="fill: none; stroke: #1f77b4; stroke-width: 1.5"/>
    <path d="M 179.889627 199.754178 
L 179.889627 192.158974 
" clip-path="url(#p8cbe4aa5af)" style="fill: none; stroke: #1f77b4; stroke-width: 1.5"/>
    <path d="M 187.212197 211.031701 
L 187.212197 200.995055 
" clip-path="url(#p8cbe4aa5af)" style="fill: none; stroke: #1f77b4; stroke-width: 1.5"/>
    <path d="M 194.534768 216.379083 
L 194.534768 212.393036 
" clip-path="url(#p8cbe4aa5af)" style="fill: none; stroke: #1f77b4; stroke-width: 1.5"/>
    <path d="M 201.857339 227.210169 
L 201.857339 218.707648 
" clip-path="url(#p8cbe4aa5af)" style="fill: none; stroke: #1f77b4; stroke-width: 1.5"/>
    <path d="M 209.179909 238.296809 
L 209.179909 229.946395 
" clip-path="url(#p8cbe4aa5af)" style="fill: none; stroke: #1f77b4; stroke-width: 1.5"/>
    <path d="M 216.50248 245.239418 
L 216.50248 233.920644 
" clip-path="url(#p8cbe4aa5af)" style="fill: none; stroke: #1f77b4; stroke-width: 1.5"/>
    <path d="M 223.825051 251.414471 
L 223.825051 247.115183 
" clip-path="url(#p8cbe4aa5af)" style="fill: none; stroke: #1f77b4; stroke-width: 1.5"/>
    <path d="M 231.147621 265.984798 
L 231.147621 254.682965 
" clip-path="url(#p8cbe4aa5af)" style="fill: none; stroke: #1f77b4; stroke-width: 1.5"/>
    <path d="M 238.470192 272.761596 
L 238.470192 263.312232 
" clip-path="url(#p8cbe4aa5af)" style="fill: none; stroke: #1f77b4; stroke-width: 1.5"/>
    <path d="M 245.792763 281.760314 
L 245.792763 272.250579 
" clip-path="url(#p8cbe4aa5af)" style="fill: none; stroke: #1f77b4; stroke-width: 1.5"/>
    <path d="M 253.115333 291.892263 
L 253.115333 272.288184 
" clip-path="url(#p8cbe4aa5af)" style="fill: none; stroke: #1f77b4; stroke-width: 1.5"/>
    <path d="M 260.437904 298.699886 
L 260.437904 282.403538 
" clip-path="url(#p8cbe4aa5af)" style="fill: none; stroke: #1f77b4; stroke-width: 1.5"/>
    <path d="M 267.760475 304.400136 
L 267.760475 295.090589 
" clip-path="url(#p8cbe4aa5af)" style="fill: none; stroke: #1f77b4; stroke-width: 1.5"/>
    <path d="M 275.083046 317.455888 
L 275.083046 300.77071 
" clip-path="url(#p8cbe4aa5af)" style="fill: none; stroke: #1f77b4; stroke-width: 1.5"/>
    <path d="M 282.405616 315.643833 
L 282.405616 300.802464 
" clip-path="url(#p8cbe4aa5af)" style="fill: none; stroke: #1f77b4; stroke-width: 1.5"/>
    <path d="M 289.728187 320.657028 
L 289.728187 311.846028 
" clip-path="url(#p8cbe4aa5af)" style="fill: none; stroke: #1f77b4; stroke-width: 1.5"/>
    <path d="M 297.050758 333.004708 
L 297.050758 315.687588 
" clip-path="url(#p8cbe4aa5af)" style="fill: none; stroke: #1f77b4; stroke-width: 1.5"/>
    <path d="M 304.373328 336.681543 
L 304.373328 324.683684 
" clip-path="url(#p8cbe4aa5af)" style="fill: none; stroke: #1f77b4; stroke-width: 1.5"/>
    <path d="M 311.695899 341.399151 
L 311.695899 327.240818 
" clip-path="url(#p8cbe4aa5af)" style="fill: none; stroke: #1f77b4; stroke-width: 1.5"/>
    <path d="M 319.01847 342.833773 
L 319.01847 325.897173 
" clip-path="url(#p8cbe4aa5af)" style="fill: none; stroke: #1f77b4; stroke-width: 1.5"/>
    <path d="M 326.34104 351.457211 
L 326.34104 331.287688 
" clip-path="url(#p8cbe4aa5af)" style="fill: none; stroke: #1f77b4; stroke-width: 1.5"/>
    <path d="M 333.663611 359.395686 
L 333.663611 332.790208 
" clip-path="url(#p8cbe4aa5af)" style="fill: none; stroke: #1f77b4; stroke-width: 1.5"/>
    <path d="M 340.986182 354.063724 
L 340.986182 334.94266 
" clip-path="url(#p8cbe4aa5af)" style="fill: none; stroke: #1f77b4; stroke-width: 1.5"/>
    <path d="M 348.308752 364.349392 
L 348.308752 342.648656 
" clip-path="url(#p8cbe4aa5af)" style="fill: none; stroke: #1f77b4; stroke-width: 1.5"/>
    <path d="M 355.631323 360.510148 
L 355.631323 345.219371 
" clip-path="url(#p8cbe4aa5af)" style="fill: none; stroke: #1f77b4; stroke-width: 1.5"/>
    <path d="M 362.953894 356.620382 
L 362.953894 344.599796 
" clip-path="url(#p8cbe4aa5af)" style="fill: none; stroke: #1f77b4; stroke-width: 1.5"/>
    <path d="M 370.276464 361.869532 
L 370.276464 347.867254 
" clip-path="url(#p8cbe4aa5af)" style="fill: none; stroke: #1f77b4; stroke-width: 1.5"/>
    <path d="M 377.599035 363.607291 
L 377.599035 348.908053 
" clip-path="url(#p8cbe4aa5af)" style="fill: none; stroke: #1f77b4; stroke-width: 1.5"/>
    <path d="M 384.921606 362.693489 
L 384.921606 348.667939 
" clip-path="url(#p8cbe4aa5af)" style="fill: none; stroke: #1f77b4; stroke-width: 1.5"/>
    <path d="M 392.244176 371.287109 
L 392.244176 347.362157 
" clip-path="url(#p8cbe4aa5af)" style="fill: none; stroke: #1f77b4; stroke-width: 1.5"/>
    <path d="M 399.566747 368.050522 
L 399.566747 351.610675 
" clip-path="url(#p8cbe4aa5af)" style="fill: none; stroke: #1f77b4; stroke-width: 1.5"/>
    <path d="M 406.889318 367.307142 
L 406.889318 348.245732 
" clip-path="url(#p8cbe4aa5af)" style="fill: none; stroke: #1f77b4; stroke-width: 1.5"/>
    <path d="M 414.211888 361.416084 
L 414.211888 346.344385 
" clip-path="url(#p8cbe4aa5af)" style="fill: none; stroke: #1f77b4; stroke-width: 1.5"/>
    <path d="M 421.534459 368.29116 
L 421.534459 354.626554 
" clip-path="url(#p8cbe4aa5af)" style="fill: none; stroke: #1f77b4; stroke-width: 1.5"/>
    <path d="M 428.85703 366.311506 
L 428.85703 357.999797 
" clip-path="url(#p8cbe4aa5af)" style="fill: none; stroke: #1f77b4; stroke-width: 1.5"/>
    <path d="M 436.1796 371.914571 
L 436.1796 351.128222 
" clip-path="url(#p8cbe4aa5af)" style="fill: none; stroke: #1f77b4; stroke-width: 1.5"/>
    <path d="M 443.502171 363.72349 
L 443.502171 354.263535 
" clip-path="url(#p8cbe4aa5af)" style="fill: none; stroke: #1f77b4; stroke-width: 1.5"/>
    <path d="M 450.824742 370.251375 
L 450.824742 351.417691 
" clip-path="url(#p8cbe4aa5af)" style="fill: none; stroke: #1f77b4; stroke-width: 1.5"/>
    <path d="M 458.147312 372.910849 
L 458.147312 353.323068 
" clip-path="url(#p8cbe4aa5af)" style="fill: none; stroke: #1f77b4; stroke-width: 1.5"/>
    <path d="M 465.469883 368.995747 
L 465.469883 350.134311 
" clip-path="url(#p8cbe4aa5af)" style="fill: none; stroke: #1f77b4; stroke-width: 1.5"/>
    <path d="M 472.792454 367.061623 
L 472.792454 355.848515 
" clip-path="url(#p8cbe4aa5af)" style="fill: none; stroke: #1f77b4; stroke-width: 1.5"/>
    <path d="M 480.115024 372.533501 
L 480.115024 354.072546 
" clip-path="url(#p8cbe4aa5af)" style="fill: none; stroke: #1f77b4; stroke-width: 1.5"/>
    <path d="M 487.437595 365.221905 
L 487.437595 351.909207 
" clip-path="url(#p8cbe4aa5af)" style="fill: none; stroke: #1f77b4; stroke-width: 1.5"/>
    <path d="M 494.760166 368.695834 
L 494.760166 351.431911 
" clip-path="url(#p8cbe4aa5af)" style="fill: none; stroke: #1f77b4; stroke-width: 1.5"/>
    <path d="M 502.082736 368.33047 
L 502.082736 357.587235 
" clip-path="url(#p8cbe4aa5af)" style="fill: none; stroke: #1f77b4; stroke-width: 1.5"/>
    <path d="M 509.405307 371.015655 
L 509.405307 353.355208 
" clip-path="url(#p8cbe4aa5af)" style="fill: none; stroke: #1f77b4; stroke-width: 1.5"/>
    <path d="M 516.727878 371.819322 
L 516.727878 353.419779 
" clip-path="url(#p8cbe4aa5af)" style="fill: none; stroke: #1f77b4; stroke-width: 1.5"/>
    <path d="M 524.050448 361.849307 
L 524.050448 350.644235 
" clip-path="url(#p8cbe4aa5af)" style="fill: none; stroke: #1f77b4; stroke-width: 1.5"/>
    <path d="M 531.373019 364.278238 
L 531.373019 357.71981 
" clip-path="url(#p8cbe4aa5af)" style="fill: none; stroke: #1f77b4; stroke-width: 1.5"/>
    <path d="M 538.69559 363.419954 
L 538.69559 351.009352 
" clip-path="url(#p8cbe4aa5af)" style="fill: none; stroke: #1f77b4; stroke-width: 1.5"/>
    <path d="M 546.01816 366.4494 
L 546.01816 355.131333 
" clip-path="url(#p8cbe4aa5af)" style="fill: none; stroke: #1f77b4; stroke-width: 1.5"/>
    <path d="M 553.340731 370.28903 
L 553.340731 357.876353 
" clip-path="url(#p8cbe4aa5af)" style="fill: none; stroke: #1f77b4; stroke-width: 1.5"/>
    <path d="M 560.663302 373.598182 
L 560.663302 355.472234 
" clip-path="url(#p8cbe4aa5af)" style="fill: none; stroke: #1f77b4; stroke-width: 1.5"/>
    <path d="M 567.985872 364.803346 
L 567.985872 350.8948 
" clip-path="url(#p8cbe4aa5af)" style="fill: none; stroke: #1f77b4; stroke-width: 1.5"/>
    <path d="M 575.308443 364.924814 
L 575.308443 351.038143 
" clip-path="url(#p8cbe4aa5af)" style="fill: none; stroke: #1f77b4; stroke-width: 1.5"/>
    <path d="M 582.631014 370.27542 
L 582.631014 357.466835 
" clip-path="url(#p8cbe4aa5af)" style="fill: none; stroke: #1f77b4; stroke-width: 1.5"/>
    <path d="M 589.953584 369.409772 
L 589.953584 355.422285 
" clip-path="url(#p8cbe4aa5af)" style="fill: none; stroke: #1f77b4; stroke-width: 1.5"/>
    <path d="M 597.276155 369.54226 
L 597.276155 348.773583 
" clip-path="url(#p8cbe4aa5af)" style="fill: none; stroke: #1f77b4; stroke-width: 1.5"/>
    <path d="M 604.598726 372.476758 
L 604.598726 353.803452 
" clip-path="url(#p8cbe4aa5af)" style="fill: none; stroke: #1f77b4; stroke-width: 1.5"/>
    <path d="M 611.921296 365.035209 
L 611.921296 355.397646 
" clip-path="url(#p8cbe4aa5af)" style="fill: none; stroke: #1f77b4; stroke-width: 1.5"/>
    <path d="M 619.243867 368.260404 
L 619.243867 359.340494 
" clip-path="url(#p8cbe4aa5af)" style="fill: none; stroke: #1f77b4; stroke-width: 1.5"/>
    <path d="M 626.566438 361.42473 
L 626.566438 353.43686 
" clip-path="url(#p8cbe4aa5af)" style="fill: none; stroke: #1f77b4; stroke-width: 1.5"/>
    <path d="M 633.889008 370.506431 
L 633.889008 351.523628 
" clip-path="url(#p8cbe4aa5af)" style="fill: none; stroke: #1f77b4; stroke-width: 1.5"/>
    <path d="M 641.211579 367.543793 
L 641.211579 355.250624 
" clip-path="url(#p8cbe4aa5af)" style="fill: none; stroke: #1f77b4; stroke-width: 1.5"/>
    <path d="M 648.53415 368.647275 
L 648.53415 357.168138 
" clip-path="url(#p8cbe4aa5af)" style="fill: none; stroke: #1f77b4; stroke-width: 1.5"/>
    <path d="M 655.85672 364.235554 
L 655.85672 354.948489 
" clip-path="url(#p8cbe4aa5af)" style="fill: none; stroke: #1f77b4; stroke-width: 1.5"/>
    <path d="M 663.179291 366.89089 
L 663.179291 353.562632 
" clip-path="url(#p8cbe4aa5af)" style="fill: none; stroke: #1f77b4; stroke-width: 1.5"/>
    <path d="M 670.501862 365.427455 
L 670.501862 355.788051 
" clip-path="url(#p8cbe4aa5af)" style="fill: none; stroke: #1f77b4; stroke-width: 1.5"/>
    <path d="M 677.824432 368.251967 
L 677.824432 355.873899 
" clip-path="url(#p8cbe4aa5af)" style="fill: none; stroke: #1f77b4; stroke-width: 1.5"/>
    <path d="M 685.147003 371.591468 
L 685.147003 353.405925 
" clip-path="url(#p8cbe4aa5af)" style="fill: none; stroke: #1f77b4; stroke-width: 1.5"/>
    <path d="M 692.469574 365.310173 
L 692.469574 350.190551 
" clip-path="url(#p8cbe4aa5af)" style="fill: none; stroke: #1f77b4; stroke-width: 1.5"/>
    <path d="M 699.792144 365.735777 
L 699.792144 357.549322 
" clip-path="url(#p8cbe4aa5af)" style="fill: none; stroke: #1f77b4; stroke-width: 1.5"/>
    <path d="M 707.114715 366.367983 
L 707.114715 354.705905 
" clip-path="url(#p8cbe4aa5af)" style="fill: none; stroke: #1f77b4; stroke-width: 1.5"/>
    <path d="M 714.437286 372.424224 
L 714.437286 358.05729 
" clip-path="url(#p8cbe4aa5af)" style="fill: none; stroke: #1f77b4; stroke-width: 1.5"/>
    <path d="M 721.759856 368.761134 
L 721.759856 350.362551 
" clip-path="url(#p8cbe4aa5af)" style="fill: none; stroke: #1f77b4; stroke-width: 1.5"/>
    <path d="M 729.082427 364.364436 
L 729.082427 353.6566 
" clip-path="url(#p8cbe4aa5af)" style="fill: none; stroke: #1f77b4; stroke-width: 1.5"/>
    <path d="M 736.404998 367.824607 
L 736.404998 351.423931 
" clip-path="url(#p8cbe4aa5af)" style="fill: none; stroke: #1f77b4; stroke-width: 1.5"/>
    <path d="M 743.727568 371.537396 
L 743.727568 356.777373 
" clip-path="url(#p8cbe4aa5af)" style="fill: none; stroke: #1f77b4; stroke-width: 1.5"/>
    <path d="M 751.050139 370.669663 
L 751.050139 352.930301 
" clip-path="url(#p8cbe4aa5af)" style="fill: none; stroke: #1f77b4; stroke-width: 1.5"/>
    <path d="M 758.37271 365.138661 
L 758.37271 352.655155 
" clip-path="url(#p8cbe4aa5af)" style="fill: none; stroke: #1f77b4; stroke-width: 1.5"/>
    <path d="M 765.69528 369.280194 
L 765.69528 351.806659 
" clip-path="url(#p8cbe4aa5af)" style="fill: none; stroke: #1f77b4; stroke-width: 1.5"/>
    <path d="M 773.017851 366.946474 
L 773.017851 349.630221 
" clip-path="url(#p8cbe4aa5af)" style="fill: none; stroke: #1f77b4; stroke-width: 1.5"/>
    <path d="M 780.340422 370.159842 
L 780.340422 356.570951 
" clip-path="url(#p8cbe4aa5af)" style="fill: none; stroke: #1f77b4; stroke-width: 1.5"/>
    <path d="M 787.662992 368.134955 
L 787.662992 356.428416 
" clip-path="url(#p8cbe4aa5af)" style="fill: none; stroke: #1f77b4; stroke-width: 1.5"/>
    <path d="M 794.985563 369.491505 
L 794.985563 357.847981 
" clip-path="url(#p8cbe4aa5af)" style="fill: none; stroke: #1f77b4; stroke-width: 1.5"/>
    <path d="M 802.308134 371.597627 
L 802.308134 352.47981 
" clip-path="url(#p8cbe4aa5af)" style="fill: none; stroke: #1f77b4; stroke-width: 1.5"/>
    <path d="M 809.630705 364.97139 
L 809.630705 353.726322 
" clip-path="url(#p8cbe4aa5af)" style="fill: none; stroke: #1f77b4; stroke-width: 1.5"/>
    <path d="M 816.953275 368.78338 
L 816.953275 350.326312 
" clip-path="url(#p8cbe4aa5af)" style="fill: none; stroke: #1f77b4; stroke-width: 1.5"/>
   </g>
   <g id="LineCollection_2">
    <path d="M 92.018779 46.096284 
L 92.018779 44.761818 
" clip-path="url(#p8cbe4aa5af)" style="fill: none; stroke: #ff7f0e; stroke-width: 1.5"/>
    <path d="M 99.341349 109.032525 
L 99.341349 105.771217 
" clip-path="url(#p8cbe4aa5af)" style="fill: none; stroke: #ff7f0e; stroke-width: 1.5"/>
    <path d="M 106.66392 174.031208 
L 106.66392 167.108156 
" clip-path="url(#p8cbe4aa5af)" style="fill: none; stroke: #ff7f0e; stroke-width: 1.5"/>
    <path d="M 113.986491 239.212286 
L 113.986491 228.657744 
" clip-path="url(#p8cbe4aa5af)" style="fill: none; stroke: #ff7f0e; stroke-width: 1.5"/>
    <path d="M 121.309061 302.694808 
L 121.309061 284.252468 
" clip-path="url(#p8cbe4aa5af)" style="fill: none; stroke: #ff7f0e; stroke-width: 1.5"/>
    <path d="M 128.631632 396.752692 
L 128.631632 324.142526 
" clip-path="url(#p8cbe4aa5af)" style="fill: none; stroke: #ff7f0e; stroke-width: 1.5"/>
    <path d="M 135.954203 433 
L 135.954203 312.05656 
" clip-path="url(#p8cbe4aa5af)" style="fill: none; stroke: #ff7f0e; stroke-width: 1.5"/>
    <path d="M 143.276773 380.306047 
L 143.276773 328.593812 
" clip-path="url(#p8cbe4aa5af)" style="fill: none; stroke: #ff7f0e; stroke-width: 1.5"/>
    <path d="M 150.599344 396.760985 
L 150.599344 336.490595 
" clip-path="url(#p8cbe4aa5af)" style="fill: none; stroke: #ff7f0e; stroke-width: 1.5"/>
    <path d="M 157.921915 399.329498 
L 157.921915 324.23991 
" clip-path="url(#p8cbe4aa5af)" style="fill: none; stroke: #ff7f0e; stroke-width: 1.5"/>
    <path d="M 165.244485 433 
L 165.244485 216.215092 
" clip-path="url(#p8cbe4aa5af)" style="fill: none; stroke: #ff7f0e; stroke-width: 1.5"/>
    <path d="M 172.567056 433 
L 172.567056 263.844388 
" clip-path="url(#p8cbe4aa5af)" style="fill: none; stroke: #ff7f0e; stroke-width: 1.5"/>
    <path d="M 179.889627 356.592785 
L 179.889627 322.460565 
" clip-path="url(#p8cbe4aa5af)" style="fill: none; stroke: #ff7f0e; stroke-width: 1.5"/>
    <path d="M 187.212197 433 
L 187.212197 302.831829 
" clip-path="url(#p8cbe4aa5af)" style="fill: none; stroke: #ff7f0e; stroke-width: 1.5"/>
    <path d="M 194.534768 433 
L 194.534768 272.212593 
" clip-path="url(#p8cbe4aa5af)" style="fill: none; stroke: #ff7f0e; stroke-width: 1.5"/>
    <path d="M 201.857339 388.153364 
L 201.857339 340.39637 
" clip-path="url(#p8cbe4aa5af)" style="fill: none; stroke: #ff7f0e; stroke-width: 1.5"/>
    <path d="M 209.179909 433 
L 209.179909 187.948763 
" clip-path="url(#p8cbe4aa5af)" style="fill: none; stroke: #ff7f0e; stroke-width: 1.5"/>
    <path d="M 216.50248 433 
L 216.50248 257.69342 
" clip-path="url(#p8cbe4aa5af)" style="fill: none; stroke: #ff7f0e; stroke-width: 1.5"/>
    <path d="M 223.825051 385.50663 
L 223.825051 287.687097 
" clip-path="url(#p8cbe4aa5af)" style="fill: none; stroke: #ff7f0e; stroke-width: 1.5"/>
    <path d="M 231.147621 392.589775 
L 231.147621 331.499204 
" clip-path="url(#p8cbe4aa5af)" style="fill: none; stroke: #ff7f0e; stroke-width: 1.5"/>
    <path d="M 238.470192 358.425736 
L 238.470192 329.228352 
" clip-path="url(#p8cbe4aa5af)" style="fill: none; stroke: #ff7f0e; stroke-width: 1.5"/>
    <path d="M 245.792763 379.368378 
L 245.792763 336.529338 
" clip-path="url(#p8cbe4aa5af)" style="fill: none; stroke: #ff7f0e; stroke-width: 1.5"/>
    <path d="M 253.115333 381.942101 
L 253.115333 344.340035 
" clip-path="url(#p8cbe4aa5af)" style="fill: none; stroke: #ff7f0e; stroke-width: 1.5"/>
    <path d="M 260.437904 383.817234 
L 260.437904 322.851403 
" clip-path="url(#p8cbe4aa5af)" style="fill: none; stroke: #ff7f0e; stroke-width: 1.5"/>
    <path d="M 267.760475 398.473911 
L 267.760475 345.335099 
" clip-path="url(#p8cbe4aa5af)" style="fill: none; stroke: #ff7f0e; stroke-width: 1.5"/>
    <path d="M 275.083046 407.637808 
L 275.083046 304.783851 
" clip-path="url(#p8cbe4aa5af)" style="fill: none; stroke: #ff7f0e; stroke-width: 1.5"/>
    <path d="M 282.405616 365.491918 
L 282.405616 326.460207 
" clip-path="url(#p8cbe4aa5af)" style="fill: none; stroke: #ff7f0e; stroke-width: 1.5"/>
    <path d="M 289.728187 382.622376 
L 289.728187 321.801044 
" clip-path="url(#p8cbe4aa5af)" style="fill: none; stroke: #ff7f0e; stroke-width: 1.5"/>
    <path d="M 297.050758 378.250345 
L 297.050758 325.500478 
" clip-path="url(#p8cbe4aa5af)" style="fill: none; stroke: #ff7f0e; stroke-width: 1.5"/>
    <path d="M 304.373328 370.75737 
L 304.373328 314.75827 
" clip-path="url(#p8cbe4aa5af)" style="fill: none; stroke: #ff7f0e; stroke-width: 1.5"/>
    <path d="M 311.695899 400.066156 
L 311.695899 336.293999 
" clip-path="url(#p8cbe4aa5af)" style="fill: none; stroke: #ff7f0e; stroke-width: 1.5"/>
    <path d="M 319.01847 411.074452 
L 319.01847 317.917432 
" clip-path="url(#p8cbe4aa5af)" style="fill: none; stroke: #ff7f0e; stroke-width: 1.5"/>
    <path d="M 326.34104 367.7227 
L 326.34104 326.050663 
" clip-path="url(#p8cbe4aa5af)" style="fill: none; stroke: #ff7f0e; stroke-width: 1.5"/>
    <path d="M 333.663611 391.954532 
L 333.663611 334.724954 
" clip-path="url(#p8cbe4aa5af)" style="fill: none; stroke: #ff7f0e; stroke-width: 1.5"/>
    <path d="M 340.986182 359.59815 
L 340.986182 303.865387 
" clip-path="url(#p8cbe4aa5af)" style="fill: none; stroke: #ff7f0e; stroke-width: 1.5"/>
    <path d="M 348.308752 377.40735 
L 348.308752 334.623335 
" clip-path="url(#p8cbe4aa5af)" style="fill: none; stroke: #ff7f0e; stroke-width: 1.5"/>
    <path d="M 355.631323 433 
L 355.631323 274.836923 
" clip-path="url(#p8cbe4aa5af)" style="fill: none; stroke: #ff7f0e; stroke-width: 1.5"/>
    <path d="M 362.953894 433 
L 362.953894 270.313409 
" clip-path="url(#p8cbe4aa5af)" style="fill: none; stroke: #ff7f0e; stroke-width: 1.5"/>
    <path d="M 370.276464 430.531929 
L 370.276464 318.339137 
" clip-path="url(#p8cbe4aa5af)" style="fill: none; stroke: #ff7f0e; stroke-width: 1.5"/>
    <path d="M 377.599035 414.174596 
L 377.599035 299.682059 
" clip-path="url(#p8cbe4aa5af)" style="fill: none; stroke: #ff7f0e; stroke-width: 1.5"/>
    <path d="M 384.921606 392.66119 
L 384.921606 333.768377 
" clip-path="url(#p8cbe4aa5af)" style="fill: none; stroke: #ff7f0e; stroke-width: 1.5"/>
    <path d="M 392.244176 417.716057 
L 392.244176 313.742802 
" clip-path="url(#p8cbe4aa5af)" style="fill: none; stroke: #ff7f0e; stroke-width: 1.5"/>
    <path d="M 399.566747 433 
L 399.566747 234.904304 
" clip-path="url(#p8cbe4aa5af)" style="fill: none; stroke: #ff7f0e; stroke-width: 1.5"/>
    <path d="M 406.889318 433 
L 406.889318 276.075689 
" clip-path="url(#p8cbe4aa5af)" style="fill: none; stroke: #ff7f0e; stroke-width: 1.5"/>
    <path d="M 414.211888 416.77553 
L 414.211888 297.44014 
" clip-path="url(#p8cbe4aa5af)" style="fill: none; stroke: #ff7f0e; stroke-width: 1.5"/>
    <path d="M 421.534459 399.428443 
L 421.534459 322.76827 
" clip-path="url(#p8cbe4aa5af)" style="fill: none; stroke: #ff7f0e; stroke-width: 1.5"/>
    <path d="M 428.85703 387.660315 
L 428.85703 324.148187 
" clip-path="url(#p8cbe4aa5af)" style="fill: none; stroke: #ff7f0e; stroke-width: 1.5"/>
    <path d="M 436.1796 433 
L 436.1796 278.38793 
" clip-path="url(#p8cbe4aa5af)" style="fill: none; stroke: #ff7f0e; stroke-width: 1.5"/>
    <path d="M 443.502171 395.981877 
L 443.502171 339.653395 
" clip-path="url(#p8cbe4aa5af)" style="fill: none; stroke: #ff7f0e; stroke-width: 1.5"/>
    <path d="M 450.824742 382.785134 
L 450.824742 326.015429 
" clip-path="url(#p8cbe4aa5af)" style="fill: none; stroke: #ff7f0e; stroke-width: 1.5"/>
    <path d="M 458.147312 402.332859 
L 458.147312 338.969165 
" clip-path="url(#p8cbe4aa5af)" style="fill: none; stroke: #ff7f0e; stroke-width: 1.5"/>
    <path d="M 465.469883 389.668799 
L 465.469883 338.258917 
" clip-path="url(#p8cbe4aa5af)" style="fill: none; stroke: #ff7f0e; stroke-width: 1.5"/>
    <path d="M 472.792454 393.9201 
L 472.792454 353.940455 
" clip-path="url(#p8cbe4aa5af)" style="fill: none; stroke: #ff7f0e; stroke-width: 1.5"/>
    <path d="M 480.115024 433 
L 480.115024 280.627407 
" clip-path="url(#p8cbe4aa5af)" style="fill: none; stroke: #ff7f0e; stroke-width: 1.5"/>
    <path d="M 487.437595 405.689318 
L 487.437595 317.02327 
" clip-path="url(#p8cbe4aa5af)" style="fill: none; stroke: #ff7f0e; stroke-width: 1.5"/>
    <path d="M 494.760166 379.381983 
L 494.760166 341.244206 
" clip-path="url(#p8cbe4aa5af)" style="fill: none; stroke: #ff7f0e; stroke-width: 1.5"/>
    <path d="M 502.082736 373.077866 
L 502.082736 314.881167 
" clip-path="url(#p8cbe4aa5af)" style="fill: none; stroke: #ff7f0e; stroke-width: 1.5"/>
    <path d="M 509.405307 387.509409 
L 509.405307 318.521412 
" clip-path="url(#p8cbe4aa5af)" style="fill: none; stroke: #ff7f0e; stroke-width: 1.5"/>
    <path d="M 516.727878 433 
L 516.727878 258.164432 
" clip-path="url(#p8cbe4aa5af)" style="fill: none; stroke: #ff7f0e; stroke-width: 1.5"/>
    <path d="M 524.050448 433 
L 524.050448 304.72279 
" clip-path="url(#p8cbe4aa5af)" style="fill: none; stroke: #ff7f0e; stroke-width: 1.5"/>
    <path d="M 531.373019 381.212181 
L 531.373019 332.113717 
" clip-path="url(#p8cbe4aa5af)" style="fill: none; stroke: #ff7f0e; stroke-width: 1.5"/>
    <path d="M 538.69559 399.148918 
L 538.69559 322.789065 
" clip-path="url(#p8cbe4aa5af)" style="fill: none; stroke: #ff7f0e; stroke-width: 1.5"/>
    <path d="M 546.01816 374.840395 
L 546.01816 314.96184 
" clip-path="url(#p8cbe4aa5af)" style="fill: none; stroke: #ff7f0e; stroke-width: 1.5"/>
    <path d="M 553.340731 433 
L 553.340731 256.619663 
" clip-path="url(#p8cbe4aa5af)" style="fill: none; stroke: #ff7f0e; stroke-width: 1.5"/>
    <path d="M 560.663302 391.210791 
L 560.663302 308.615774 
" clip-path="url(#p8cbe4aa5af)" style="fill: none; stroke: #ff7f0e; stroke-width: 1.5"/>
    <path d="M 567.985872 396.806294 
L 567.985872 329.03779 
" clip-path="url(#p8cbe4aa5af)" style="fill: none; stroke: #ff7f0e; stroke-width: 1.5"/>
    <path d="M 575.308443 433 
L 575.308443 303.347784 
" clip-path="url(#p8cbe4aa5af)" style="fill: none; stroke: #ff7f0e; stroke-width: 1.5"/>
    <path d="M 582.631014 366.671469 
L 582.631014 307.498115 
" clip-path="url(#p8cbe4aa5af)" style="fill: none; stroke: #ff7f0e; stroke-width: 1.5"/>
    <path d="M 589.953584 433 
L 589.953584 295.890177 
" clip-path="url(#p8cbe4aa5af)" style="fill: none; stroke: #ff7f0e; stroke-width: 1.5"/>
    <path d="M 597.276155 433 
L 597.276155 259.610671 
" clip-path="url(#p8cbe4aa5af)" style="fill: none; stroke: #ff7f0e; stroke-width: 1.5"/>
    <path d="M 604.598726 433 
L 604.598726 310.046955 
" clip-path="url(#p8cbe4aa5af)" style="fill: none; stroke: #ff7f0e; stroke-width: 1.5"/>
    <path d="M 611.921296 376.362704 
L 611.921296 319.091671 
" clip-path="url(#p8cbe4aa5af)" style="fill: none; stroke: #ff7f0e; stroke-width: 1.5"/>
    <path d="M 619.243867 429.73129 
L 619.243867 308.483849 
" clip-path="url(#p8cbe4aa5af)" style="fill: none; stroke: #ff7f0e; stroke-width: 1.5"/>
    <path d="M 626.566438 433 
L 626.566438 256.054108 
" clip-path="url(#p8cbe4aa5af)" style="fill: none; stroke: #ff7f0e; stroke-width: 1.5"/>
    <path d="M 633.889008 429.574391 
L 633.889008 313.442606 
" clip-path="url(#p8cbe4aa5af)" style="fill: none; stroke: #ff7f0e; stroke-width: 1.5"/>
    <path d="M 641.211579 433 
L 641.211579 319.443687 
" clip-path="url(#p8cbe4aa5af)" style="fill: none; stroke: #ff7f0e; stroke-width: 1.5"/>
    <path d="M 648.53415 373.477733 
L 648.53415 338.204711 
" clip-path="url(#p8cbe4aa5af)" style="fill: none; stroke: #ff7f0e; stroke-width: 1.5"/>
    <path d="M 655.85672 433 
L 655.85672 298.92922 
" clip-path="url(#p8cbe4aa5af)" style="fill: none; stroke: #ff7f0e; stroke-width: 1.5"/>
    <path d="M 663.179291 409.351018 
L 663.179291 298.692735 
" clip-path="url(#p8cbe4aa5af)" style="fill: none; stroke: #ff7f0e; stroke-width: 1.5"/>
    <path d="M 670.501862 405.927645 
L 670.501862 304.550558 
" clip-path="url(#p8cbe4aa5af)" style="fill: none; stroke: #ff7f0e; stroke-width: 1.5"/>
    <path d="M 677.824432 382.994372 
L 677.824432 335.293707 
" clip-path="url(#p8cbe4aa5af)" style="fill: none; stroke: #ff7f0e; stroke-width: 1.5"/>
    <path d="M 685.147003 401.300371 
L 685.147003 316.130893 
" clip-path="url(#p8cbe4aa5af)" style="fill: none; stroke: #ff7f0e; stroke-width: 1.5"/>
    <path d="M 692.469574 382.491184 
L 692.469574 323.637402 
" clip-path="url(#p8cbe4aa5af)" style="fill: none; stroke: #ff7f0e; stroke-width: 1.5"/>
    <path d="M 699.792144 387.088212 
L 699.792144 330.097223 
" clip-path="url(#p8cbe4aa5af)" style="fill: none; stroke: #ff7f0e; stroke-width: 1.5"/>
    <path d="M 707.114715 379.376132 
L 707.114715 310.108744 
" clip-path="url(#p8cbe4aa5af)" style="fill: none; stroke: #ff7f0e; stroke-width: 1.5"/>
    <path d="M 714.437286 433 
L 714.437286 255.294866 
" clip-path="url(#p8cbe4aa5af)" style="fill: none; stroke: #ff7f0e; stroke-width: 1.5"/>
    <path d="M 721.759856 380.071532 
L 721.759856 303.59643 
" clip-path="url(#p8cbe4aa5af)" style="fill: none; stroke: #ff7f0e; stroke-width: 1.5"/>
    <path d="M 729.082427 374.523531 
L 729.082427 333.800041 
" clip-path="url(#p8cbe4aa5af)" style="fill: none; stroke: #ff7f0e; stroke-width: 1.5"/>
    <path d="M 736.404998 384.483046 
L 736.404998 313.964219 
" clip-path="url(#p8cbe4aa5af)" style="fill: none; stroke: #ff7f0e; stroke-width: 1.5"/>
    <path d="M 743.727568 430.131174 
L 743.727568 299.562038 
" clip-path="url(#p8cbe4aa5af)" style="fill: none; stroke: #ff7f0e; stroke-width: 1.5"/>
    <path d="M 751.050139 397.879726 
L 751.050139 326.907311 
" clip-path="url(#p8cbe4aa5af)" style="fill: none; stroke: #ff7f0e; stroke-width: 1.5"/>
    <path d="M 758.37271 433 
L 758.37271 216.06635 
" clip-path="url(#p8cbe4aa5af)" style="fill: none; stroke: #ff7f0e; stroke-width: 1.5"/>
    <path d="M 765.69528 433 
L 765.69528 273.94236 
" clip-path="url(#p8cbe4aa5af)" style="fill: none; stroke: #ff7f0e; stroke-width: 1.5"/>
    <path d="M 773.017851 433 
L 773.017851 310.036049 
" clip-path="url(#p8cbe4aa5af)" style="fill: none; stroke: #ff7f0e; stroke-width: 1.5"/>
    <path d="M 780.340422 389.159923 
L 780.340422 332.958174 
" clip-path="url(#p8cbe4aa5af)" style="fill: none; stroke: #ff7f0e; stroke-width: 1.5"/>
    <path d="M 787.662992 384.191626 
L 787.662992 348.492293 
" clip-path="url(#p8cbe4aa5af)" style="fill: none; stroke: #ff7f0e; stroke-width: 1.5"/>
    <path d="M 794.985563 399.703256 
L 794.985563 344.060303 
" clip-path="url(#p8cbe4aa5af)" style="fill: none; stroke: #ff7f0e; stroke-width: 1.5"/>
    <path d="M 802.308134 433 
L 802.308134 221.386988 
" clip-path="url(#p8cbe4aa5af)" style="fill: none; stroke: #ff7f0e; stroke-width: 1.5"/>
    <path d="M 809.630705 433 
L 809.630705 268.75548 
" clip-path="url(#p8cbe4aa5af)" style="fill: none; stroke: #ff7f0e; stroke-width: 1.5"/>
    <path d="M 816.953275 433 
L 816.953275 326.204745 
" clip-path="url(#p8cbe4aa5af)" style="fill: none; stroke: #ff7f0e; stroke-width: 1.5"/>
   </g>
   <g id="line2d_38">
    <path d="M 92.018779 45.484634 
L 99.341349 73.798561 
L 106.66392 102.602848 
L 113.986491 111.559207 
L 121.309061 120.887739 
L 128.631632 130.990253 
L 135.954203 139.356714 
L 143.276773 149.144846 
L 150.599344 158.930242 
L 157.921915 167.678173 
L 165.244485 177.431379 
L 172.567056 186.580331 
L 179.889627 195.796643 
L 187.212197 205.734346 
L 194.534768 214.341972 
L 201.857339 222.758541 
L 209.179909 233.92833 
L 216.50248 239.225354 
L 223.825051 249.213541 
L 231.147621 259.980263 
L 238.470192 267.789523 
L 245.792763 276.75489 
L 253.115333 281.031781 
L 260.437904 289.818551 
L 267.760475 299.505225 
L 275.083046 308.344934 
L 282.405616 307.6145 
L 289.728187 316.036382 
L 297.050758 323.518839 
L 304.373328 330.28423 
L 311.695899 333.765847 
L 319.01847 333.573914 
L 326.34104 340.252578 
L 333.663611 344.156083 
L 340.986182 343.495884 
L 348.308752 352.204336 
L 355.631323 352.21887 
L 362.953894 350.210199 
L 370.276464 354.326355 
L 377.599035 355.660575 
L 384.921606 355.13688 
L 392.244176 357.754148 
L 399.566747 359.08454 
L 406.889318 356.775358 
L 414.211888 353.252636 
L 421.534459 360.942549 
L 428.85703 361.964165 
L 436.1796 360.332587 
L 443.502171 358.745568 
L 450.824742 359.85706 
L 458.147312 362.060262 
L 465.469883 358.584694 
L 472.792454 361.106967 
L 480.115024 362.363593 
L 487.437595 358.075404 
L 494.760166 359.241608 
L 502.082736 362.639245 
L 509.405307 361.325203 
L 516.727878 361.686317 
L 524.050448 355.899166 
L 531.373019 360.879738 
L 538.69559 356.788476 
L 546.01816 360.435734 
L 553.340731 363.656372 
L 560.663302 363.629339 
L 567.985872 357.314239 
L 575.308443 357.448319 
L 582.631014 363.417272 
L 589.953584 361.875131 
L 597.276155 357.971114 
L 604.598726 362.179092 
L 611.921296 359.959103 
L 619.243867 363.57996 
L 626.566438 357.253919 
L 633.889008 360.02213 
L 641.211579 360.979034 
L 648.53415 362.542936 
L 655.85672 359.353041 
L 663.179291 359.735466 
L 670.501862 360.35033 
L 677.824432 361.638981 
L 685.147003 361.586901 
L 692.469574 357.118784 
L 699.792144 361.456782 
L 707.114715 360.160487 
L 714.437286 364.670239 
L 721.759856 358.628706 
L 729.082427 358.693008 
L 736.404998 358.881743 
L 743.727568 363.55536 
L 751.050139 360.932097 
L 758.37271 358.465725 
L 765.69528 359.701198 
L 773.017851 357.461121 
L 780.340422 362.854773 
L 787.662992 361.90236 
L 794.985563 363.294479 
L 802.308134 361.03175 
L 809.630705 358.998771 
L 816.953275 358.615808 
" clip-path="url(#p8cbe4aa5af)" style="fill: none; stroke: #1f77b4; stroke-width: 1.5; stroke-linecap: square"/>
   </g>
   <g id="line2d_39">
    <path d="M 92.018779 45.424108 
L 99.341349 107.372355 
L 106.66392 170.436777 
L 113.986491 233.62651 
L 121.309061 292.536088 
L 128.631632 347.168695 
L 135.954203 347.574075 
L 143.276773 347.402458 
L 150.599344 357.216286 
L 157.921915 347.668966 
L 165.244485 273.832015 
L 172.567056 304.65019 
L 179.889627 336.36751 
L 187.212197 335.887808 
L 194.534768 310.757105 
L 201.857339 358.220366 
L 209.179909 240.518432 
L 216.50248 298.268934 
L 223.825051 314.042996 
L 231.147621 352.394089 
L 238.470192 341.501105 
L 245.792763 353.036142 
L 253.115333 359.325424 
L 260.437904 343.720713 
L 267.760475 364.483156 
L 275.083046 331.629583 
L 282.405616 341.873428 
L 289.728187 342.640658 
L 297.050758 344.556809 
L 304.373328 334.562504 
L 311.695899 357.725224 
L 319.01847 343.773672 
L 326.34104 342.229254 
L 333.663611 354.801696 
L 340.986182 323.60987 
L 348.308752 351.1148 
L 355.631323 313.564478 
L 362.953894 312.394924 
L 370.276464 345.971533 
L 377.599035 327.486227 
L 384.921606 354.204343 
L 392.244176 340.690868 
L 399.566747 286.510592 
L 406.889318 316.190125 
L 414.211888 325.580466 
L 421.534459 346.443057 
L 428.85703 345.528517 
L 436.1796 315.655795 
L 443.502171 359.531144 
L 450.824742 345.991003 
L 458.147312 360.320337 
L 465.469883 356.994572 
L 472.792454 369.632131 
L 480.115024 319.535204 
L 487.437595 342.352805 
L 494.760166 356.391026 
L 502.082736 335.168052 
L 509.405307 340.924798 
L 516.727878 305.002142 
L 524.050448 337.167254 
L 531.373019 350.278966 
L 538.69559 346.417422 
L 546.01816 335.605834 
L 553.340731 307.223756 
L 560.663302 333.156051 
L 567.985872 351.222031 
L 575.308443 334.357237 
L 582.631014 327.993652 
L 589.953584 332.557323 
L 597.276155 300.202362 
L 604.598726 340.856814 
L 611.921296 339.177494 
L 619.243867 336.747886 
L 626.566438 303.533144 
L 633.889008 341.364344 
L 641.211579 347.205927 
L 648.53415 352.472552 
L 655.85672 329.196893 
L 663.179291 326.205924 
L 670.501862 331.257686 
L 677.824432 353.103208 
L 685.147003 341.017189 
L 692.469574 344.065057 
L 699.792144 350.121578 
L 707.114715 332.561654 
L 714.437286 300.896678 
L 721.759856 327.242636 
L 729.082427 349.707333 
L 736.404998 336.635878 
L 743.727568 328.363313 
L 751.050139 349.657023 
L 758.37271 271.651522 
L 765.69528 309.890251 
L 773.017851 342.579795 
L 780.340422 352.807687 
L 787.662992 362.893398 
L 794.985563 363.784576 
L 802.308134 272.227451 
L 809.630705 310.416373 
L 816.953275 353.623251 
" clip-path="url(#p8cbe4aa5af)" style="fill: none; stroke: #ff7f0e; stroke-width: 1.5; stroke-linecap: square"/>
   </g>
   <g id="patch_3">
    <path d="M 55.772054 390.04 
L 55.772054 28.32 
" style="fill: none; stroke: #000000; stroke-width: 0.8; stroke-linejoin: miter; stroke-linecap: square"/>
   </g>
   <g id="patch_4">
    <path d="M 853.2 390.04 
L 853.2 28.32 
" style="fill: none; stroke: #000000; stroke-width: 0.8; stroke-linejoin: miter; stroke-linecap: square"/>
   </g>
   <g id="patch_5">
    <path d="M 55.772054 390.04 
L 853.2 390.04 
" style="fill: none; stroke: #000000; stroke-width: 0.8; stroke-linejoin: miter; stroke-linecap: square"/>
   </g>
   <g id="patch_6">
    <path d="M 55.772054 28.32 
L 853.2 28.32 
" style="fill: none; stroke: #000000; stroke-width: 0.8; stroke-linejoin: miter; stroke-linecap: square"/>
   </g>
   <g id="text_13">
    <!-- Minibatch SGD Constant ($\alpha=5.0e-02, N=25$) vs Polyak Step Size ($N=4$), 10 runs each) -->
    <g transform="translate(185.146027 22.32) scale(0.12 -0.12)">
     <defs>
      <path id="DejaVuSans-4d" d="M 628 4666 
L 1569 4666 
L 2759 1491 
L 3956 4666 
L 4897 4666 
L 4897 0 
L 4281 0 
L 4281 4097 
L 3078 897 
L 2444 897 
L 1241 4097 
L 1241 0 
L 628 0 
L 628 4666 
z
" transform="scale(0.015625)"/>
      <path id="DejaVuSans-62" d="M 3116 1747 
Q 3116 2381 2855 2742 
Q 2594 3103 2138 3103 
Q 1681 3103 1420 2742 
Q 1159 2381 1159 1747 
Q 1159 1113 1420 752 
Q 1681 391 2138 391 
Q 2594 391 2855 752 
Q 3116 1113 3116 1747 
z
M 1159 2969 
Q 1341 3281 1617 3432 
Q 1894 3584 2278 3584 
Q 2916 3584 3314 3078 
Q 3713 2572 3713 1747 
Q 3713 922 3314 415 
Q 2916 -91 2278 -91 
Q 1894 -91 1617 61 
Q 1341 213 1159 525 
L 1159 0 
L 581 0 
L 581 4863 
L 1159 4863 
L 1159 2969 
z
" transform="scale(0.015625)"/>
      <path id="DejaVuSans-68" d="M 3513 2113 
L 3513 0 
L 2938 0 
L 2938 2094 
Q 2938 2591 2744 2837 
Q 2550 3084 2163 3084 
Q 1697 3084 1428 2787 
Q 1159 2491 1159 1978 
L 1159 0 
L 581 0 
L 581 4863 
L 1159 4863 
L 1159 2956 
Q 1366 3272 1645 3428 
Q 1925 3584 2291 3584 
Q 2894 3584 3203 3211 
Q 3513 2838 3513 2113 
z
" transform="scale(0.015625)"/>
      <path id="DejaVuSans-53" d="M 3425 4513 
L 3425 3897 
Q 3066 4069 2747 4153 
Q 2428 4238 2131 4238 
Q 1616 4238 1336 4038 
Q 1056 3838 1056 3469 
Q 1056 3159 1242 3001 
Q 1428 2844 1947 2747 
L 2328 2669 
Q 3034 2534 3370 2195 
Q 3706 1856 3706 1288 
Q 3706 609 3251 259 
Q 2797 -91 1919 -91 
Q 1588 -91 1214 -16 
Q 841 59 441 206 
L 441 856 
Q 825 641 1194 531 
Q 1563 422 1919 422 
Q 2459 422 2753 634 
Q 3047 847 3047 1241 
Q 3047 1584 2836 1778 
Q 2625 1972 2144 2069 
L 1759 2144 
Q 1053 2284 737 2584 
Q 422 2884 422 3419 
Q 422 4038 858 4394 
Q 1294 4750 2059 4750 
Q 2388 4750 2728 4690 
Q 3069 4631 3425 4513 
z
" transform="scale(0.015625)"/>
      <path id="DejaVuSans-47" d="M 3809 666 
L 3809 1919 
L 2778 1919 
L 2778 2438 
L 4434 2438 
L 4434 434 
Q 4069 175 3628 42 
Q 3188 -91 2688 -91 
Q 1594 -91 976 548 
Q 359 1188 359 2328 
Q 359 3472 976 4111 
Q 1594 4750 2688 4750 
Q 3144 4750 3555 4637 
Q 3966 4525 4313 4306 
L 4313 3634 
Q 3963 3931 3569 4081 
Q 3175 4231 2741 4231 
Q 1884 4231 1454 3753 
Q 1025 3275 1025 2328 
Q 1025 1384 1454 906 
Q 1884 428 2741 428 
Q 3075 428 3337 486 
Q 3600 544 3809 666 
z
" transform="scale(0.015625)"/>
      <path id="DejaVuSans-44" d="M 1259 4147 
L 1259 519 
L 2022 519 
Q 2988 519 3436 956 
Q 3884 1394 3884 2338 
Q 3884 3275 3436 3711 
Q 2988 4147 2022 4147 
L 1259 4147 
z
M 628 4666 
L 1925 4666 
Q 3281 4666 3915 4102 
Q 4550 3538 4550 2338 
Q 4550 1131 3912 565 
Q 3275 0 1925 0 
L 628 0 
L 628 4666 
z
" transform="scale(0.015625)"/>
      <path id="DejaVuSans-43" d="M 4122 4306 
L 4122 3641 
Q 3803 3938 3442 4084 
Q 3081 4231 2675 4231 
Q 1875 4231 1450 3742 
Q 1025 3253 1025 2328 
Q 1025 1406 1450 917 
Q 1875 428 2675 428 
Q 3081 428 3442 575 
Q 3803 722 4122 1019 
L 4122 359 
Q 3791 134 3420 21 
Q 3050 -91 2638 -91 
Q 1578 -91 968 557 
Q 359 1206 359 2328 
Q 359 3453 968 4101 
Q 1578 4750 2638 4750 
Q 3056 4750 3426 4639 
Q 3797 4528 4122 4306 
z
" transform="scale(0.015625)"/>
      <path id="DejaVuSans-28" d="M 1984 4856 
Q 1566 4138 1362 3434 
Q 1159 2731 1159 2009 
Q 1159 1288 1364 580 
Q 1569 -128 1984 -844 
L 1484 -844 
Q 1016 -109 783 600 
Q 550 1309 550 2009 
Q 550 2706 781 3412 
Q 1013 4119 1484 4856 
L 1984 4856 
z
" transform="scale(0.015625)"/>
      <path id="DejaVuSans-Oblique-3b1" d="M 2619 1628 
L 2622 2350 
Q 2625 3088 2069 3091 
Q 1653 3094 1394 2747 
Q 1069 2319 959 1747 
Q 825 1059 994 731 
Q 1169 397 1547 397 
Q 1966 397 2319 1063 
L 2619 1628 
z
M 2166 3578 
Q 3141 3594 3128 2584 
Q 3128 2584 3616 3500 
L 4128 3500 
L 3119 1603 
L 3109 919 
Q 3109 766 3194 638 
Q 3291 488 3391 488 
L 3669 488 
L 3575 0 
L 3228 0 
Q 2934 0 2722 263 
Q 2622 394 2619 669 
Q 2416 334 2066 50 
Q 1900 -81 1453 -78 
Q 722 -72 456 397 
Q 184 884 353 1747 
Q 534 2675 1009 3097 
Q 1544 3569 2166 3578 
z
" transform="scale(0.015625)"/>
      <path id="DejaVuSans-3d" d="M 678 2906 
L 4684 2906 
L 4684 2381 
L 678 2381 
L 678 2906 
z
M 678 1631 
L 4684 1631 
L 4684 1100 
L 678 1100 
L 678 1631 
z
" transform="scale(0.015625)"/>
      <path id="DejaVuSans-35" d="M 691 4666 
L 3169 4666 
L 3169 4134 
L 1269 4134 
L 1269 2991 
Q 1406 3038 1543 3061 
Q 1681 3084 1819 3084 
Q 2600 3084 3056 2656 
Q 3513 2228 3513 1497 
Q 3513 744 3044 326 
Q 2575 -91 1722 -91 
Q 1428 -91 1123 -41 
Q 819 9 494 109 
L 494 744 
Q 775 591 1075 516 
Q 1375 441 1709 441 
Q 2250 441 2565 725 
Q 2881 1009 2881 1497 
Q 2881 1984 2565 2268 
Q 2250 2553 1709 2553 
Q 1456 2553 1204 2497 
Q 953 2441 691 2322 
L 691 4666 
z
" transform="scale(0.015625)"/>
      <path id="DejaVuSans-Oblique-65" d="M 3078 2063 
Q 3088 2113 3092 2166 
Q 3097 2219 3097 2272 
Q 3097 2653 2873 2875 
Q 2650 3097 2266 3097 
Q 1838 3097 1509 2826 
Q 1181 2556 1013 2059 
L 3078 2063 
z
M 3578 1613 
L 903 1613 
Q 884 1494 878 1425 
Q 872 1356 872 1306 
Q 872 872 1139 634 
Q 1406 397 1894 397 
Q 2269 397 2603 481 
Q 2938 566 3225 728 
L 3116 159 
Q 2806 34 2476 -28 
Q 2147 -91 1806 -91 
Q 1078 -91 686 257 
Q 294 606 294 1247 
Q 294 1794 489 2264 
Q 684 2734 1063 3103 
Q 1306 3334 1642 3459 
Q 1978 3584 2356 3584 
Q 2950 3584 3301 3228 
Q 3653 2872 3653 2272 
Q 3653 2128 3634 1964 
Q 3616 1800 3578 1613 
z
" transform="scale(0.015625)"/>
      <path id="DejaVuSans-2c" d="M 750 794 
L 1409 794 
L 1409 256 
L 897 -744 
L 494 -744 
L 750 256 
L 750 794 
z
" transform="scale(0.015625)"/>
      <path id="DejaVuSans-Oblique-4e" d="M 1081 4666 
L 1931 4666 
L 3219 666 
L 4000 4666 
L 4616 4666 
L 3706 0 
L 2853 0 
L 1569 4025 
L 788 0 
L 172 0 
L 1081 4666 
z
" transform="scale(0.015625)"/>
      <path id="DejaVuSans-29" d="M 513 4856 
L 1013 4856 
Q 1481 4119 1714 3412 
Q 1947 2706 1947 2009 
Q 1947 1309 1714 600 
Q 1481 -109 1013 -844 
L 513 -844 
Q 928 -128 1133 580 
Q 1338 1288 1338 2009 
Q 1338 2731 1133 3434 
Q 928 4138 513 4856 
z
" transform="scale(0.015625)"/>
      <path id="DejaVuSans-76" d="M 191 3500 
L 800 3500 
L 1894 563 
L 2988 3500 
L 3597 3500 
L 2284 0 
L 1503 0 
L 191 3500 
z
" transform="scale(0.015625)"/>
      <path id="DejaVuSans-50" d="M 1259 4147 
L 1259 2394 
L 2053 2394 
Q 2494 2394 2734 2622 
Q 2975 2850 2975 3272 
Q 2975 3691 2734 3919 
Q 2494 4147 2053 4147 
L 1259 4147 
z
M 628 4666 
L 2053 4666 
Q 2838 4666 3239 4311 
Q 3641 3956 3641 3272 
Q 3641 2581 3239 2228 
Q 2838 1875 2053 1875 
L 1259 1875 
L 1259 0 
L 628 0 
L 628 4666 
z
" transform="scale(0.015625)"/>
      <path id="DejaVuSans-79" d="M 2059 -325 
Q 1816 -950 1584 -1140 
Q 1353 -1331 966 -1331 
L 506 -1331 
L 506 -850 
L 844 -850 
Q 1081 -850 1212 -737 
Q 1344 -625 1503 -206 
L 1606 56 
L 191 3500 
L 800 3500 
L 1894 763 
L 2988 3500 
L 3597 3500 
L 2059 -325 
z
" transform="scale(0.015625)"/>
      <path id="DejaVuSans-6b" d="M 581 4863 
L 1159 4863 
L 1159 1991 
L 2875 3500 
L 3609 3500 
L 1753 1863 
L 3688 0 
L 2938 0 
L 1159 1709 
L 1159 0 
L 581 0 
L 581 4863 
z
" transform="scale(0.015625)"/>
      <path id="DejaVuSans-70" d="M 1159 525 
L 1159 -1331 
L 581 -1331 
L 581 3500 
L 1159 3500 
L 1159 2969 
Q 1341 3281 1617 3432 
Q 1894 3584 2278 3584 
Q 2916 3584 3314 3078 
Q 3713 2572 3713 1747 
Q 3713 922 3314 415 
Q 2916 -91 2278 -91 
Q 1894 -91 1617 61 
Q 1341 213 1159 525 
z
M 3116 1747 
Q 3116 2381 2855 2742 
Q 2594 3103 2138 3103 
Q 1681 3103 1420 2742 
Q 1159 2381 1159 1747 
Q 1159 1113 1420 752 
Q 1681 391 2138 391 
Q 2594 391 2855 752 
Q 3116 1113 3116 1747 
z
" transform="scale(0.015625)"/>
      <path id="DejaVuSans-7a" d="M 353 3500 
L 3084 3500 
L 3084 2975 
L 922 459 
L 3084 459 
L 3084 0 
L 275 0 
L 275 525 
L 2438 3041 
L 353 3041 
L 353 3500 
z
" transform="scale(0.015625)"/>
     </defs>
     <use xlink:href="#DejaVuSans-4d" transform="translate(0 0.015625)"/>
     <use xlink:href="#DejaVuSans-69" transform="translate(86.279297 0.015625)"/>
     <use xlink:href="#DejaVuSans-6e" transform="translate(114.0625 0.015625)"/>
     <use xlink:href="#DejaVuSans-69" transform="translate(177.441406 0.015625)"/>
     <use xlink:href="#DejaVuSans-62" transform="translate(205.224609 0.015625)"/>
     <use xlink:href="#DejaVuSans-61" transform="translate(268.701172 0.015625)"/>
     <use xlink:href="#DejaVuSans-74" transform="translate(329.980469 0.015625)"/>
     <use xlink:href="#DejaVuSans-63" transform="translate(369.189453 0.015625)"/>
     <use xlink:href="#DejaVuSans-68" transform="translate(424.169922 0.015625)"/>
     <use xlink:href="#DejaVuSans-20" transform="translate(487.548828 0.015625)"/>
     <use xlink:href="#DejaVuSans-53" transform="translate(519.335938 0.015625)"/>
     <use xlink:href="#DejaVuSans-47" transform="translate(582.8125 0.015625)"/>
     <use xlink:href="#DejaVuSans-44" transform="translate(660.302734 0.015625)"/>
     <use xlink:href="#DejaVuSans-20" transform="translate(737.304688 0.015625)"/>
     <use xlink:href="#DejaVuSans-43" transform="translate(769.091797 0.015625)"/>
     <use xlink:href="#DejaVuSans-6f" transform="translate(838.916016 0.015625)"/>
     <use xlink:href="#DejaVuSans-6e" transform="translate(900.097656 0.015625)"/>
     <use xlink:href="#DejaVuSans-73" transform="translate(963.476562 0.015625)"/>
     <use xlink:href="#DejaVuSans-74" transform="translate(1015.576172 0.015625)"/>
     <use xlink:href="#DejaVuSans-61" transform="translate(1054.785156 0.015625)"/>
     <use xlink:href="#DejaVuSans-6e" transform="translate(1116.064453 0.015625)"/>
     <use xlink:href="#DejaVuSans-74" transform="translate(1179.443359 0.015625)"/>
     <use xlink:href="#DejaVuSans-20" transform="translate(1218.652344 0.015625)"/>
     <use xlink:href="#DejaVuSans-28" transform="translate(1250.439453 0.015625)"/>
     <use xlink:href="#DejaVuSans-Oblique-3b1" transform="translate(1289.453125 0.015625)"/>
     <use xlink:href="#DejaVuSans-3d" transform="translate(1374.853516 0.015625)"/>
     <use xlink:href="#DejaVuSans-35" transform="translate(1478.125 0.015625)"/>
     <use xlink:href="#DejaVuSans-2e" transform="translate(1541.748047 0.015625)"/>
     <use xlink:href="#DejaVuSans-30" transform="translate(1573.535156 0.015625)"/>
     <use xlink:href="#DejaVuSans-Oblique-65" transform="translate(1637.158203 0.015625)"/>
     <use xlink:href="#DejaVuSans-2212" transform="translate(1718.164062 0.015625)"/>
     <use xlink:href="#DejaVuSans-30" transform="translate(1821.435547 0.015625)"/>
     <use xlink:href="#DejaVuSans-32" transform="translate(1885.058594 0.015625)"/>
     <use xlink:href="#DejaVuSans-2c" transform="translate(1948.681641 0.015625)"/>
     <use xlink:href="#DejaVuSans-Oblique-4e" transform="translate(1999.951172 0.015625)"/>
     <use xlink:href="#DejaVuSans-3d" transform="translate(2094.238281 0.015625)"/>
     <use xlink:href="#DejaVuSans-32" transform="translate(2197.509766 0.015625)"/>
     <use xlink:href="#DejaVuSans-35" transform="translate(2261.132812 0.015625)"/>
     <use xlink:href="#DejaVuSans-29" transform="translate(2324.755859 0.015625)"/>
     <use xlink:href="#DejaVuSans-20" transform="translate(2363.769531 0.015625)"/>
     <use xlink:href="#DejaVuSans-76" transform="translate(2395.556641 0.015625)"/>
     <use xlink:href="#DejaVuSans-73" transform="translate(2454.736328 0.015625)"/>
     <use xlink:href="#DejaVuSans-20" transform="translate(2506.835938 0.015625)"/>
     <use xlink:href="#DejaVuSans-50" transform="translate(2538.623047 0.015625)"/>
     <use xlink:href="#DejaVuSans-6f" transform="translate(2598.925781 0.015625)"/>
     <use xlink:href="#DejaVuSans-6c" transform="translate(2660.107422 0.015625)"/>
     <use xlink:href="#DejaVuSans-79" transform="translate(2687.890625 0.015625)"/>
     <use xlink:href="#DejaVuSans-61" transform="translate(2747.070312 0.015625)"/>
     <use xlink:href="#DejaVuSans-6b" transform="translate(2808.349609 0.015625)"/>
     <use xlink:href="#DejaVuSans-20" transform="translate(2866.259766 0.015625)"/>
     <use xlink:href="#DejaVuSans-53" transform="translate(2898.046875 0.015625)"/>
     <use xlink:href="#DejaVuSans-74" transform="translate(2961.523438 0.015625)"/>
     <use xlink:href="#DejaVuSans-65" transform="translate(3000.732422 0.015625)"/>
     <use xlink:href="#DejaVuSans-70" transform="translate(3062.255859 0.015625)"/>
     <use xlink:href="#DejaVuSans-20" transform="translate(3125.732422 0.015625)"/>
     <use xlink:href="#DejaVuSans-53" transform="translate(3157.519531 0.015625)"/>
     <use xlink:href="#DejaVuSans-69" transform="translate(3220.996094 0.015625)"/>
     <use xlink:href="#DejaVuSans-7a" transform="translate(3248.779297 0.015625)"/>
     <use xlink:href="#DejaVuSans-65" transform="translate(3301.269531 0.015625)"/>
     <use xlink:href="#DejaVuSans-20" transform="translate(3362.792969 0.015625)"/>
     <use xlink:href="#DejaVuSans-28" transform="translate(3394.580078 0.015625)"/>
     <use xlink:href="#DejaVuSans-Oblique-4e" transform="translate(3433.59375 0.015625)"/>
     <use xlink:href="#DejaVuSans-3d" transform="translate(3527.880859 0.015625)"/>
     <use xlink:href="#DejaVuSans-34" transform="translate(3631.152344 0.015625)"/>
     <use xlink:href="#DejaVuSans-29" transform="translate(3694.775391 0.015625)"/>
     <use xlink:href="#DejaVuSans-2c" transform="translate(3733.789062 0.015625)"/>
     <use xlink:href="#DejaVuSans-20" transform="translate(3765.576172 0.015625)"/>
     <use xlink:href="#DejaVuSans-31" transform="translate(3797.363281 0.015625)"/>
     <use xlink:href="#DejaVuSans-30" transform="translate(3860.986328 0.015625)"/>
     <use xlink:href="#DejaVuSans-20" transform="translate(3924.609375 0.015625)"/>
     <use xlink:href="#DejaVuSans-72" transform="translate(3956.396484 0.015625)"/>
     <use xlink:href="#DejaVuSans-75" transform="translate(3997.509766 0.015625)"/>
     <use xlink:href="#DejaVuSans-6e" transform="translate(4060.888672 0.015625)"/>
     <use xlink:href="#DejaVuSans-73" transform="translate(4124.267578 0.015625)"/>
     <use xlink:href="#DejaVuSans-20" transform="translate(4176.367188 0.015625)"/>
     <use xlink:href="#DejaVuSans-65" transform="translate(4208.154297 0.015625)"/>
     <use xlink:href="#DejaVuSans-61" transform="translate(4269.677734 0.015625)"/>
     <use xlink:href="#DejaVuSans-63" transform="translate(4330.957031 0.015625)"/>
     <use xlink:href="#DejaVuSans-68" transform="translate(4385.9375 0.015625)"/>
     <use xlink:href="#DejaVuSans-29" transform="translate(4449.316406 0.015625)"/>
    </g>
   </g>
   <g id="legend_1">
    <g id="patch_7">
     <path d="M 687.3 65.698125 
L 846.2 65.698125 
Q 848.2 65.698125 848.2 63.698125 
L 848.2 35.32 
Q 848.2 33.32 846.2 33.32 
L 687.3 33.32 
Q 685.3 33.32 685.3 35.32 
L 685.3 63.698125 
Q 685.3 65.698125 687.3 65.698125 
z
" style="fill: #ffffff; opacity: 0.8; stroke: #cccccc; stroke-linejoin: miter"/>
    </g>
    <g id="LineCollection_3">
     <path d="M 699.3 46.418437 
L 699.3 36.418437 
" style="fill: none; stroke: #1f77b4; stroke-width: 1.5"/>
    </g>
    <g id="line2d_40">
     <path d="M 689.3 41.418437 
L 709.3 41.418437 
" style="fill: none; stroke: #1f77b4; stroke-width: 1.5; stroke-linecap: square"/>
    </g>
    <g id="line2d_41"/>
    <g id="text_14">
     <!-- Constant $\alpha = 0.05, N=25$ -->
     <g transform="translate(717.3 44.918437) scale(0.1 -0.1)">
      <use xlink:href="#DejaVuSans-43" transform="translate(0 0.78125)"/>
      <use xlink:href="#DejaVuSans-6f" transform="translate(69.824219 0.78125)"/>
      <use xlink:href="#DejaVuSans-6e" transform="translate(131.005859 0.78125)"/>
      <use xlink:href="#DejaVuSans-73" transform="translate(194.384766 0.78125)"/>
      <use xlink:href="#DejaVuSans-74" transform="translate(246.484375 0.78125)"/>
      <use xlink:href="#DejaVuSans-61" transform="translate(285.693359 0.78125)"/>
      <use xlink:href="#DejaVuSans-6e" transform="translate(346.972656 0.78125)"/>
      <use xlink:href="#DejaVuSans-74" transform="translate(410.351562 0.78125)"/>
      <use xlink:href="#DejaVuSans-20" transform="translate(449.560547 0.78125)"/>
      <use xlink:href="#DejaVuSans-Oblique-3b1" transform="translate(481.347656 0.78125)"/>
      <use xlink:href="#DejaVuSans-3d" transform="translate(566.748047 0.78125)"/>
      <use xlink:href="#DejaVuSans-30" transform="translate(670.019531 0.78125)"/>
      <use xlink:href="#DejaVuSans-2e" transform="translate(733.642578 0.78125)"/>
      <use xlink:href="#DejaVuSans-30" transform="translate(765.429688 0.78125)"/>
      <use xlink:href="#DejaVuSans-35" transform="translate(829.052734 0.78125)"/>
      <use xlink:href="#DejaVuSans-2c" transform="translate(892.675781 0.78125)"/>
      <use xlink:href="#DejaVuSans-Oblique-4e" transform="translate(943.945312 0.78125)"/>
      <use xlink:href="#DejaVuSans-3d" transform="translate(1038.232422 0.78125)"/>
      <use xlink:href="#DejaVuSans-32" transform="translate(1141.503906 0.78125)"/>
      <use xlink:href="#DejaVuSans-35" transform="translate(1205.126953 0.78125)"/>
     </g>
    </g>
    <g id="LineCollection_4">
     <path d="M 699.3 61.098125 
L 699.3 51.098125 
" style="fill: none; stroke: #ff7f0e; stroke-width: 1.5"/>
    </g>
    <g id="line2d_42">
     <path d="M 689.3 56.098125 
L 709.3 56.098125 
" style="fill: none; stroke: #ff7f0e; stroke-width: 1.5; stroke-linecap: square"/>
    </g>
    <g id="line2d_43"/>
    <g id="text_15">
     <!-- Polyak $N = 4$ -->
     <g transform="translate(717.3 59.598125) scale(0.1 -0.1)">
      <use xlink:href="#DejaVuSans-50" transform="translate(0 0.015625)"/>
      <use xlink:href="#DejaVuSans-6f" transform="translate(60.302734 0.015625)"/>
      <use xlink:href="#DejaVuSans-6c" transform="translate(121.484375 0.015625)"/>
      <use xlink:href="#DejaVuSans-79" transform="translate(149.267578 0.015625)"/>
      <use xlink:href="#DejaVuSans-61" transform="translate(208.447266 0.015625)"/>
      <use xlink:href="#DejaVuSans-6b" transform="translate(269.726562 0.015625)"/>
      <use xlink:href="#DejaVuSans-20" transform="translate(327.636719 0.015625)"/>
      <use xlink:href="#DejaVuSans-Oblique-4e" transform="translate(359.423828 0.015625)"/>
      <use xlink:href="#DejaVuSans-3d" transform="translate(453.710938 0.015625)"/>
      <use xlink:href="#DejaVuSans-34" transform="translate(556.982422 0.015625)"/>
     </g>
    </g>
   </g>
  </g>
 </g>
 <defs>
  <clipPath id="p8cbe4aa5af">
   <rect x="55.772054" y="28.32" width="797.427946" height="361.72"/>
  </clipPath>
 </defs>
</svg>
